G04*
G04 #@! TF.GenerationSoftware,Altium Limited,Altium Designer,25.8.1 (18)*
G04*
G04 Layer_Physical_Order=1*
G04 Layer_Color=255*
%FSLAX44Y44*%
%MOMM*%
G71*
G04*
G04 #@! TF.SameCoordinates,5BCDE232-B0A3-4B63-ACBE-DE64D98267A6*
G04*
G04*
G04 #@! TF.FilePolarity,Positive*
G04*
G01*
G75*
%ADD12C,0.2032*%
%ADD13C,0.2540*%
%ADD14O,3.6000X13.6000*%
G36*
X-17471Y508774D02*
X-17138D01*
X-16305Y508663D01*
X-15360Y508552D01*
X-14305Y508329D01*
X-13249Y507996D01*
X-12194Y507607D01*
X-12138D01*
X-12083Y507552D01*
X-11749Y507385D01*
X-11250Y507107D01*
X-10583Y506774D01*
X-9916Y506274D01*
X-9194Y505774D01*
X-8528Y505163D01*
X-7972Y504441D01*
X-7916Y504330D01*
X-7750Y504108D01*
X-7528Y503663D01*
X-7194Y503108D01*
X-6861Y502441D01*
X-6583Y501663D01*
X-6250Y500775D01*
X-6028Y499775D01*
Y499719D01*
X-5972Y499441D01*
X-5917Y498997D01*
X-5806Y498386D01*
X-5750Y497553D01*
Y497053D01*
X-5695Y496497D01*
Y495886D01*
X-5639Y495164D01*
Y494442D01*
Y493664D01*
Y470833D01*
X-11916D01*
Y493442D01*
Y493498D01*
Y493609D01*
Y493831D01*
Y494053D01*
Y494386D01*
X-11972Y494775D01*
X-12027Y495608D01*
X-12083Y496553D01*
X-12249Y497497D01*
X-12416Y498386D01*
X-12694Y499164D01*
X-12749Y499275D01*
X-12860Y499497D01*
X-13027Y499830D01*
X-13305Y500275D01*
X-13638Y500775D01*
X-14082Y501275D01*
X-14638Y501774D01*
X-15305Y502219D01*
X-15360Y502275D01*
X-15638Y502386D01*
X-16027Y502608D01*
X-16527Y502830D01*
X-17193Y502997D01*
X-17915Y503219D01*
X-18749Y503330D01*
X-19693Y503386D01*
X-20082D01*
X-20360Y503330D01*
X-20693D01*
X-21137Y503274D01*
X-22082Y503052D01*
X-23137Y502774D01*
X-24304Y502330D01*
X-25470Y501663D01*
X-26081Y501275D01*
X-26637Y500830D01*
X-26692Y500775D01*
X-26748Y500719D01*
X-26915Y500552D01*
X-27081Y500330D01*
X-27303Y499997D01*
X-27525Y499664D01*
X-27803Y499219D01*
X-28081Y498664D01*
X-28359Y498053D01*
X-28637Y497331D01*
X-28859Y496553D01*
X-29081Y495664D01*
X-29248Y494664D01*
X-29414Y493609D01*
X-29470Y492387D01*
X-29525Y491109D01*
Y470833D01*
X-35803D01*
Y507996D01*
X-30136D01*
Y502663D01*
X-30081Y502719D01*
X-29970Y502941D01*
X-29692Y503219D01*
X-29359Y503608D01*
X-28970Y504108D01*
X-28470Y504608D01*
X-27859Y505163D01*
X-27137Y505774D01*
X-26359Y506330D01*
X-25470Y506885D01*
X-24526Y507385D01*
X-23470Y507885D01*
X-22304Y508274D01*
X-21082Y508552D01*
X-19749Y508774D01*
X-18360Y508829D01*
X-17804D01*
X-17471Y508774D01*
D02*
G37*
G36*
X-85297D02*
X-85020D01*
X-84686Y508718D01*
X-83853Y508552D01*
X-82853Y508329D01*
X-81798Y507940D01*
X-80576Y507441D01*
X-79353Y506774D01*
X-81575Y500941D01*
X-81687Y500997D01*
X-81964Y501163D01*
X-82409Y501386D01*
X-83020Y501663D01*
X-83686Y501886D01*
X-84464Y502108D01*
X-85297Y502275D01*
X-86186Y502330D01*
X-86519D01*
X-86908Y502275D01*
X-87408Y502163D01*
X-88019Y501997D01*
X-88630Y501774D01*
X-89241Y501497D01*
X-89908Y501052D01*
X-89964Y500997D01*
X-90186Y500830D01*
X-90463Y500552D01*
X-90797Y500164D01*
X-91186Y499664D01*
X-91574Y499108D01*
X-91908Y498386D01*
X-92241Y497608D01*
Y497553D01*
X-92297Y497442D01*
X-92352Y497275D01*
X-92408Y497053D01*
X-92463Y496720D01*
X-92574Y496331D01*
X-92741Y495442D01*
X-92908Y494331D01*
X-93074Y493109D01*
X-93185Y491720D01*
X-93241Y490276D01*
Y470833D01*
X-99518D01*
Y507996D01*
X-93852D01*
Y502386D01*
X-93741Y502497D01*
X-93630Y502719D01*
X-93463Y502941D01*
X-93074Y503663D01*
X-92519Y504441D01*
X-91908Y505330D01*
X-91241Y506218D01*
X-90575Y506941D01*
X-90186Y507274D01*
X-89852Y507552D01*
X-89741Y507607D01*
X-89519Y507774D01*
X-89130Y507940D01*
X-88686Y508218D01*
X-88075Y508441D01*
X-87408Y508607D01*
X-86630Y508774D01*
X-85853Y508829D01*
X-85520D01*
X-85297Y508774D01*
D02*
G37*
G36*
X-168844D02*
X-168566D01*
X-168233Y508718D01*
X-167400Y508552D01*
X-166400Y508329D01*
X-165345Y507940D01*
X-164123Y507441D01*
X-162900Y506774D01*
X-165122Y500941D01*
X-165233Y500997D01*
X-165511Y501163D01*
X-165956Y501386D01*
X-166567Y501663D01*
X-167233Y501886D01*
X-168011Y502108D01*
X-168844Y502275D01*
X-169733Y502330D01*
X-170066D01*
X-170455Y502275D01*
X-170955Y502163D01*
X-171566Y501997D01*
X-172177Y501774D01*
X-172788Y501497D01*
X-173455Y501052D01*
X-173510Y500997D01*
X-173733Y500830D01*
X-174010Y500552D01*
X-174344Y500164D01*
X-174732Y499664D01*
X-175121Y499108D01*
X-175455Y498386D01*
X-175788Y497608D01*
Y497553D01*
X-175844Y497442D01*
X-175899Y497275D01*
X-175955Y497053D01*
X-176010Y496720D01*
X-176121Y496331D01*
X-176288Y495442D01*
X-176455Y494331D01*
X-176621Y493109D01*
X-176732Y491720D01*
X-176788Y490276D01*
Y470833D01*
X-183065D01*
Y507996D01*
X-177399D01*
Y502386D01*
X-177288Y502497D01*
X-177177Y502719D01*
X-177010Y502941D01*
X-176621Y503663D01*
X-176066Y504441D01*
X-175455Y505330D01*
X-174788Y506218D01*
X-174121Y506941D01*
X-173733Y507274D01*
X-173399Y507552D01*
X-173288Y507607D01*
X-173066Y507774D01*
X-172677Y507940D01*
X-172233Y508218D01*
X-171622Y508441D01*
X-170955Y508607D01*
X-170177Y508774D01*
X-169400Y508829D01*
X-169066D01*
X-168844Y508774D01*
D02*
G37*
G36*
X262667D02*
X263167Y508718D01*
X263666Y508663D01*
X264278Y508552D01*
X264944Y508441D01*
X266277Y508052D01*
X267722Y507496D01*
X268388Y507163D01*
X269055Y506774D01*
X269721Y506274D01*
X270277Y505718D01*
X270333Y505663D01*
X270388Y505552D01*
X270555Y505385D01*
X270721Y505163D01*
X270999Y504830D01*
X271221Y504441D01*
X271499Y503941D01*
X271777Y503386D01*
X272055Y502774D01*
X272332Y502108D01*
X272610Y501330D01*
X272832Y500497D01*
X272999Y499552D01*
X273165Y498553D01*
X273221Y497497D01*
X273277Y496331D01*
Y470833D01*
X266999D01*
Y494220D01*
Y494275D01*
Y494386D01*
Y494609D01*
Y494831D01*
X266944Y495497D01*
Y496331D01*
X266833Y497219D01*
X266722Y498108D01*
X266611Y498941D01*
X266388Y499664D01*
Y499719D01*
X266277Y499941D01*
X266111Y500219D01*
X265889Y500608D01*
X265555Y501052D01*
X265222Y501497D01*
X264722Y501941D01*
X264167Y502330D01*
X264111Y502386D01*
X263889Y502497D01*
X263555Y502663D01*
X263111Y502886D01*
X262556Y503052D01*
X261889Y503219D01*
X261167Y503330D01*
X260389Y503386D01*
X260000D01*
X259722Y503330D01*
X259389D01*
X259000Y503274D01*
X258111Y503052D01*
X257056Y502774D01*
X255945Y502275D01*
X254890Y501663D01*
X254334Y501219D01*
X253834Y500775D01*
Y500719D01*
X253723Y500663D01*
X253612Y500497D01*
X253445Y500275D01*
X253223Y499997D01*
X253001Y499664D01*
X252779Y499219D01*
X252556Y498775D01*
X252279Y498219D01*
X252057Y497608D01*
X251834Y496886D01*
X251612Y496164D01*
X251446Y495331D01*
X251334Y494386D01*
X251279Y493442D01*
X251223Y492387D01*
Y470833D01*
X244946D01*
Y494942D01*
Y494997D01*
Y495108D01*
Y495331D01*
Y495664D01*
X244891Y495997D01*
Y496386D01*
X244780Y497331D01*
X244557Y498330D01*
X244280Y499386D01*
X243891Y500386D01*
X243391Y501275D01*
X243335Y501386D01*
X243113Y501608D01*
X242724Y501941D01*
X242224Y502330D01*
X241502Y502719D01*
X240669Y503052D01*
X239613Y503274D01*
X238391Y503386D01*
X237947D01*
X237447Y503330D01*
X236780Y503219D01*
X236003Y503052D01*
X235170Y502774D01*
X234336Y502441D01*
X233447Y501941D01*
X233336Y501886D01*
X233059Y501663D01*
X232670Y501386D01*
X232225Y500886D01*
X231670Y500330D01*
X231114Y499608D01*
X230614Y498775D01*
X230170Y497831D01*
Y497775D01*
X230114Y497719D01*
X230059Y497553D01*
X230003Y497331D01*
X229948Y497053D01*
X229837Y496720D01*
X229781Y496331D01*
X229670Y495886D01*
X229559Y495331D01*
X229503Y494775D01*
X229392Y494164D01*
X229337Y493442D01*
X229281Y492720D01*
X229226Y491887D01*
X229170Y491053D01*
Y490109D01*
Y470833D01*
X222893D01*
Y507996D01*
X228503D01*
Y502830D01*
X228615Y502886D01*
X228837Y503219D01*
X229226Y503719D01*
X229781Y504330D01*
X230448Y505052D01*
X231225Y505774D01*
X232114Y506496D01*
X233170Y507163D01*
X233225D01*
X233281Y507218D01*
X233447Y507329D01*
X233670Y507441D01*
X233947Y507552D01*
X234281Y507718D01*
X235058Y507996D01*
X236058Y508329D01*
X237169Y508552D01*
X238447Y508774D01*
X239780Y508829D01*
X240447D01*
X240835Y508774D01*
X241224Y508718D01*
X242169Y508607D01*
X243224Y508385D01*
X244335Y508107D01*
X245446Y507663D01*
X246502Y507107D01*
X246557D01*
X246613Y507052D01*
X246946Y506774D01*
X247390Y506385D01*
X248001Y505885D01*
X248612Y505163D01*
X249224Y504385D01*
X249779Y503441D01*
X250279Y502330D01*
X250335Y502386D01*
X250501Y502608D01*
X250723Y502941D01*
X251112Y503330D01*
X251501Y503830D01*
X252057Y504385D01*
X252668Y504996D01*
X253390Y505607D01*
X254167Y506163D01*
X255056Y506774D01*
X256001Y507329D01*
X257001Y507829D01*
X258111Y508218D01*
X259278Y508552D01*
X260500Y508774D01*
X261778Y508829D01*
X262333D01*
X262667Y508774D01*
D02*
G37*
G36*
X203006D02*
X203506Y508718D01*
X204006Y508663D01*
X204617Y508552D01*
X205284Y508441D01*
X206617Y508052D01*
X208061Y507496D01*
X208728Y507163D01*
X209394Y506774D01*
X210061Y506274D01*
X210616Y505718D01*
X210672Y505663D01*
X210728Y505552D01*
X210894Y505385D01*
X211061Y505163D01*
X211339Y504830D01*
X211561Y504441D01*
X211838Y503941D01*
X212116Y503386D01*
X212394Y502774D01*
X212672Y502108D01*
X212950Y501330D01*
X213172Y500497D01*
X213338Y499552D01*
X213505Y498553D01*
X213561Y497497D01*
X213616Y496331D01*
Y470833D01*
X207339D01*
Y494220D01*
Y494275D01*
Y494386D01*
Y494609D01*
Y494831D01*
X207283Y495497D01*
Y496331D01*
X207172Y497219D01*
X207061Y498108D01*
X206950Y498941D01*
X206728Y499664D01*
Y499719D01*
X206617Y499941D01*
X206450Y500219D01*
X206228Y500608D01*
X205895Y501052D01*
X205561Y501497D01*
X205061Y501941D01*
X204506Y502330D01*
X204450Y502386D01*
X204228Y502497D01*
X203895Y502663D01*
X203451Y502886D01*
X202895Y503052D01*
X202228Y503219D01*
X201506Y503330D01*
X200729Y503386D01*
X200340D01*
X200062Y503330D01*
X199729D01*
X199340Y503274D01*
X198451Y503052D01*
X197396Y502774D01*
X196285Y502275D01*
X195229Y501663D01*
X194674Y501219D01*
X194174Y500775D01*
Y500719D01*
X194063Y500663D01*
X193951Y500497D01*
X193785Y500275D01*
X193563Y499997D01*
X193340Y499664D01*
X193118Y499219D01*
X192896Y498775D01*
X192618Y498219D01*
X192396Y497608D01*
X192174Y496886D01*
X191952Y496164D01*
X191785Y495331D01*
X191674Y494386D01*
X191618Y493442D01*
X191563Y492387D01*
Y470833D01*
X185286D01*
Y494942D01*
Y494997D01*
Y495108D01*
Y495331D01*
Y495664D01*
X185230Y495997D01*
Y496386D01*
X185119Y497331D01*
X184897Y498330D01*
X184619Y499386D01*
X184230Y500386D01*
X183730Y501275D01*
X183675Y501386D01*
X183453Y501608D01*
X183064Y501941D01*
X182564Y502330D01*
X181842Y502719D01*
X181008Y503052D01*
X179953Y503274D01*
X178731Y503386D01*
X178286D01*
X177787Y503330D01*
X177120Y503219D01*
X176342Y503052D01*
X175509Y502774D01*
X174676Y502441D01*
X173787Y501941D01*
X173676Y501886D01*
X173398Y501663D01*
X173009Y501386D01*
X172565Y500886D01*
X172009Y500330D01*
X171454Y499608D01*
X170954Y498775D01*
X170509Y497831D01*
Y497775D01*
X170454Y497719D01*
X170398Y497553D01*
X170343Y497331D01*
X170287Y497053D01*
X170176Y496720D01*
X170121Y496331D01*
X170009Y495886D01*
X169898Y495331D01*
X169843Y494775D01*
X169732Y494164D01*
X169676Y493442D01*
X169621Y492720D01*
X169565Y491887D01*
X169510Y491053D01*
Y490109D01*
Y470833D01*
X163232D01*
Y507996D01*
X168843D01*
Y502830D01*
X168954Y502886D01*
X169176Y503219D01*
X169565Y503719D01*
X170121Y504330D01*
X170787Y505052D01*
X171565Y505774D01*
X172454Y506496D01*
X173509Y507163D01*
X173565D01*
X173620Y507218D01*
X173787Y507329D01*
X174009Y507441D01*
X174287Y507552D01*
X174620Y507718D01*
X175398Y507996D01*
X176398Y508329D01*
X177509Y508552D01*
X178786Y508774D01*
X180120Y508829D01*
X180786D01*
X181175Y508774D01*
X181564Y508718D01*
X182508Y508607D01*
X183564Y508385D01*
X184675Y508107D01*
X185786Y507663D01*
X186841Y507107D01*
X186897D01*
X186952Y507052D01*
X187285Y506774D01*
X187730Y506385D01*
X188341Y505885D01*
X188952Y505163D01*
X189563Y504385D01*
X190119Y503441D01*
X190618Y502330D01*
X190674Y502386D01*
X190841Y502608D01*
X191063Y502941D01*
X191452Y503330D01*
X191841Y503830D01*
X192396Y504385D01*
X193007Y504996D01*
X193729Y505607D01*
X194507Y506163D01*
X195396Y506774D01*
X196340Y507329D01*
X197340Y507829D01*
X198451Y508218D01*
X199618Y508552D01*
X200840Y508774D01*
X202117Y508829D01*
X202673D01*
X203006Y508774D01*
D02*
G37*
G36*
X-248169Y470833D02*
X-255169D01*
X-275056Y522106D01*
X-267667D01*
X-254335Y484832D01*
Y484776D01*
X-254280Y484610D01*
X-254169Y484387D01*
X-254058Y484054D01*
X-253946Y483665D01*
X-253780Y483221D01*
X-253613Y482721D01*
X-253391Y482110D01*
X-253002Y480832D01*
X-252558Y479444D01*
X-252113Y477944D01*
X-251669Y476444D01*
Y476499D01*
X-251613Y476610D01*
X-251558Y476888D01*
X-251447Y477166D01*
X-251336Y477555D01*
X-251225Y477999D01*
X-251058Y478499D01*
X-250891Y479055D01*
X-250502Y480332D01*
X-250002Y481777D01*
X-249447Y483276D01*
X-248892Y484832D01*
X-235060Y522106D01*
X-228171D01*
X-248169Y470833D01*
D02*
G37*
G36*
X153289Y515440D02*
X132791D01*
X130069Y501663D01*
X130125Y501719D01*
X130291Y501830D01*
X130514Y501941D01*
X130847Y502163D01*
X131291Y502386D01*
X131791Y502663D01*
X132347Y502997D01*
X133013Y503274D01*
X133680Y503552D01*
X134458Y503885D01*
X136069Y504385D01*
X136957Y504608D01*
X137846Y504774D01*
X138791Y504830D01*
X139735Y504885D01*
X140013D01*
X140401Y504830D01*
X140846D01*
X141401Y504719D01*
X142068Y504663D01*
X142846Y504496D01*
X143623Y504330D01*
X144512Y504052D01*
X145401Y503774D01*
X146345Y503386D01*
X147290Y502941D01*
X148234Y502386D01*
X149178Y501774D01*
X150123Y501052D01*
X151011Y500219D01*
X151067Y500164D01*
X151234Y499997D01*
X151456Y499719D01*
X151734Y499386D01*
X152122Y498941D01*
X152511Y498330D01*
X152900Y497719D01*
X153345Y496997D01*
X153789Y496164D01*
X154178Y495220D01*
X154622Y494275D01*
X154956Y493164D01*
X155233Y492053D01*
X155456Y490831D01*
X155622Y489554D01*
X155678Y488220D01*
Y488165D01*
Y487887D01*
Y487554D01*
X155622Y487054D01*
X155567Y486443D01*
X155456Y485776D01*
X155344Y484999D01*
X155178Y484110D01*
X154956Y483221D01*
X154678Y482221D01*
X154345Y481221D01*
X153956Y480221D01*
X153511Y479221D01*
X152956Y478166D01*
X152345Y477166D01*
X151623Y476222D01*
X151567Y476166D01*
X151400Y475944D01*
X151123Y475666D01*
X150734Y475277D01*
X150234Y474777D01*
X149623Y474277D01*
X148901Y473666D01*
X148067Y473111D01*
X147179Y472555D01*
X146179Y471944D01*
X145068Y471444D01*
X143846Y471000D01*
X142568Y470555D01*
X141179Y470278D01*
X139735Y470056D01*
X138180Y470000D01*
X137513D01*
X137013Y470056D01*
X136402Y470111D01*
X135735Y470222D01*
X134958Y470333D01*
X134124Y470500D01*
X133236Y470667D01*
X132291Y470944D01*
X131347Y471278D01*
X130402Y471666D01*
X129458Y472111D01*
X128514Y472611D01*
X127625Y473222D01*
X126736Y473889D01*
X126681Y473944D01*
X126570Y474055D01*
X126347Y474277D01*
X126070Y474611D01*
X125681Y475000D01*
X125292Y475444D01*
X124903Y475999D01*
X124459Y476666D01*
X124014Y477333D01*
X123570Y478110D01*
X123181Y478999D01*
X122792Y479888D01*
X122403Y480888D01*
X122126Y481943D01*
X121903Y483110D01*
X121737Y484276D01*
X128347Y484776D01*
Y484721D01*
X128403Y484554D01*
X128458Y484332D01*
X128514Y483999D01*
X128569Y483610D01*
X128736Y483110D01*
X129014Y482054D01*
X129458Y480888D01*
X130069Y479666D01*
X130791Y478555D01*
X131236Y478055D01*
X131680Y477555D01*
X131736D01*
X131791Y477444D01*
X131958Y477333D01*
X132180Y477166D01*
X132736Y476777D01*
X133513Y476388D01*
X134458Y475944D01*
X135569Y475555D01*
X136791Y475277D01*
X137457Y475222D01*
X138180Y475166D01*
X138624D01*
X138957Y475222D01*
X139346Y475277D01*
X139790Y475333D01*
X140846Y475611D01*
X142068Y475999D01*
X142679Y476277D01*
X143346Y476610D01*
X144012Y476999D01*
X144623Y477444D01*
X145234Y477944D01*
X145845Y478555D01*
X145901Y478610D01*
X145956Y478721D01*
X146123Y478888D01*
X146345Y479166D01*
X146567Y479555D01*
X146845Y479943D01*
X147123Y480443D01*
X147456Y480999D01*
X147734Y481610D01*
X148012Y482276D01*
X148290Y483054D01*
X148512Y483832D01*
X148734Y484721D01*
X148901Y485665D01*
X148956Y486609D01*
X149012Y487665D01*
Y487720D01*
Y487887D01*
Y488165D01*
X148956Y488554D01*
X148901Y488998D01*
X148845Y489554D01*
X148734Y490109D01*
X148623Y490776D01*
X148290Y492109D01*
X147734Y493553D01*
X147401Y494220D01*
X146956Y494886D01*
X146512Y495553D01*
X145956Y496164D01*
X145901Y496219D01*
X145845Y496275D01*
X145623Y496442D01*
X145401Y496664D01*
X145123Y496886D01*
X144734Y497164D01*
X144346Y497442D01*
X143846Y497775D01*
X143290Y498053D01*
X142735Y498330D01*
X141346Y498830D01*
X140624Y499053D01*
X139790Y499219D01*
X138957Y499275D01*
X138068Y499330D01*
X137569D01*
X136957Y499275D01*
X136235Y499164D01*
X135346Y498997D01*
X134402Y498719D01*
X133458Y498386D01*
X132513Y497886D01*
X132402Y497831D01*
X132125Y497664D01*
X131680Y497331D01*
X131125Y496942D01*
X130569Y496386D01*
X129903Y495775D01*
X129291Y495053D01*
X128736Y494275D01*
X122848Y495108D01*
X127792Y521439D01*
X153289D01*
Y515440D01*
D02*
G37*
G36*
X53744D02*
X33246D01*
X30524Y501663D01*
X30580Y501719D01*
X30746Y501830D01*
X30968Y501941D01*
X31302Y502163D01*
X31746Y502386D01*
X32246Y502663D01*
X32801Y502997D01*
X33468Y503274D01*
X34135Y503552D01*
X34912Y503885D01*
X36523Y504385D01*
X37412Y504608D01*
X38301Y504774D01*
X39245Y504830D01*
X40190Y504885D01*
X40467D01*
X40856Y504830D01*
X41301D01*
X41856Y504719D01*
X42523Y504663D01*
X43300Y504496D01*
X44078Y504330D01*
X44967Y504052D01*
X45856Y503774D01*
X46800Y503386D01*
X47744Y502941D01*
X48689Y502386D01*
X49633Y501774D01*
X50578Y501052D01*
X51466Y500219D01*
X51522Y500164D01*
X51688Y499997D01*
X51911Y499719D01*
X52188Y499386D01*
X52577Y498941D01*
X52966Y498330D01*
X53355Y497719D01*
X53799Y496997D01*
X54244Y496164D01*
X54633Y495220D01*
X55077Y494275D01*
X55410Y493164D01*
X55688Y492053D01*
X55910Y490831D01*
X56077Y489554D01*
X56132Y488220D01*
Y488165D01*
Y487887D01*
Y487554D01*
X56077Y487054D01*
X56021Y486443D01*
X55910Y485776D01*
X55799Y484999D01*
X55633Y484110D01*
X55410Y483221D01*
X55133Y482221D01*
X54799Y481221D01*
X54410Y480221D01*
X53966Y479221D01*
X53411Y478166D01*
X52800Y477166D01*
X52077Y476222D01*
X52022Y476166D01*
X51855Y475944D01*
X51577Y475666D01*
X51189Y475277D01*
X50689Y474777D01*
X50078Y474277D01*
X49355Y473666D01*
X48522Y473111D01*
X47633Y472555D01*
X46633Y471944D01*
X45522Y471444D01*
X44300Y471000D01*
X43023Y470555D01*
X41634Y470278D01*
X40190Y470056D01*
X38634Y470000D01*
X37968D01*
X37468Y470056D01*
X36857Y470111D01*
X36190Y470222D01*
X35412Y470333D01*
X34579Y470500D01*
X33690Y470667D01*
X32746Y470944D01*
X31802Y471278D01*
X30857Y471666D01*
X29913Y472111D01*
X28969Y472611D01*
X28080Y473222D01*
X27191Y473889D01*
X27136Y473944D01*
X27024Y474055D01*
X26802Y474277D01*
X26524Y474611D01*
X26136Y475000D01*
X25747Y475444D01*
X25358Y475999D01*
X24913Y476666D01*
X24469Y477333D01*
X24025Y478110D01*
X23636Y478999D01*
X23247Y479888D01*
X22858Y480888D01*
X22580Y481943D01*
X22358Y483110D01*
X22192Y484276D01*
X28802Y484776D01*
Y484721D01*
X28858Y484554D01*
X28913Y484332D01*
X28969Y483999D01*
X29024Y483610D01*
X29191Y483110D01*
X29469Y482054D01*
X29913Y480888D01*
X30524Y479666D01*
X31246Y478555D01*
X31690Y478055D01*
X32135Y477555D01*
X32190D01*
X32246Y477444D01*
X32413Y477333D01*
X32635Y477166D01*
X33190Y476777D01*
X33968Y476388D01*
X34912Y475944D01*
X36023Y475555D01*
X37246Y475277D01*
X37912Y475222D01*
X38634Y475166D01*
X39079D01*
X39412Y475222D01*
X39801Y475277D01*
X40245Y475333D01*
X41301Y475611D01*
X42523Y475999D01*
X43134Y476277D01*
X43800Y476610D01*
X44467Y476999D01*
X45078Y477444D01*
X45689Y477944D01*
X46300Y478555D01*
X46356Y478610D01*
X46411Y478721D01*
X46578Y478888D01*
X46800Y479166D01*
X47022Y479555D01*
X47300Y479943D01*
X47578Y480443D01*
X47911Y480999D01*
X48189Y481610D01*
X48467Y482276D01*
X48744Y483054D01*
X48966Y483832D01*
X49189Y484721D01*
X49355Y485665D01*
X49411Y486609D01*
X49467Y487665D01*
Y487720D01*
Y487887D01*
Y488165D01*
X49411Y488554D01*
X49355Y488998D01*
X49300Y489554D01*
X49189Y490109D01*
X49078Y490776D01*
X48744Y492109D01*
X48189Y493553D01*
X47856Y494220D01*
X47411Y494886D01*
X46967Y495553D01*
X46411Y496164D01*
X46356Y496219D01*
X46300Y496275D01*
X46078Y496442D01*
X45856Y496664D01*
X45578Y496886D01*
X45189Y497164D01*
X44800Y497442D01*
X44300Y497775D01*
X43745Y498053D01*
X43189Y498330D01*
X41801Y498830D01*
X41079Y499053D01*
X40245Y499219D01*
X39412Y499275D01*
X38523Y499330D01*
X38023D01*
X37412Y499275D01*
X36690Y499164D01*
X35801Y498997D01*
X34857Y498719D01*
X33912Y498386D01*
X32968Y497886D01*
X32857Y497831D01*
X32579Y497664D01*
X32135Y497331D01*
X31579Y496942D01*
X31024Y496386D01*
X30357Y495775D01*
X29746Y495053D01*
X29191Y494275D01*
X23303Y495108D01*
X28247Y521439D01*
X53744D01*
Y515440D01*
D02*
G37*
G36*
X112515Y470833D02*
X105350D01*
Y477999D01*
X112515D01*
Y470833D01*
D02*
G37*
G36*
X80185Y522217D02*
X80797Y522161D01*
X81519Y522050D01*
X82352Y521939D01*
X83185Y521772D01*
X84129Y521550D01*
X85074Y521273D01*
X86074Y520939D01*
X87018Y520550D01*
X88018Y520050D01*
X88962Y519495D01*
X89851Y518884D01*
X90684Y518162D01*
X90740Y518106D01*
X90851Y517995D01*
X91073Y517717D01*
X91351Y517440D01*
X91684Y517051D01*
X92073Y516551D01*
X92462Y515995D01*
X92851Y515329D01*
X93240Y514662D01*
X93629Y513884D01*
X94017Y513051D01*
X94351Y512162D01*
X94628Y511162D01*
X94851Y510163D01*
X94962Y509107D01*
X95017Y507996D01*
Y507940D01*
Y507885D01*
Y507718D01*
Y507496D01*
X94962Y506885D01*
X94851Y506107D01*
X94684Y505163D01*
X94462Y504163D01*
X94184Y503052D01*
X93740Y501941D01*
Y501886D01*
X93684Y501830D01*
X93629Y501663D01*
X93518Y501441D01*
X93184Y500830D01*
X92740Y500052D01*
X92129Y499108D01*
X91407Y498053D01*
X90573Y496942D01*
X89518Y495720D01*
X89462Y495664D01*
X89407Y495553D01*
X89185Y495386D01*
X88962Y495108D01*
X88629Y494775D01*
X88240Y494386D01*
X87796Y493886D01*
X87240Y493386D01*
X86574Y492775D01*
X85852Y492109D01*
X85074Y491331D01*
X84185Y490554D01*
X83241Y489665D01*
X82185Y488776D01*
X81019Y487776D01*
X79797Y486721D01*
X79741Y486665D01*
X79574Y486498D01*
X79241Y486276D01*
X78908Y485943D01*
X78408Y485554D01*
X77908Y485110D01*
X76741Y484110D01*
X75519Y483054D01*
X74353Y481943D01*
X73797Y481443D01*
X73297Y480999D01*
X72853Y480555D01*
X72520Y480221D01*
X72464Y480166D01*
X72242Y479943D01*
X71964Y479610D01*
X71575Y479166D01*
X71131Y478666D01*
X70686Y478110D01*
X69798Y476888D01*
X95073D01*
Y470833D01*
X61132D01*
Y470944D01*
Y471222D01*
Y471666D01*
X61188Y472222D01*
X61243Y472889D01*
X61410Y473611D01*
X61576Y474389D01*
X61854Y475166D01*
Y475222D01*
X61910Y475333D01*
X61965Y475499D01*
X62076Y475777D01*
X62243Y476055D01*
X62410Y476444D01*
X62854Y477333D01*
X63410Y478388D01*
X64132Y479555D01*
X64965Y480777D01*
X65965Y481999D01*
X66020Y482054D01*
X66076Y482165D01*
X66242Y482332D01*
X66520Y482610D01*
X66798Y482888D01*
X67187Y483276D01*
X67576Y483721D01*
X68076Y484221D01*
X68631Y484776D01*
X69242Y485332D01*
X69909Y485998D01*
X70686Y486665D01*
X71464Y487387D01*
X72353Y488109D01*
X73242Y488887D01*
X74242Y489720D01*
X74353Y489776D01*
X74630Y490053D01*
X75019Y490387D01*
X75575Y490887D01*
X76241Y491442D01*
X77019Y492109D01*
X77908Y492831D01*
X78797Y493664D01*
X80686Y495386D01*
X82519Y497219D01*
X83407Y498108D01*
X84241Y498997D01*
X84963Y499830D01*
X85574Y500608D01*
X85629Y500663D01*
X85685Y500775D01*
X85852Y500997D01*
X86018Y501275D01*
X86296Y501663D01*
X86518Y502052D01*
X87074Y503052D01*
X87629Y504219D01*
X88129Y505496D01*
X88462Y506829D01*
X88518Y507496D01*
X88574Y508163D01*
Y508218D01*
Y508329D01*
Y508552D01*
X88518Y508774D01*
Y509107D01*
X88407Y509496D01*
X88240Y510329D01*
X87907Y511329D01*
X87407Y512384D01*
X87129Y512940D01*
X86740Y513440D01*
X86351Y513940D01*
X85852Y514440D01*
X85796Y514495D01*
X85740Y514551D01*
X85574Y514662D01*
X85352Y514829D01*
X85074Y515051D01*
X84741Y515273D01*
X83963Y515773D01*
X82907Y516217D01*
X81741Y516662D01*
X80352Y516940D01*
X79574Y517051D01*
X78352D01*
X78019Y516995D01*
X77630D01*
X77186Y516884D01*
X76186Y516717D01*
X75019Y516384D01*
X73797Y515884D01*
X73186Y515551D01*
X72575Y515218D01*
X72020Y514773D01*
X71464Y514273D01*
X71409Y514218D01*
X71353Y514162D01*
X71242Y513996D01*
X71020Y513773D01*
X70853Y513495D01*
X70631Y513162D01*
X70353Y512773D01*
X70131Y512329D01*
X69853Y511829D01*
X69631Y511273D01*
X69187Y509940D01*
X68853Y508496D01*
X68798Y507663D01*
X68742Y506774D01*
X62298Y507441D01*
Y507552D01*
X62354Y507774D01*
X62410Y508107D01*
X62465Y508607D01*
X62576Y509218D01*
X62743Y509940D01*
X62909Y510718D01*
X63187Y511551D01*
X63465Y512384D01*
X63798Y513329D01*
X64243Y514218D01*
X64687Y515107D01*
X65243Y516051D01*
X65854Y516884D01*
X66520Y517717D01*
X67298Y518439D01*
X67354Y518495D01*
X67520Y518606D01*
X67742Y518773D01*
X68076Y519050D01*
X68520Y519328D01*
X69076Y519661D01*
X69687Y519995D01*
X70409Y520384D01*
X71186Y520717D01*
X72075Y521050D01*
X73020Y521384D01*
X74075Y521661D01*
X75186Y521939D01*
X76353Y522106D01*
X77630Y522217D01*
X78963Y522272D01*
X79686D01*
X80185Y522217D01*
D02*
G37*
G36*
X-142291Y508774D02*
X-141791D01*
X-140736Y508663D01*
X-139514Y508552D01*
X-138236Y508329D01*
X-136959Y508052D01*
X-135792Y507663D01*
X-135737D01*
X-135681Y507607D01*
X-135514Y507552D01*
X-135292Y507441D01*
X-134792Y507218D01*
X-134126Y506885D01*
X-133404Y506496D01*
X-132681Y505996D01*
X-132015Y505441D01*
X-131404Y504830D01*
X-131348Y504774D01*
X-131181Y504552D01*
X-130904Y504163D01*
X-130626Y503663D01*
X-130293Y503052D01*
X-129959Y502330D01*
X-129626Y501497D01*
X-129404Y500552D01*
Y500497D01*
X-129348Y500219D01*
X-129293Y499830D01*
X-129237Y499219D01*
X-129182Y498442D01*
X-129126Y497442D01*
Y496831D01*
X-129071Y496219D01*
Y495553D01*
Y494775D01*
Y486387D01*
Y486276D01*
Y485998D01*
Y485554D01*
Y484999D01*
Y484276D01*
Y483499D01*
X-129015Y482610D01*
Y481721D01*
X-128960Y479832D01*
Y478888D01*
X-128904Y477999D01*
X-128848Y477166D01*
X-128793Y476444D01*
X-128737Y475777D01*
X-128682Y475277D01*
Y475166D01*
X-128626Y474888D01*
X-128515Y474444D01*
X-128348Y473833D01*
X-128126Y473166D01*
X-127849Y472444D01*
X-127515Y471611D01*
X-127126Y470833D01*
X-133681D01*
X-133737Y470944D01*
X-133848Y471167D01*
X-134015Y471611D01*
X-134181Y472166D01*
X-134403Y472833D01*
X-134626Y473611D01*
X-134792Y474500D01*
X-134903Y475499D01*
X-134959Y475444D01*
X-135070Y475388D01*
X-135237Y475222D01*
X-135514Y475000D01*
X-135848Y474777D01*
X-136181Y474444D01*
X-137070Y473833D01*
X-138125Y473111D01*
X-139236Y472389D01*
X-140458Y471778D01*
X-141680Y471222D01*
X-141736D01*
X-141847Y471167D01*
X-142014Y471111D01*
X-142236Y471055D01*
X-142514Y470944D01*
X-142902Y470833D01*
X-143736Y470611D01*
X-144791Y470389D01*
X-145958Y470167D01*
X-147235Y470056D01*
X-148624Y470000D01*
X-149235D01*
X-149624Y470056D01*
X-150124Y470111D01*
X-150735Y470167D01*
X-151402Y470222D01*
X-152068Y470389D01*
X-153624Y470722D01*
X-155179Y471222D01*
X-155901Y471555D01*
X-156679Y472000D01*
X-157345Y472444D01*
X-158012Y472944D01*
X-158068Y473000D01*
X-158179Y473111D01*
X-158290Y473278D01*
X-158512Y473500D01*
X-158790Y473777D01*
X-159067Y474166D01*
X-159345Y474555D01*
X-159623Y475055D01*
X-160234Y476110D01*
X-160790Y477444D01*
X-161012Y478166D01*
X-161123Y478943D01*
X-161234Y479777D01*
X-161290Y480610D01*
Y480666D01*
Y480721D01*
Y481054D01*
X-161234Y481610D01*
X-161123Y482276D01*
X-161012Y483054D01*
X-160790Y483887D01*
X-160456Y484721D01*
X-160067Y485610D01*
X-160012Y485721D01*
X-159845Y485998D01*
X-159567Y486387D01*
X-159179Y486943D01*
X-158734Y487498D01*
X-158179Y488109D01*
X-157568Y488665D01*
X-156846Y489220D01*
X-156734Y489276D01*
X-156457Y489442D01*
X-156068Y489720D01*
X-155512Y489998D01*
X-154846Y490331D01*
X-154068Y490665D01*
X-153179Y490998D01*
X-152290Y491276D01*
X-152179D01*
X-151957Y491387D01*
X-151513Y491442D01*
X-150902Y491609D01*
X-150124Y491720D01*
X-149124Y491887D01*
X-148013Y492053D01*
X-146680Y492220D01*
X-146569D01*
X-146347Y492276D01*
X-145958Y492331D01*
X-145458Y492387D01*
X-144791Y492498D01*
X-144069Y492609D01*
X-143291Y492720D01*
X-142402Y492831D01*
X-140569Y493164D01*
X-138736Y493553D01*
X-137847Y493775D01*
X-136959Y493997D01*
X-136181Y494220D01*
X-135459Y494442D01*
Y494497D01*
Y494664D01*
Y494886D01*
X-135403Y495108D01*
Y495664D01*
Y495886D01*
Y496053D01*
Y496108D01*
Y496219D01*
Y496442D01*
Y496664D01*
X-135514Y497331D01*
X-135625Y498164D01*
X-135848Y499053D01*
X-136181Y499941D01*
X-136625Y500775D01*
X-137236Y501441D01*
X-137347Y501552D01*
X-137459Y501663D01*
X-137681Y501774D01*
X-137959Y501941D01*
X-138236Y502108D01*
X-139014Y502552D01*
X-140014Y502941D01*
X-141236Y503274D01*
X-142680Y503497D01*
X-144347Y503608D01*
X-145069D01*
X-145458Y503552D01*
X-145847D01*
X-146847Y503441D01*
X-147902Y503219D01*
X-148957Y502941D01*
X-150013Y502552D01*
X-150902Y502052D01*
X-151013Y501997D01*
X-151235Y501774D01*
X-151624Y501330D01*
X-152068Y500775D01*
X-152568Y500052D01*
X-153124Y499053D01*
X-153568Y497942D01*
X-153790Y497275D01*
X-154012Y496553D01*
X-160179Y497386D01*
Y497442D01*
X-160123Y497553D01*
X-160067Y497775D01*
X-160012Y498053D01*
X-159901Y498386D01*
X-159790Y498775D01*
X-159512Y499664D01*
X-159123Y500663D01*
X-158679Y501719D01*
X-158123Y502774D01*
X-157457Y503719D01*
Y503774D01*
X-157345Y503830D01*
X-157068Y504108D01*
X-156623Y504552D01*
X-156012Y505107D01*
X-155234Y505718D01*
X-154290Y506330D01*
X-153179Y506941D01*
X-151902Y507496D01*
X-151846D01*
X-151735Y507552D01*
X-151513Y507607D01*
X-151235Y507718D01*
X-150902Y507829D01*
X-150513Y507940D01*
X-150013Y508052D01*
X-149457Y508163D01*
X-148902Y508274D01*
X-148235Y508385D01*
X-146791Y508607D01*
X-145180Y508774D01*
X-143458Y508829D01*
X-142680D01*
X-142291Y508774D01*
D02*
G37*
G36*
X-112017Y507996D02*
X-105629D01*
Y503108D01*
X-112017D01*
Y481332D01*
Y481277D01*
Y481221D01*
Y480888D01*
Y480443D01*
X-111961Y479888D01*
Y479332D01*
X-111850Y478777D01*
X-111795Y478277D01*
X-111684Y477888D01*
Y477832D01*
X-111628Y477777D01*
X-111406Y477444D01*
X-111072Y477055D01*
X-110628Y476666D01*
X-110573D01*
X-110461Y476610D01*
X-110295Y476555D01*
X-110073Y476444D01*
X-109739Y476388D01*
X-109406Y476277D01*
X-108962Y476222D01*
X-108017D01*
X-107684Y476277D01*
X-107295D01*
X-106795Y476333D01*
X-106240Y476388D01*
X-105629Y476444D01*
X-104795Y470889D01*
X-104906D01*
X-105240Y470778D01*
X-105740Y470722D01*
X-106406Y470611D01*
X-107128Y470500D01*
X-107906Y470444D01*
X-109573Y470333D01*
X-110128D01*
X-110739Y470389D01*
X-111517Y470444D01*
X-112406Y470611D01*
X-113294Y470778D01*
X-114128Y471055D01*
X-114905Y471389D01*
X-114961Y471444D01*
X-115183Y471611D01*
X-115516Y471833D01*
X-115961Y472166D01*
X-116405Y472555D01*
X-116850Y473055D01*
X-117239Y473611D01*
X-117572Y474222D01*
X-117627Y474333D01*
X-117683Y474611D01*
X-117738Y474833D01*
X-117794Y475111D01*
X-117850Y475444D01*
X-117905Y475833D01*
X-118016Y476277D01*
X-118072Y476833D01*
X-118127Y477444D01*
X-118183Y478110D01*
X-118238Y478888D01*
Y479721D01*
X-118294Y480666D01*
Y481665D01*
Y503108D01*
X-122960D01*
Y507996D01*
X-118294D01*
Y517162D01*
X-112017Y520939D01*
Y507996D01*
D02*
G37*
G36*
X-59855Y508774D02*
X-59300D01*
X-58633Y508663D01*
X-57911Y508552D01*
X-57078Y508385D01*
X-56134Y508218D01*
X-55189Y507940D01*
X-54134Y507607D01*
X-53134Y507163D01*
X-52079Y506718D01*
X-51023Y506107D01*
X-50023Y505441D01*
X-49023Y504663D01*
X-48079Y503774D01*
X-48023Y503719D01*
X-47857Y503552D01*
X-47635Y503274D01*
X-47301Y502830D01*
X-46968Y502330D01*
X-46524Y501719D01*
X-46079Y500997D01*
X-45635Y500164D01*
X-45190Y499219D01*
X-44746Y498164D01*
X-44302Y497053D01*
X-43968Y495831D01*
X-43635Y494497D01*
X-43413Y493053D01*
X-43246Y491498D01*
X-43191Y489887D01*
Y489831D01*
Y489554D01*
Y489220D01*
X-43246Y488720D01*
Y488109D01*
X-43302Y487387D01*
X-43357Y486609D01*
X-43468Y485776D01*
X-43691Y483999D01*
X-44079Y482110D01*
X-44635Y480277D01*
X-44968Y479444D01*
X-45357Y478610D01*
Y478555D01*
X-45468Y478444D01*
X-45579Y478221D01*
X-45746Y477944D01*
X-45968Y477610D01*
X-46246Y477166D01*
X-46968Y476277D01*
X-47857Y475222D01*
X-48912Y474166D01*
X-50190Y473166D01*
X-51634Y472222D01*
X-51690D01*
X-51801Y472111D01*
X-52023Y472000D01*
X-52356Y471889D01*
X-52745Y471722D01*
X-53190Y471500D01*
X-53689Y471333D01*
X-54301Y471111D01*
X-54912Y470889D01*
X-55634Y470722D01*
X-57134Y470333D01*
X-58800Y470111D01*
X-60578Y470000D01*
X-60911D01*
X-61300Y470056D01*
X-61855D01*
X-62522Y470167D01*
X-63300Y470278D01*
X-64133Y470444D01*
X-65077Y470611D01*
X-66077Y470889D01*
X-67077Y471222D01*
X-68133Y471611D01*
X-69188Y472111D01*
X-70243Y472666D01*
X-71243Y473333D01*
X-72243Y474111D01*
X-73187Y475000D01*
X-73243Y475055D01*
X-73410Y475222D01*
X-73632Y475499D01*
X-73910Y475944D01*
X-74299Y476444D01*
X-74687Y477055D01*
X-75132Y477832D01*
X-75576Y478666D01*
X-76020Y479666D01*
X-76465Y480721D01*
X-76854Y481888D01*
X-77243Y483165D01*
X-77520Y484554D01*
X-77743Y486054D01*
X-77909Y487665D01*
X-77965Y489387D01*
Y489442D01*
Y489498D01*
Y489831D01*
X-77909Y490387D01*
X-77854Y491053D01*
X-77798Y491942D01*
X-77687Y492942D01*
X-77465Y493997D01*
X-77243Y495164D01*
X-76965Y496386D01*
X-76576Y497664D01*
X-76076Y498941D01*
X-75576Y500219D01*
X-74910Y501441D01*
X-74132Y502608D01*
X-73243Y503663D01*
X-72243Y504663D01*
X-72188Y504719D01*
X-72021Y504830D01*
X-71743Y505052D01*
X-71410Y505330D01*
X-70910Y505607D01*
X-70354Y505996D01*
X-69743Y506385D01*
X-68966Y506774D01*
X-68188Y507163D01*
X-67299Y507496D01*
X-66355Y507885D01*
X-65299Y508163D01*
X-64188Y508441D01*
X-63077Y508663D01*
X-61855Y508774D01*
X-60578Y508829D01*
X-60244D01*
X-59855Y508774D01*
D02*
G37*
G36*
X-206896D02*
X-206396D01*
X-205729Y508663D01*
X-205007Y508552D01*
X-204174Y508385D01*
X-203285Y508218D01*
X-202341Y507940D01*
X-201396Y507607D01*
X-200341Y507163D01*
X-199341Y506663D01*
X-198341Y506107D01*
X-197341Y505385D01*
X-196341Y504608D01*
X-195453Y503719D01*
X-195397Y503663D01*
X-195230Y503497D01*
X-195008Y503219D01*
X-194730Y502774D01*
X-194342Y502275D01*
X-193953Y501663D01*
X-193508Y500886D01*
X-193064Y500052D01*
X-192675Y499108D01*
X-192231Y498053D01*
X-191842Y496886D01*
X-191453Y495608D01*
X-191175Y494220D01*
X-190953Y492720D01*
X-190786Y491165D01*
X-190731Y489498D01*
Y489387D01*
Y489109D01*
Y488554D01*
X-190786Y487831D01*
X-218506D01*
Y487776D01*
Y487554D01*
X-218450Y487220D01*
X-218395Y486832D01*
X-218339Y486276D01*
X-218228Y485721D01*
X-218117Y485054D01*
X-217950Y484332D01*
X-217506Y482832D01*
X-216895Y481221D01*
X-216506Y480499D01*
X-216117Y479721D01*
X-215617Y479055D01*
X-215062Y478388D01*
X-215006Y478332D01*
X-214895Y478277D01*
X-214728Y478110D01*
X-214506Y477888D01*
X-214173Y477666D01*
X-213840Y477388D01*
X-213395Y477055D01*
X-212895Y476777D01*
X-211784Y476166D01*
X-210451Y475666D01*
X-209729Y475444D01*
X-208951Y475333D01*
X-208118Y475222D01*
X-207285Y475166D01*
X-206951D01*
X-206729Y475222D01*
X-206063Y475277D01*
X-205229Y475388D01*
X-204341Y475611D01*
X-203341Y475944D01*
X-202341Y476333D01*
X-201396Y476944D01*
X-201341D01*
X-201285Y477055D01*
X-201008Y477277D01*
X-200563Y477721D01*
X-200008Y478388D01*
X-199397Y479166D01*
X-198730Y480221D01*
X-198063Y481443D01*
X-197508Y482832D01*
X-190953Y481999D01*
Y481943D01*
X-191009Y481721D01*
X-191120Y481443D01*
X-191286Y481054D01*
X-191453Y480555D01*
X-191675Y479999D01*
X-191953Y479388D01*
X-192231Y478721D01*
X-193008Y477333D01*
X-194008Y475833D01*
X-194619Y475111D01*
X-195230Y474389D01*
X-195897Y473722D01*
X-196675Y473111D01*
X-196730Y473055D01*
X-196841Y473000D01*
X-197119Y472833D01*
X-197397Y472611D01*
X-197841Y472389D01*
X-198341Y472111D01*
X-198897Y471833D01*
X-199563Y471555D01*
X-200285Y471278D01*
X-201119Y471000D01*
X-201952Y470722D01*
X-202896Y470500D01*
X-203896Y470278D01*
X-204952Y470111D01*
X-206118Y470056D01*
X-207285Y470000D01*
X-207618D01*
X-208062Y470056D01*
X-208618D01*
X-209340Y470167D01*
X-210118Y470278D01*
X-211007Y470444D01*
X-211951Y470611D01*
X-212951Y470889D01*
X-214006Y471222D01*
X-215117Y471611D01*
X-216173Y472111D01*
X-217284Y472666D01*
X-218284Y473333D01*
X-219284Y474111D01*
X-220228Y475000D01*
X-220283Y475055D01*
X-220450Y475222D01*
X-220672Y475499D01*
X-220950Y475944D01*
X-221339Y476444D01*
X-221728Y477055D01*
X-222172Y477777D01*
X-222561Y478610D01*
X-223005Y479555D01*
X-223450Y480610D01*
X-223839Y481777D01*
X-224227Y483054D01*
X-224505Y484387D01*
X-224727Y485832D01*
X-224894Y487387D01*
X-224949Y489054D01*
Y489165D01*
Y489442D01*
X-224894Y489942D01*
Y490609D01*
X-224783Y491387D01*
X-224672Y492276D01*
X-224561Y493331D01*
X-224338Y494386D01*
X-224116Y495553D01*
X-223783Y496720D01*
X-223394Y497942D01*
X-222950Y499164D01*
X-222394Y500330D01*
X-221728Y501497D01*
X-221005Y502608D01*
X-220172Y503608D01*
X-220117Y503663D01*
X-219950Y503830D01*
X-219672Y504108D01*
X-219284Y504441D01*
X-218839Y504830D01*
X-218228Y505274D01*
X-217561Y505718D01*
X-216784Y506218D01*
X-215951Y506718D01*
X-215006Y507163D01*
X-213951Y507607D01*
X-212840Y507996D01*
X-211618Y508329D01*
X-210396Y508607D01*
X-209007Y508774D01*
X-207618Y508829D01*
X-207285D01*
X-206896Y508774D01*
D02*
G37*
%LPC*%
G36*
X-135403Y489498D02*
X-135459D01*
X-135570Y489442D01*
X-135792Y489387D01*
X-136070Y489276D01*
X-136403Y489109D01*
X-136848Y488998D01*
X-137403Y488831D01*
X-137959Y488665D01*
X-138681Y488498D01*
X-139458Y488276D01*
X-140292Y488109D01*
X-141236Y487887D01*
X-142236Y487665D01*
X-143291Y487498D01*
X-144458Y487276D01*
X-145736Y487109D01*
X-145902D01*
X-146124Y487054D01*
X-146347Y486998D01*
X-147069Y486887D01*
X-147902Y486721D01*
X-148791Y486554D01*
X-149680Y486332D01*
X-150513Y486110D01*
X-151235Y485832D01*
X-151291Y485776D01*
X-151513Y485721D01*
X-151791Y485554D01*
X-152124Y485332D01*
X-152568Y484999D01*
X-152957Y484665D01*
X-153346Y484276D01*
X-153735Y483776D01*
X-153790Y483721D01*
X-153846Y483554D01*
X-154012Y483276D01*
X-154123Y482888D01*
X-154290Y482443D01*
X-154457Y481943D01*
X-154512Y481388D01*
X-154568Y480777D01*
Y480666D01*
X-154512Y480388D01*
X-154457Y479888D01*
X-154346Y479332D01*
X-154123Y478666D01*
X-153790Y477944D01*
X-153290Y477277D01*
X-152679Y476610D01*
X-152568Y476555D01*
X-152346Y476333D01*
X-151902Y476110D01*
X-151291Y475777D01*
X-150513Y475499D01*
X-149513Y475222D01*
X-148402Y475000D01*
X-147124Y474944D01*
X-146513D01*
X-146180Y475000D01*
X-145791Y475055D01*
X-144958Y475166D01*
X-143902Y475333D01*
X-142847Y475611D01*
X-141736Y475999D01*
X-140625Y476499D01*
X-140569D01*
X-140514Y476555D01*
X-140181Y476777D01*
X-139681Y477166D01*
X-139014Y477666D01*
X-138347Y478277D01*
X-137681Y479055D01*
X-137014Y479888D01*
X-136459Y480888D01*
X-136403Y480999D01*
X-136292Y481277D01*
X-136125Y481777D01*
X-135959Y482443D01*
X-135792Y483332D01*
X-135625Y484443D01*
X-135514Y485721D01*
X-135459Y487165D01*
X-135403Y489498D01*
D02*
G37*
G36*
X-60578Y503608D02*
X-61022D01*
X-61355Y503552D01*
X-61744Y503497D01*
X-62244Y503441D01*
X-63300Y503163D01*
X-64577Y502719D01*
X-65188Y502441D01*
X-65855Y502108D01*
X-66522Y501719D01*
X-67188Y501219D01*
X-67799Y500663D01*
X-68410Y500052D01*
X-68466Y499997D01*
X-68521Y499886D01*
X-68688Y499664D01*
X-68910Y499386D01*
X-69132Y498997D01*
X-69410Y498553D01*
X-69688Y497997D01*
X-69966Y497386D01*
X-70243Y496664D01*
X-70521Y495886D01*
X-70799Y494997D01*
X-71021Y494053D01*
X-71243Y492998D01*
X-71410Y491887D01*
X-71465Y490665D01*
X-71521Y489387D01*
Y489331D01*
Y489054D01*
Y488720D01*
X-71465Y488220D01*
X-71410Y487609D01*
X-71354Y486943D01*
X-71243Y486165D01*
X-71132Y485387D01*
X-70743Y483610D01*
X-70188Y481832D01*
X-69854Y480999D01*
X-69410Y480166D01*
X-68966Y479388D01*
X-68410Y478666D01*
X-68355Y478610D01*
X-68244Y478499D01*
X-68077Y478332D01*
X-67855Y478110D01*
X-67521Y477832D01*
X-67188Y477555D01*
X-66744Y477221D01*
X-66244Y476944D01*
X-65133Y476277D01*
X-63800Y475722D01*
X-63077Y475499D01*
X-62244Y475333D01*
X-61466Y475222D01*
X-60578Y475166D01*
X-60133D01*
X-59800Y475222D01*
X-59411Y475277D01*
X-58911Y475333D01*
X-57856Y475611D01*
X-56634Y476055D01*
X-55967Y476333D01*
X-55300Y476666D01*
X-54689Y477055D01*
X-54023Y477555D01*
X-53412Y478110D01*
X-52801Y478721D01*
X-52745Y478777D01*
X-52690Y478888D01*
X-52523Y479110D01*
X-52301Y479388D01*
X-52079Y479777D01*
X-51801Y480221D01*
X-51523Y480777D01*
X-51190Y481443D01*
X-50912Y482110D01*
X-50634Y482943D01*
X-50356Y483832D01*
X-50134Y484832D01*
X-49912Y485887D01*
X-49745Y487054D01*
X-49690Y488276D01*
X-49634Y489609D01*
Y489665D01*
Y489887D01*
Y490276D01*
X-49690Y490720D01*
X-49745Y491331D01*
X-49801Y491998D01*
X-49912Y492720D01*
X-50023Y493498D01*
X-50412Y495164D01*
X-50634Y496053D01*
X-50968Y496942D01*
X-51356Y497775D01*
X-51745Y498608D01*
X-52245Y499330D01*
X-52801Y500052D01*
X-52856Y500108D01*
X-52967Y500219D01*
X-53134Y500386D01*
X-53356Y500608D01*
X-53689Y500886D01*
X-54023Y501163D01*
X-54467Y501497D01*
X-54912Y501830D01*
X-56078Y502497D01*
X-57411Y503052D01*
X-58134Y503274D01*
X-58911Y503441D01*
X-59744Y503552D01*
X-60578Y503608D01*
D02*
G37*
G36*
X-207618Y503663D02*
X-208062D01*
X-208340Y503608D01*
X-208729Y503552D01*
X-209118Y503497D01*
X-210173Y503274D01*
X-211284Y502941D01*
X-212562Y502441D01*
X-213173Y502108D01*
X-213784Y501719D01*
X-214395Y501219D01*
X-214951Y500719D01*
X-215006Y500663D01*
X-215062Y500608D01*
X-215228Y500441D01*
X-215395Y500219D01*
X-215617Y499886D01*
X-215895Y499552D01*
X-216173Y499164D01*
X-216450Y498664D01*
X-216728Y498164D01*
X-217006Y497553D01*
X-217561Y496219D01*
X-217950Y494720D01*
X-218061Y493886D01*
X-218172Y492998D01*
X-197397D01*
Y493053D01*
Y493220D01*
X-197452Y493442D01*
X-197508Y493775D01*
X-197563Y494164D01*
X-197619Y494609D01*
X-197841Y495608D01*
X-198174Y496775D01*
X-198563Y497942D01*
X-199119Y499053D01*
X-199785Y499997D01*
X-199841Y500052D01*
X-199897Y500164D01*
X-200119Y500330D01*
X-200341Y500552D01*
X-200619Y500830D01*
X-201008Y501163D01*
X-201452Y501497D01*
X-201896Y501830D01*
X-202452Y502163D01*
X-203063Y502497D01*
X-204396Y503108D01*
X-205118Y503330D01*
X-205896Y503497D01*
X-206729Y503608D01*
X-207618Y503663D01*
D02*
G37*
%LPD*%
D12*
X530556Y510000D02*
G03*
X487444Y510000I-21556J0D01*
G01*
X477286Y500000D02*
G03*
X477286Y500000I-27286J0D01*
G01*
X487444Y410000D02*
G03*
X530556Y410000I21556J0D01*
G01*
Y-410000D02*
G03*
X487444Y-410000I-21556J0D01*
G01*
Y-510000D02*
G03*
X530556Y-510000I21556J0D01*
G01*
X477286Y-500000D02*
G03*
X477286Y-500000I-27286J0D01*
G01*
X-422714Y500000D02*
G03*
X-422714Y500000I-27286J0D01*
G01*
X-487444Y510000D02*
G03*
X-530556Y510000I-21556J0D01*
G01*
Y410000D02*
G03*
X-487444Y410000I21556J0D01*
G01*
Y-410000D02*
G03*
X-530556Y-410000I-21556J0D01*
G01*
X-422714Y-500000D02*
G03*
X-422714Y-500000I-27286J0D01*
G01*
X-530556Y-510000D02*
G03*
X-487444Y-510000I21556J0D01*
G01*
X529652Y543607D02*
X543607Y529652D01*
X536836Y543607D02*
X543607Y536836D01*
X522467Y543607D02*
X543607Y522467D01*
X515283Y543607D02*
X543607Y515283D01*
X521345Y527671D02*
X537282Y543607D01*
X508099D02*
X543607Y508099D01*
X530017Y514790D02*
X543607Y528380D01*
X528078Y520035D02*
X543607Y535564D01*
X530556Y508145D02*
X543607Y521196D01*
X525144Y524285D02*
X543607Y542748D01*
X525144Y524285D02*
X543607Y542748D01*
X493731Y543607D02*
X505993Y531345D01*
X486546Y543607D02*
X500391Y529762D01*
X479362Y543607D02*
X495872Y527097D01*
X469577Y519007D02*
X494177Y543607D01*
X472178D02*
X492235Y523550D01*
X472777Y515024D02*
X501361Y543607D01*
X510788Y531482D02*
X522913Y543607D01*
X502753Y530631D02*
X515729Y543607D01*
X516645Y530155D02*
X530098Y543607D01*
X500915D02*
X513425Y531097D01*
X475259Y510321D02*
X508545Y543607D01*
X530556Y506782D02*
X543607Y493731D01*
X530556Y493776D02*
X543607Y506828D01*
X530556Y486592D02*
X543607Y499643D01*
X530097Y514425D02*
X543607Y500915D01*
X530556Y500960D02*
X543607Y514012D01*
X530556Y410000D02*
Y510000D01*
Y472224D02*
X543607Y485275D01*
X530556Y492413D02*
X543607Y479362D01*
X530556Y485229D02*
X543607Y472178D01*
X530556Y499598D02*
X543607Y486546D01*
X530556Y479408D02*
X543607Y492459D01*
X477205Y497899D02*
X487444Y508138D01*
Y410000D02*
Y510000D01*
X476870Y504748D02*
X488369Y516247D01*
X473920Y513128D02*
X487444Y499604D01*
X477151Y502713D02*
X487444Y492420D01*
X476950Y495730D02*
X487444Y485236D01*
X474520Y488030D02*
X487444Y500954D01*
X475418Y490078D02*
X487444Y478052D01*
X472997Y485314D02*
X487444Y470868D01*
X469850Y481278D02*
X487444Y463683D01*
X465701Y522316D02*
X486992Y543607D01*
X461119Y524918D02*
X479808Y543607D01*
X457809D02*
X487757Y513660D01*
X364415Y543607D02*
X487444Y420578D01*
X450625Y543607D02*
X487444Y506788D01*
X357230Y543607D02*
X487444Y413394D01*
X464994Y543607D02*
X489472Y519129D01*
X350046Y543607D02*
X487858Y405796D01*
X342862Y543607D02*
X543607Y342862D01*
X335678Y543607D02*
X543607Y335678D01*
X328494Y543607D02*
X543607Y328494D01*
X436257Y543607D02*
X452713Y527151D01*
X429073Y543607D02*
X445730Y526950D01*
X421888Y543607D02*
X440078Y525418D01*
X414704Y543607D02*
X435314Y522997D01*
X407520Y543607D02*
X431278Y519850D01*
X400336Y543607D02*
X427917Y516026D01*
X455700Y526684D02*
X472624Y543607D01*
X449104Y527271D02*
X465440Y543607D01*
X443441D02*
X463128Y523920D01*
X440059Y525410D02*
X458256Y543607D01*
X285388D02*
X543607Y285388D01*
X292573Y543607D02*
X543607Y292572D01*
X281016Y519243D02*
X543607Y256651D01*
X271020Y543607D02*
X543607Y271020D01*
X278204Y543607D02*
X543607Y278204D01*
X281016Y526427D02*
X543607Y263836D01*
X281016Y490506D02*
X543607Y227915D01*
X281016Y497690D02*
X543607Y235099D01*
X281016Y483322D02*
X543607Y220730D01*
X281016Y512059D02*
X543607Y249467D01*
X281016Y504874D02*
X543607Y242283D01*
X314125Y543607D02*
X543607Y314125D01*
X321309Y543607D02*
X543607Y321309D01*
X138010Y230545D02*
X451071Y543607D01*
X128827Y235732D02*
X436703Y543607D01*
X124200Y238289D02*
X429519Y543607D01*
X133454Y233174D02*
X443887Y543607D01*
X299757D02*
X543607Y299757D01*
X306941Y543607D02*
X543607Y306941D01*
X190382Y189523D02*
X487444Y486585D01*
X186790Y193116D02*
X487444Y493769D01*
X190382Y189523D02*
X487444Y486585D01*
X530556Y436302D02*
X543607Y449354D01*
X530556Y456492D02*
X543607Y443441D01*
X530556Y449308D02*
X543607Y436257D01*
X530556Y463676D02*
X543607Y450625D01*
X530556Y450671D02*
X543607Y463722D01*
X530556Y443487D02*
X543607Y456538D01*
X530556Y414750D02*
X543607Y427801D01*
X530556Y434940D02*
X543607Y421888D01*
X530556Y427756D02*
X543607Y414704D01*
X530556Y442124D02*
X543607Y429073D01*
X530556Y429118D02*
X543607Y442169D01*
X530556Y421934D02*
X543607Y434985D01*
X530556Y478045D02*
X543607Y464994D01*
X530556Y465039D02*
X543607Y478091D01*
X466026Y477917D02*
X487444Y456499D01*
X456157Y473418D02*
X487444Y442131D01*
X461502Y475257D02*
X487444Y449315D01*
X440946Y474260D02*
X487444Y427762D01*
X530556Y457855D02*
X543607Y470906D01*
X530556Y470861D02*
X543607Y457809D01*
X449674Y472716D02*
X487444Y434946D01*
X281016Y468953D02*
X543607Y206362D01*
X281016Y476138D02*
X543607Y213546D01*
X278801Y463984D02*
X543607Y199178D01*
X264433Y463984D02*
X543607Y184809D01*
X271617Y463984D02*
X543607Y191994D01*
X257248Y463984D02*
X543607Y177625D01*
X504795Y388858D02*
X543607Y350046D01*
X512161Y388677D02*
X543607Y357230D01*
X260544Y65711D02*
X543607Y348775D01*
X257396Y76932D02*
X543607Y363143D01*
X259003Y71355D02*
X543607Y355959D01*
X530400Y407409D02*
X543607Y420617D01*
X530556Y420571D02*
X543607Y407520D01*
X530556Y413387D02*
X543607Y400336D01*
X530268Y406490D02*
X543607Y393152D01*
X525843Y396547D02*
X543607Y378783D01*
X528583Y400991D02*
X543607Y385967D01*
X522227Y392979D02*
X543607Y371599D01*
X517731Y390291D02*
X543607Y364415D01*
X255748Y82468D02*
X543607Y370327D01*
X242880Y463984D02*
X543607Y163257D01*
X250064Y463984D02*
X543607Y170441D01*
X235696Y463984D02*
X543607Y156073D01*
X228512Y463984D02*
X543607Y148888D01*
X210660Y166696D02*
X487444Y443480D01*
X221327Y463984D02*
X543607Y141704D01*
X222849Y150148D02*
X487444Y414743D01*
X219868Y154351D02*
X487444Y421927D01*
X225664Y145779D02*
X487569Y407684D01*
X213847Y162699D02*
X487444Y436296D01*
X216886Y158553D02*
X487444Y429112D01*
X183118Y196628D02*
X461970Y475480D01*
X175530Y203408D02*
X445252Y473130D01*
X193974Y185931D02*
X487444Y479401D01*
X167652Y209898D02*
X434976Y477223D01*
X163655Y213085D02*
X430993Y480423D01*
X171648Y206711D02*
X439679Y474741D01*
X204219Y174623D02*
X487444Y457848D01*
X200828Y178417D02*
X487444Y465033D01*
X207473Y170693D02*
X487444Y450664D01*
X179324Y200018D02*
X452101Y472795D01*
X197438Y182211D02*
X487444Y472217D01*
X206959Y463984D02*
X543607Y127336D01*
X214143Y463984D02*
X543607Y134520D01*
X199775Y463984D02*
X543607Y120151D01*
X185406Y463984D02*
X543607Y105783D01*
X192591Y463984D02*
X543607Y112967D01*
X178222Y463984D02*
X543607Y98599D01*
X171038Y463984D02*
X543607Y91415D01*
X253886Y87790D02*
X543607Y377512D01*
X163854Y463984D02*
X543607Y84230D01*
X156670Y463984D02*
X543607Y77046D01*
X149485Y463984D02*
X543607Y69862D01*
X245835Y108476D02*
X543607Y406249D01*
X243558Y113384D02*
X543607Y413433D01*
X247939Y103396D02*
X543607Y399064D01*
X231208Y136955D02*
X491570Y397317D01*
X228436Y141367D02*
X489008Y401939D01*
X233786Y132348D02*
X495025Y393588D01*
X250043Y98316D02*
X543607Y391880D01*
X241223Y118233D02*
X511591Y388600D01*
X252024Y93112D02*
X543607Y384696D01*
X236343Y127721D02*
X499348Y390726D01*
X238888Y123082D02*
X504686Y388880D01*
X134520Y543607D02*
X149783Y528344D01*
X134071D02*
X149334Y543607D01*
X141255Y528344D02*
X156519Y543607D01*
X126887Y528344D02*
X142150Y543607D01*
X120152D02*
X135415Y528344D01*
X127336Y543607D02*
X142599Y528344D01*
X156073Y543607D02*
X171336Y528344D01*
X155624D02*
X170887Y543607D01*
X162808Y528344D02*
X178071Y543607D01*
X148440Y528344D02*
X163703Y543607D01*
X141704D02*
X156967Y528344D01*
X148888Y543607D02*
X164152Y528344D01*
X98150D02*
X113413Y543607D01*
X91415D02*
X106678Y528344D01*
X98599Y543607D02*
X113862Y528344D01*
X84230Y543607D02*
X99494Y528344D01*
X83781D02*
X99045Y543607D01*
X90966Y528344D02*
X106229Y543607D01*
X112967D02*
X128231Y528344D01*
X112518D02*
X127782Y543607D01*
X119703Y528344D02*
X134966Y543607D01*
X105334Y528344D02*
X120597Y543607D01*
X105783D02*
X121046Y528344D01*
X220282D02*
X235545Y543607D01*
X213546D02*
X228810Y528344D01*
X220730Y543607D02*
X235994Y528344D01*
X206362Y543607D02*
X221625Y528344D01*
X205913D02*
X221176Y543607D01*
X213097Y528344D02*
X228361Y543607D01*
X235099D02*
X250362Y528344D01*
X234650D02*
X249913Y543607D01*
X281016Y495684D02*
X328940Y543607D01*
X227466Y528344D02*
X242729Y543607D01*
X227915D02*
X243178Y528344D01*
X177625Y543607D02*
X192889Y528344D01*
X177176D02*
X192440Y543607D01*
X184361Y528344D02*
X199624Y543607D01*
X169992Y528344D02*
X185256Y543607D01*
X163257D02*
X178520Y528344D01*
X170441Y543607D02*
X185704Y528344D01*
X198729D02*
X213992Y543607D01*
X191994D02*
X207257Y528344D01*
X199178Y543607D02*
X214441Y528344D01*
X184809Y543607D02*
X200073Y528344D01*
X191545D02*
X206808Y543607D01*
X-23533D02*
X-8269Y528344D01*
X-23982D02*
X-8718Y543607D01*
X-16797Y528344D02*
X-1534Y543607D01*
X-31166Y528344D02*
X-15903Y543607D01*
X-37901D02*
X-22638Y528344D01*
X-30717Y543607D02*
X-15454Y528344D01*
X-2429D02*
X12834Y543607D01*
X-9164D02*
X6099Y528344D01*
X-1980Y543607D02*
X13283Y528344D01*
X-16349Y543607D02*
X-1085Y528344D01*
X-9613D02*
X5650Y543607D01*
X-59903Y528344D02*
X-44639Y543607D01*
X-66638D02*
X-51375Y528344D01*
X-59454Y543607D02*
X-44191Y528344D01*
X-73822Y543607D02*
X-58559Y528344D01*
X-74271D02*
X-59008Y543607D01*
X-67087Y528344D02*
X-51824Y543607D01*
X-45085D02*
X-29822Y528344D01*
X-45534D02*
X-30271Y543607D01*
X-38350Y528344D02*
X-23087Y543607D01*
X-52719Y528344D02*
X-37455Y543607D01*
X-52270D02*
X-37006Y528344D01*
X55494Y543607D02*
X70757Y528344D01*
X55045D02*
X70308Y543607D01*
X62229Y528344D02*
X77492Y543607D01*
X47860Y528344D02*
X63124Y543607D01*
X41125D02*
X56389Y528344D01*
X48309Y543607D02*
X63573Y528344D01*
X76597D02*
X91861Y543607D01*
X69862D02*
X85125Y528344D01*
X77046Y543607D02*
X92310Y528344D01*
X62678Y543607D02*
X77941Y528344D01*
X69413D02*
X84677Y543607D01*
X19124Y528344D02*
X34387Y543607D01*
X12388D02*
X27652Y528344D01*
X19572Y543607D02*
X34836Y528344D01*
X5204Y543607D02*
X20467Y528344D01*
X4755D02*
X20019Y543607D01*
X11939Y528344D02*
X27203Y543607D01*
X33941D02*
X49204Y528344D01*
X33492D02*
X48755Y543607D01*
X40676Y528344D02*
X55940Y543607D01*
X26308Y528344D02*
X41571Y543607D01*
X26757D02*
X42020Y528344D01*
X281016Y488499D02*
X336124Y543607D01*
X281016Y502868D02*
X321755Y543607D01*
X281016Y481315D02*
X343308Y543607D01*
X281016Y517236D02*
X307387Y543607D01*
X281016Y524420D02*
X300203Y543607D01*
X281016Y510052D02*
X314571Y543607D01*
X393152D02*
X425257Y511502D01*
X385967Y543607D02*
X423418Y506157D01*
X378783Y543607D02*
X422716Y499674D01*
X371599Y543607D02*
X424260Y490946D01*
X281016Y474131D02*
X350492Y543607D01*
X256203Y528344D02*
X271466Y543607D01*
X249467D02*
X264731Y528344D01*
X256651Y543607D02*
X271915Y528344D01*
X242283Y543607D02*
X257546Y528344D01*
X241834D02*
X257098Y543607D01*
X249018Y528344D02*
X264282Y543607D01*
X277755Y528344D02*
X293019Y543607D01*
X270571Y528344D02*
X285834Y543607D01*
X279099Y528344D02*
X281016Y526427D01*
X263387Y528344D02*
X278650Y543607D01*
X263836D02*
X279099Y528344D01*
X281016Y466947D02*
X357677Y543607D01*
X281016Y463984D02*
Y528344D01*
X155356Y219155D02*
X425082Y488881D01*
X142421Y227773D02*
X424590Y509941D01*
X146833Y225001D02*
X422729Y500896D01*
X151153Y222136D02*
X423316Y494300D01*
X278053Y463984D02*
X281016Y466947D01*
X251126Y95676D02*
X255991Y81772D01*
X256096Y81445D02*
X260174Y67290D01*
X159558Y216173D02*
X427684Y484299D01*
X245367Y109606D02*
X251004Y95997D01*
X184745Y195161D02*
X195161Y184745D01*
X173512Y205212D02*
X184495Y195397D01*
X195397Y184495D02*
X205212Y173512D01*
X149444Y223349D02*
X161457Y214825D01*
X136686Y231377D02*
X149158Y223540D01*
X161732Y214618D02*
X173249Y205434D01*
X231552Y136389D02*
X238677Y123497D01*
X223540Y149158D02*
X231377Y136686D01*
X238835Y123191D02*
X245226Y109920D01*
X205434Y173249D02*
X214618Y161732D01*
X214825Y161457D02*
X223349Y149444D01*
X10684Y268457D02*
X206211Y463984D01*
X3677Y268634D02*
X199027Y463984D01*
X17486Y268075D02*
X213395Y463984D01*
X-3507Y268634D02*
X191843Y463984D01*
X-10879Y268446D02*
X184659Y463984D01*
X-18491Y268019D02*
X177474Y463984D01*
X43279Y265130D02*
X242132Y463984D01*
X37116Y266152D02*
X234948Y463984D01*
X49419Y264087D02*
X249316Y463984D01*
X24202Y267607D02*
X220580Y463984D01*
X30659Y266879D02*
X227764Y463984D01*
X-7365Y268634D02*
X7365D01*
X-22416Y267798D02*
X-7709Y268624D01*
X-26327Y267367D02*
X170290Y463984D01*
X-34423Y266455D02*
X163106Y463984D01*
X-42861Y265201D02*
X155922Y463984D01*
X-51516Y263731D02*
X148737Y463984D01*
X22759Y267769D02*
X37396Y266120D01*
X7709Y268624D02*
X22416Y267798D01*
X37737Y266072D02*
X52259Y263605D01*
X-37396Y266120D02*
X-22759Y267769D01*
X-52259Y263605D02*
X-37737Y266072D01*
X99531Y249540D02*
X393598Y543607D01*
X94384Y251578D02*
X386413Y543607D01*
X104611Y247436D02*
X400782Y543607D01*
X83741Y255303D02*
X372045Y543607D01*
X78265Y257012D02*
X364861Y543607D01*
X89062Y253441D02*
X379229Y543607D01*
X114543Y243000D02*
X415150Y543607D01*
X109678Y245319D02*
X407966Y543607D01*
X119392Y240665D02*
X422335Y543607D01*
X67087Y260202D02*
X270869Y463984D01*
X72688Y258619D02*
X278053Y463984D01*
X61261Y261560D02*
X263685Y463984D01*
X55412Y262895D02*
X256501Y463984D01*
X52596Y263538D02*
X66957Y260260D01*
X-60756Y261675D02*
X141553Y463984D01*
X-66957Y260260D02*
X-52596Y263538D01*
X-70312Y259303D02*
X134369Y463984D01*
X109920Y245226D02*
X123191Y238835D01*
X95997Y251004D02*
X109606Y245367D01*
X123497Y238677D02*
X136389Y231552D01*
X67290Y260174D02*
X81445Y256096D01*
X81772Y255991D02*
X95676Y251126D01*
X268166Y15860D02*
X543607Y291301D01*
X267759Y22637D02*
X543607Y298485D01*
X229445Y139762D02*
X543607Y-174401D01*
X99196Y463984D02*
X543607Y19572D01*
X106380Y463984D02*
X543607Y26757D01*
X214462Y161928D02*
X543607Y-167217D01*
X257818Y75467D02*
X543607Y-210322D01*
X254535Y85934D02*
X543607Y-203138D01*
X260590Y65511D02*
X543607Y-217507D01*
X245462Y109375D02*
X543607Y-188770D01*
X238840Y123182D02*
X543607Y-181586D01*
X250543Y97111D02*
X543607Y-195954D01*
X261879Y59862D02*
X543607Y341591D01*
X142301Y463984D02*
X543607Y62678D01*
X135117Y463984D02*
X543607Y55493D01*
X120748Y463984D02*
X543607Y41125D01*
X127933Y463984D02*
X543607Y48309D01*
X113564Y463984D02*
X543607Y33941D01*
X266326Y35572D02*
X543607Y312854D01*
X265380Y41810D02*
X543607Y320038D01*
X267053Y29115D02*
X543607Y305669D01*
X263214Y54013D02*
X543607Y334406D01*
X264336Y47951D02*
X543607Y327222D01*
X266523Y-33817D02*
X543607Y-310901D01*
X267251Y-27361D02*
X543607Y-303717D01*
X543607Y543607D02*
X543607Y-543607D01*
X264620Y-46283D02*
X543607Y-325270D01*
X265663Y-40142D02*
X543607Y-318085D01*
X263552Y-52398D02*
X543607Y-332454D01*
X260907Y-64122D02*
X543607Y-346822D01*
X262242Y-58273D02*
X543607Y-339638D01*
X259440Y-69839D02*
X543607Y-354007D01*
X257833Y-75416D02*
X543607Y-361191D01*
X256226Y-80994D02*
X543607Y-368375D01*
X267800Y22379D02*
X543607Y-253428D01*
X266901Y30463D02*
X543607Y-246243D01*
X268228Y14768D02*
X543607Y-260612D01*
X264450Y47282D02*
X543607Y-231875D01*
X262715Y56202D02*
X543607Y-224691D01*
X265921Y38628D02*
X543607Y-239059D01*
X268634Y-7D02*
X543607Y-274980D01*
X268634Y7178D02*
X543607Y-267796D01*
X268634Y-7191D02*
X543607Y-282164D01*
X268270Y-14012D02*
X543607Y-289349D01*
X267888Y-20814D02*
X543607Y-296533D01*
X-1383Y463984D02*
X543607Y-81006D01*
X5801Y463984D02*
X543607Y-73822D01*
X-8567Y463984D02*
X543607Y-88191D01*
X-22936Y463984D02*
X543607Y-102559D01*
X-15752Y463984D02*
X543607Y-95375D01*
X-30120Y463984D02*
X543607Y-109743D01*
X-44489Y463984D02*
X543607Y-124112D01*
X-37304Y463984D02*
X543607Y-116928D01*
X-51673Y463984D02*
X543607Y-131296D01*
X-58857Y463984D02*
X543607Y-138480D01*
X-66041Y463984D02*
X543607Y-145664D01*
X77643Y463984D02*
X543607Y-1980D01*
X92012Y463984D02*
X543607Y12388D01*
X70459Y463984D02*
X543607Y-9164D01*
X56090Y463984D02*
X543607Y-23533D01*
X63275Y463984D02*
X543607Y-16349D01*
X48906Y463984D02*
X543607Y-30717D01*
X34538Y463984D02*
X543607Y-45086D01*
X41722Y463984D02*
X543607Y-37901D01*
X27354Y463984D02*
X543607Y-52270D01*
X20169Y463984D02*
X543607Y-59454D01*
X12985Y463984D02*
X543607Y-66638D01*
X31988Y-543607D02*
X543607Y-31988D01*
X24804Y-543607D02*
X543607Y-24804D01*
X39173Y-543607D02*
X543607Y-39173D01*
X10436Y-543607D02*
X543607Y-10436D01*
X3252Y-543607D02*
X543607Y-3252D01*
X17620Y-543607D02*
X543607Y-17620D01*
X67909Y-543607D02*
X543607Y-67909D01*
X60725Y-543607D02*
X543607Y-60725D01*
X75094Y-543607D02*
X543607Y-75094D01*
X46357Y-543607D02*
X543607Y-46357D01*
X53541Y-543607D02*
X543607Y-53541D01*
X-47038Y-543607D02*
X543607Y47038D01*
X-54222Y-543607D02*
X543607Y54222D01*
X-39854Y-543607D02*
X543607Y39854D01*
X-73225Y463984D02*
X543607Y-152849D01*
X-68590Y-543607D02*
X543607Y68590D01*
X-61406Y-543607D02*
X543607Y61406D01*
X-11117Y-543607D02*
X543607Y11117D01*
X-18301Y-543607D02*
X543607Y18301D01*
X-3933Y-543607D02*
X543607Y3933D01*
X-32669Y-543607D02*
X543607Y32669D01*
X-25485Y-543607D02*
X543607Y25485D01*
X530556Y-447356D02*
X543607Y-434304D01*
X530556Y-427166D02*
X543607Y-440217D01*
X530556Y-434350D02*
X543607Y-447401D01*
X530556Y-419982D02*
X543607Y-433033D01*
X530556Y-432987D02*
X543607Y-419936D01*
X530556Y-440171D02*
X543607Y-427120D01*
X530556Y-468908D02*
X543607Y-455857D01*
X530556Y-448718D02*
X543607Y-461770D01*
X530556Y-455903D02*
X543607Y-468954D01*
X530556Y-441534D02*
X543607Y-454586D01*
X530556Y-454540D02*
X543607Y-441488D01*
X530556Y-461724D02*
X543607Y-448673D01*
X527931Y-399691D02*
X543607Y-384015D01*
X524944Y-395494D02*
X543607Y-376831D01*
X529937Y-404870D02*
X543607Y-391199D01*
X516338Y-389731D02*
X543607Y-362462D01*
X510396Y-388489D02*
X543607Y-355278D01*
X521096Y-392158D02*
X543607Y-369646D01*
X530556Y-425803D02*
X543607Y-412752D01*
X530556Y-418619D02*
X543607Y-405567D01*
X530556Y-412797D02*
X543607Y-425849D01*
X530556Y-411435D02*
X543607Y-398383D01*
X529976Y-405033D02*
X543607Y-418665D01*
X530556Y-506192D02*
X543607Y-519244D01*
X530452Y-512118D02*
X543607Y-498962D01*
X530325Y-513146D02*
X543607Y-526428D01*
X506147Y-543607D02*
X543607Y-506146D01*
X528714Y-518719D02*
X543607Y-533612D01*
X513331Y-543607D02*
X543607Y-513331D01*
X534883Y-543607D02*
X543607Y-534883D01*
X527699Y-543607D02*
X543607Y-527699D01*
X542067Y-543607D02*
X543607Y-542067D01*
X526028Y-523217D02*
X543607Y-540796D01*
X520515Y-543607D02*
X543607Y-520515D01*
X530556Y-490461D02*
X543607Y-477410D01*
X530556Y-470271D02*
X543607Y-483322D01*
X530556Y-477455D02*
X543607Y-490507D01*
X530556Y-463087D02*
X543607Y-476138D01*
X530556Y-476092D02*
X543607Y-463041D01*
X530556Y-483277D02*
X543607Y-470225D01*
X530556Y-491824D02*
X543607Y-504875D01*
X530556Y-504829D02*
X543607Y-491778D01*
X530556Y-499008D02*
X543607Y-512059D01*
X530556Y-497645D02*
X543607Y-484594D01*
X530556Y-484640D02*
X543607Y-497691D01*
X252530Y-91666D02*
X543607Y-382743D01*
X254392Y-86344D02*
X543607Y-375559D01*
X250615Y-96936D02*
X543607Y-389928D01*
X246407Y-107095D02*
X543607Y-404296D01*
X248511Y-102015D02*
X543607Y-397112D01*
X244193Y-112066D02*
X543607Y-411480D01*
X218778Y-543607D02*
X543607Y-218778D01*
X211594Y-543607D02*
X543607Y-211594D01*
X225962Y-543607D02*
X543607Y-225962D01*
X197225Y-543607D02*
X543607Y-197225D01*
X204410Y-543607D02*
X543607Y-204410D01*
X154120Y-543607D02*
X543607Y-154120D01*
X146936Y-543607D02*
X543607Y-146936D01*
X161304Y-543607D02*
X543607Y-161304D01*
X132567Y-543607D02*
X543607Y-132567D01*
X125383Y-543607D02*
X543607Y-125383D01*
X139752Y-543607D02*
X543607Y-139752D01*
X182857Y-543607D02*
X543607Y-182857D01*
X502135Y-389566D02*
X543607Y-348094D01*
X190041Y-543607D02*
X543607Y-190041D01*
X168489Y-543607D02*
X543607Y-168488D01*
X175673Y-543607D02*
X543607Y-175673D01*
X297804Y-543607D02*
X543607Y-297804D01*
X290620Y-543607D02*
X543607Y-290620D01*
X304988Y-543607D02*
X543607Y-304988D01*
X276252Y-543607D02*
X543607Y-276252D01*
X118199Y-543607D02*
X543607Y-118199D01*
X283436Y-543607D02*
X543607Y-283436D01*
X333725Y-543607D02*
X543607Y-333725D01*
X326541Y-543607D02*
X543607Y-326541D01*
X340910Y-543607D02*
X543607Y-340910D01*
X312173Y-543607D02*
X543607Y-312173D01*
X319357Y-543607D02*
X543607Y-319357D01*
X111015Y-543607D02*
X543607Y-111015D01*
X103831Y-543607D02*
X543607Y-103830D01*
X233146Y-543607D02*
X543607Y-233146D01*
X89462Y-543607D02*
X543607Y-89462D01*
X82278Y-543607D02*
X543607Y-82278D01*
X96646Y-543607D02*
X543607Y-96646D01*
X261883Y-543607D02*
X543607Y-261883D01*
X254699Y-543607D02*
X543607Y-254699D01*
X269067Y-543607D02*
X543607Y-269067D01*
X240331Y-543607D02*
X543607Y-240331D01*
X247515Y-543607D02*
X543607Y-247515D01*
X268634Y1959D02*
X543607Y276933D01*
X268548Y9058D02*
X543607Y284117D01*
X268634Y-5225D02*
X543607Y269748D01*
X267917Y-20311D02*
X543607Y255380D01*
X268344Y-12699D02*
X543607Y262564D01*
X267149Y-28262D02*
X543607Y248196D01*
X264850Y-44930D02*
X543607Y233827D01*
X266237Y-36359D02*
X543607Y241012D01*
X263292Y-53672D02*
X543607Y226643D01*
X258608Y-72724D02*
X543607Y212275D01*
X261167Y-62981D02*
X543607Y219459D01*
X255586Y-82930D02*
X543607Y205091D01*
X268634Y-0D02*
Y7365D01*
X267798Y22416D02*
X268624Y7709D01*
X268634Y-7365D02*
Y-0D01*
X263605Y52259D02*
X266072Y37737D01*
X260260Y66957D02*
X263538Y52596D01*
X266120Y37396D02*
X267769Y22759D01*
X267798Y-22416D02*
X268624Y-7709D01*
X266120Y-37396D02*
X267769Y-22759D01*
X263605Y-52259D02*
X266072Y-37737D01*
X260260Y-66957D02*
X263538Y-52596D01*
X256096Y-81445D02*
X260174Y-67290D01*
X246843Y-106042D02*
X543607Y190722D01*
X251719Y-93982D02*
X543607Y197906D01*
X241858Y-116915D02*
X513967Y-389024D01*
X232402Y-134852D02*
X543607Y176354D01*
X240653Y-119416D02*
X543607Y183538D01*
X219332Y-155106D02*
X543607Y169170D01*
X239523Y-121764D02*
X506364Y-388606D01*
X237038Y-126463D02*
X500686Y-390112D01*
X234481Y-131090D02*
X496112Y-392721D01*
X231923Y-135717D02*
X492425Y-396219D01*
X229189Y-140168D02*
X489608Y-400586D01*
X251126Y-95676D02*
X255991Y-81772D01*
X245367Y-109606D02*
X251004Y-95997D01*
X238835Y-123191D02*
X245226Y-109920D01*
X231552Y-136389D02*
X238677Y-123497D01*
X223540Y-149158D02*
X231377Y-136686D01*
X226417Y-144580D02*
X487821Y-405984D01*
X220678Y-153209D02*
X487444Y-419975D01*
X223645Y-148991D02*
X487444Y-412791D01*
X217696Y-157411D02*
X487444Y-427159D01*
X214825Y-161457D02*
X223349Y-149444D01*
X214692Y-161591D02*
X487444Y-434343D01*
X211526Y-165610D02*
X487444Y-441527D01*
X205434Y-173249D02*
X214618Y-161732D01*
X208339Y-169607D02*
X487444Y-448712D01*
X84827Y463984D02*
X543607Y5204D01*
X205140Y-173592D02*
X487444Y-455896D01*
X201750Y-177386D02*
X487444Y-463080D01*
X198360Y-181180D02*
X487444Y-470264D01*
X176562Y-202486D02*
X446959Y-472884D01*
X180356Y-199096D02*
X454318Y-473058D01*
X172735Y-205844D02*
X441098Y-474207D01*
X168738Y-209031D02*
X436180Y-476473D01*
X195397Y-184495D02*
X205212Y-173512D01*
X184745Y-195161D02*
X195161Y-184745D01*
X173512Y-205212D02*
X184495Y-195397D01*
X161732Y-214618D02*
X173249Y-205434D01*
X149444Y-223349D02*
X161457Y-214825D01*
X136686Y-231377D02*
X149158Y-223540D01*
X123497Y-238677D02*
X136389Y-231552D01*
X109920Y-245226D02*
X123191Y-238835D01*
X95997Y-251004D02*
X109606Y-245367D01*
X81772Y-255991D02*
X95676Y-251126D01*
X67290Y-260174D02*
X81445Y-256096D01*
X191358Y-188547D02*
X487444Y-484633D01*
X194951Y-184955D02*
X487444Y-477449D01*
X187766Y-192139D02*
X487444Y-491817D01*
X184150Y-195706D02*
X467555Y-479112D01*
X164741Y-212219D02*
X432009Y-479486D01*
X160701Y-215362D02*
X428517Y-483178D01*
X134712Y-232479D02*
X445841Y-543607D01*
X156498Y-218344D02*
X425715Y-487560D01*
X139209Y-229792D02*
X453025Y-543607D01*
X125458Y-237593D02*
X431472Y-543607D01*
X130085Y-235036D02*
X438657Y-543607D01*
X152296Y-221326D02*
X423700Y-492730D01*
X148033Y-224247D02*
X422734Y-498948D01*
X143621Y-227019D02*
X423637Y-507035D01*
X115862Y-242365D02*
X417104Y-543607D01*
X111013Y-244700D02*
X409920Y-543607D01*
X120711Y-240030D02*
X424288Y-543607D01*
X100912Y-248968D02*
X395551Y-543607D01*
X95808Y-251049D02*
X388367Y-543607D01*
X105992Y-246864D02*
X402735Y-543607D01*
X85188Y-254797D02*
X373999Y-543607D01*
X90510Y-252934D02*
X381183Y-543607D01*
X530556Y-510000D02*
Y-410000D01*
X487444Y-510000D02*
Y-410000D01*
X477116Y-503041D02*
X487761Y-513686D01*
X476942Y-495682D02*
X487444Y-506184D01*
X475569Y-509527D02*
X487444Y-497652D01*
X464869Y-477121D02*
X487444Y-454547D01*
X460139Y-474668D02*
X487444Y-447362D01*
X468877Y-480298D02*
X487444Y-461731D01*
X454529Y-473093D02*
X487444Y-440178D01*
X447620Y-472818D02*
X487444Y-432994D01*
X437517Y-475737D02*
X487444Y-425810D01*
X476638Y-494089D02*
X487444Y-483283D01*
X474838Y-488705D02*
X487444Y-476099D01*
X477279Y-500633D02*
X487444Y-490468D01*
X472210Y-484149D02*
X487444Y-468915D01*
X470888Y-482445D02*
X487444Y-499000D01*
X484594Y-543607D02*
X499069Y-529132D01*
X477410Y-543607D02*
X494799Y-526217D01*
X522462Y-526835D02*
X539234Y-543607D01*
X473527Y-513820D02*
X503314Y-543607D01*
X470514Y-517991D02*
X496130Y-543607D01*
X475793Y-508902D02*
X510499Y-543607D01*
X512525Y-531266D02*
X524867Y-543607D01*
X505314Y-531239D02*
X517683Y-543607D01*
X518021Y-529577D02*
X532051Y-543607D01*
X491778D02*
X504339Y-531046D01*
X498962Y-543607D02*
X511118Y-531452D01*
X466822Y-521483D02*
X488946Y-543607D01*
X463041D02*
X488889Y-517760D01*
X470225Y-543607D02*
X491395Y-522438D01*
X455857Y-543607D02*
X487531Y-511933D01*
X448673Y-543607D02*
X487444Y-504836D01*
X462440Y-524285D02*
X481762Y-543607D01*
X451052Y-527266D02*
X467393Y-543607D01*
X442965Y-526364D02*
X460209Y-543607D01*
X457270Y-526300D02*
X474577Y-543607D01*
X434304D02*
X450633Y-527279D01*
X441489Y-543607D02*
X459527Y-525569D01*
X25958Y-267409D02*
X302156Y-543607D01*
X19336Y-267971D02*
X294972Y-543607D01*
X32415Y-266681D02*
X309341Y-543607D01*
X-24125Y-267616D02*
X251867Y-543607D01*
X-32221Y-266703D02*
X244683Y-543607D01*
X-16421Y-268135D02*
X259051Y-543607D01*
X5630Y-268634D02*
X280604Y-543607D01*
X12534Y-268353D02*
X287788Y-543607D01*
X-8809Y-268562D02*
X266235Y-543607D01*
X-1554Y-268634D02*
X273420Y-543607D01*
X52596Y-263538D02*
X66957Y-260260D01*
X37737Y-266072D02*
X52259Y-263605D01*
X-40507Y-265601D02*
X237498Y-543607D01*
X-52259Y-263605D02*
X-37737Y-266072D01*
X-66957Y-260260D02*
X-52596Y-263538D01*
X-49162Y-264131D02*
X230314Y-543607D01*
X22759Y-267769D02*
X37396Y-266120D01*
X7709Y-268624D02*
X22416Y-267798D01*
X-7365Y-268634D02*
X7365D01*
X-37396Y-266120D02*
X-22759Y-267769D01*
X-22416Y-267798D02*
X-7709Y-268624D01*
X369646Y-543607D02*
X425737Y-487517D01*
X384015Y-543607D02*
X423093Y-504529D01*
X391199Y-543607D02*
X424668Y-510139D01*
X348094Y-543607D02*
X488567Y-403135D01*
X355278Y-543607D02*
X487444Y-411441D01*
X362462Y-543607D02*
X487444Y-418625D01*
X419936Y-543607D02*
X438705Y-524838D01*
X412752Y-543607D02*
X434149Y-522210D01*
X427120Y-543607D02*
X444089Y-526638D01*
X398383Y-543607D02*
X427121Y-514869D01*
X405568Y-543607D02*
X430298Y-518877D01*
X74205Y-258182D02*
X359630Y-543607D01*
X68627Y-259789D02*
X352446Y-543607D01*
X79782Y-256575D02*
X366814Y-543607D01*
X-58224Y-262253D02*
X223130Y-543607D01*
X-67567Y-260094D02*
X215946Y-543607D01*
X62851Y-261197D02*
X345262Y-543607D01*
X57002Y-262532D02*
X338078Y-543607D01*
X51089Y-263803D02*
X330893Y-543607D01*
X376831D02*
X422818Y-497620D01*
X38808Y-265890D02*
X316525Y-543607D01*
X44949Y-264847D02*
X323709Y-543607D01*
X-160482Y528344D02*
X-145218Y543607D01*
X-167217D02*
X-151954Y528344D01*
X-160033Y543607D02*
X-144769Y528344D01*
X-174401Y543607D02*
X-159138Y528344D01*
X-174850D02*
X-159587Y543607D01*
X-167666Y528344D02*
X-152402Y543607D01*
X-81455Y528344D02*
X-66192Y543607D01*
X-88191D02*
X-72927Y528344D01*
X-81006Y543607D02*
X-65743Y528344D01*
X-95375Y543607D02*
X-80112Y528344D01*
X-95824D02*
X-80560Y543607D01*
X-88639Y528344D02*
X-73376Y543607D01*
X-203138D02*
X-187875Y528344D01*
X-203587D02*
X-188324Y543607D01*
X-196403Y528344D02*
X-181139Y543607D01*
X-210771Y528344D02*
X-195508Y543607D01*
X-217507D02*
X-202243Y528344D01*
X-210322Y543607D02*
X-195059Y528344D01*
X-182034D02*
X-166771Y543607D01*
X-188770D02*
X-173506Y528344D01*
X-181585Y543607D02*
X-166322Y528344D01*
X-195954Y543607D02*
X-180690Y528344D01*
X-189219D02*
X-173955Y543607D01*
X-103008Y528344D02*
X-87745Y543607D01*
X-109743D02*
X-94480Y528344D01*
X-102559Y543607D02*
X-87296Y528344D01*
X-110192D02*
X-94929Y543607D01*
X-116927D02*
X-101664Y528344D01*
X-209725Y463984D02*
X-14012Y268270D01*
X-180989Y463984D02*
X14768Y268228D01*
X-188173Y463984D02*
X7178Y268634D01*
X-166620Y463984D02*
X30463Y266901D01*
X-202541Y463984D02*
X-7191Y268634D01*
X-195357Y463984D02*
X-7Y268634D01*
X-138929Y528344D02*
X-123666Y543607D01*
X-145664D02*
X-130401Y528344D01*
X-138480Y543607D02*
X-123217Y528344D01*
X-152849Y543607D02*
X-137585Y528344D01*
X-153298D02*
X-138034Y543607D01*
X-146113Y528344D02*
X-130850Y543607D01*
X-124112D02*
X-108848Y528344D01*
X-124561D02*
X-109297Y543607D01*
X-117376Y528344D02*
X-102113Y543607D01*
X-131745Y528344D02*
X-116482Y543607D01*
X-131296D02*
X-116033Y528344D01*
X-382743Y543607D02*
X-91666Y252530D01*
X-217955Y528344D02*
X-202692Y543607D01*
X-389928D02*
X-96936Y250615D01*
X-397112Y543607D02*
X-102015Y248511D01*
X-404296Y543607D02*
X-107095Y246407D01*
X-411480Y543607D02*
X-112066Y244193D01*
X-281016Y528344D02*
X281016D01*
X-361191Y543607D02*
X-75416Y257833D01*
X-368375Y543607D02*
X-80994Y256226D01*
X-543607Y543607D02*
X543607D01*
X-375559D02*
X-86344Y254392D01*
X-246243Y543607D02*
X-230980Y528344D01*
X-246692D02*
X-231429Y543607D01*
X-239508Y528344D02*
X-224245Y543607D01*
X-253876Y528344D02*
X-238613Y543607D01*
X-260612D02*
X-245348Y528344D01*
X-253428Y543607D02*
X-238164Y528344D01*
X-225140D02*
X-209876Y543607D01*
X-231875D02*
X-216612Y528344D01*
X-224691Y543607D02*
X-209427Y528344D01*
X-239059Y543607D02*
X-223796Y528344D01*
X-232324D02*
X-217060Y543607D01*
X-418664D02*
X-116915Y241858D01*
X-425849Y543607D02*
X-121764Y239523D01*
X-433033Y543607D02*
X-126463Y237038D01*
X-440217Y543607D02*
X-131090Y234481D01*
X-447401Y543607D02*
X-135717Y231923D01*
X-454585Y543607D02*
X-140168Y229189D01*
X-423179Y505017D02*
X-144580Y226417D01*
X-422830Y497484D02*
X-148991Y223645D01*
X-424062Y491531D02*
X-153209Y220678D01*
X-426261Y486546D02*
X-157411Y217696D01*
X-429218Y482319D02*
X-161591Y214692D01*
X-432856Y478773D02*
X-165610Y211526D01*
X-437181Y475913D02*
X-169607Y208339D01*
X-487444Y475888D02*
X-195706Y184150D01*
X-487444Y497439D02*
X-184955Y194951D01*
X-487444Y490255D02*
X-188547Y191358D01*
X-487444Y483071D02*
X-192139Y187766D01*
X-442281Y473829D02*
X-173592Y205140D01*
X-448397Y472761D02*
X-177386Y201750D01*
X-456263Y473442D02*
X-181180Y198360D01*
X-487444Y468704D02*
X-199096Y180356D01*
X-543607Y159587D02*
X-239210Y463984D01*
X-137883D02*
X65511Y260590D01*
X-145068Y463984D02*
X56202Y262715D01*
X-130699Y463984D02*
X75467Y257818D01*
X-159436Y463984D02*
X38628Y265921D01*
X-173804Y463984D02*
X22379Y267800D01*
X-152252Y463984D02*
X47282Y264450D01*
X-80403Y256396D02*
X127185Y463984D01*
X-91340Y252644D02*
X120001Y463984D01*
X-103110Y248058D02*
X112816Y463984D01*
X-116331D02*
X97111Y250543D01*
X-123515Y463984D02*
X85934Y254535D01*
X-109146Y463984D02*
X109375Y245462D01*
X-231278Y463984D02*
X-33817Y266523D01*
X-238462Y463984D02*
X-40142Y265663D01*
X-245646Y463984D02*
X-46283Y264620D01*
X-252831Y463984D02*
X-52398Y263552D01*
X-260015Y463984D02*
X-58273Y262242D01*
X-267199Y463984D02*
X-64122Y260907D01*
X-81445Y256096D02*
X-67290Y260174D01*
X-95676Y251126D02*
X-81772Y255991D01*
X-109606Y245367D02*
X-95997Y251004D01*
X-216910Y463984D02*
X-20814Y267888D01*
X-224094Y463984D02*
X-27361Y267251D01*
X-101962Y463984D02*
X123182Y238840D01*
X-116103Y242249D02*
X105632Y463984D01*
X-94778D02*
X139762Y229445D01*
X-131012Y234524D02*
X98448Y463984D01*
X-149312Y223408D02*
X91264Y463984D01*
X-184741Y195163D02*
X84080Y463984D01*
X-123191Y238835D02*
X-109920Y245226D01*
X-136389Y231552D02*
X-123497Y238677D01*
X-87594Y463984D02*
X161928Y214462D01*
X-149158Y223540D02*
X-136686Y231377D01*
X-161457Y214825D02*
X-149444Y223349D01*
X-173249Y205434D02*
X-161732Y214618D01*
X-184495Y195397D02*
X-173512Y205212D01*
X-195161Y184745D02*
X-184745Y195161D01*
X-195163Y184741D02*
X-184741Y195163D01*
X-205212Y173512D02*
X-195397Y184495D01*
X-214618Y161732D02*
X-205434Y173249D01*
X-223349Y149444D02*
X-214825Y161457D01*
X-231377Y136686D02*
X-223540Y149158D01*
X-238677Y123497D02*
X-231552Y136389D01*
X-245226Y109920D02*
X-238835Y123191D01*
X-251004Y95997D02*
X-245367Y109606D01*
X-281016Y463984D02*
X281016D01*
X-274383D02*
X-69839Y259440D01*
X-543607Y116482D02*
X-196105Y463984D01*
X-543607Y130850D02*
X-210473Y463984D01*
X-543607Y138034D02*
X-217657Y463984D01*
X-543607Y123666D02*
X-203289Y463984D01*
X-487444Y447151D02*
X-209031Y168738D01*
X-487444Y439967D02*
X-212219Y164741D01*
X-487444Y432783D02*
X-215362Y160701D01*
X-487444Y461520D02*
X-202486Y176562D01*
X-487444Y454335D02*
X-205844Y172735D01*
X-487444Y425598D02*
X-218344Y156498D01*
X-487444Y418414D02*
X-221326Y152296D01*
X-487444Y411230D02*
X-224247Y148033D01*
X-543607Y145218D02*
X-224842Y463984D01*
X-543607Y152402D02*
X-232026Y463984D01*
X-488104Y404706D02*
X-227019Y143621D01*
X-490141Y399559D02*
X-229792Y139209D01*
X-493153Y395387D02*
X-232479Y134712D01*
X-497026Y392075D02*
X-235036Y130085D01*
X-501813Y389678D02*
X-237593Y125458D01*
X-507797Y388478D02*
X-240030Y120711D01*
X-543607Y15903D02*
X-95526Y463984D01*
X-543607Y23087D02*
X-102710Y463984D01*
X-543607Y8718D02*
X-88342Y463984D01*
X-543607Y37455D02*
X-117078Y463984D01*
X-543607Y44639D02*
X-124263Y463984D01*
X-543607Y30271D02*
X-109894Y463984D01*
X-543607Y-20018D02*
X-59605Y463984D01*
X-543607Y-12834D02*
X-66789Y463984D01*
X-543607Y-27203D02*
X-52421Y463984D01*
X-543607Y1534D02*
X-81157Y463984D01*
X-543607Y-5650D02*
X-73973Y463984D01*
X-543607Y80560D02*
X-160184Y463984D01*
X-543607Y87745D02*
X-167368Y463984D01*
X-543607Y73376D02*
X-152999Y463984D01*
X-543607Y102113D02*
X-181736Y463984D01*
X-543607Y109297D02*
X-188920Y463984D01*
X-543607Y94929D02*
X-174552Y463984D01*
X-543607Y59008D02*
X-138631Y463984D01*
X-516177Y389674D02*
X-242365Y115862D01*
X-543607Y51824D02*
X-131447Y463984D01*
X-543607Y409920D02*
X-244700Y111013D01*
X-543607Y66192D02*
X-145815Y463984D01*
X-289349Y543607D02*
X-274085Y528344D01*
X-296533Y543607D02*
X-281016Y528090D01*
X-303717Y543607D02*
X-281016Y520906D01*
X-429477Y517981D02*
X-403850Y543607D01*
X-433167Y521475D02*
X-411034Y543607D01*
X-426465Y513808D02*
X-396666Y543607D01*
X-267796D02*
X-252533Y528344D01*
X-268245D02*
X-252981Y543607D01*
X-261061Y528344D02*
X-245797Y543607D01*
X-275429Y528344D02*
X-260166Y543607D01*
X-282164D02*
X-266901Y528344D01*
X-274980Y543607D02*
X-259717Y528344D01*
X-468954Y543607D02*
X-452516Y527170D01*
X-476138Y543607D02*
X-458469Y525938D01*
X-483322Y543607D02*
X-463454Y523739D01*
X-490507Y543607D02*
X-467681Y520782D01*
X-490709Y521406D02*
X-468508Y543607D01*
X-488443Y516488D02*
X-461324Y543607D01*
X-442715Y526295D02*
X-425403Y543607D01*
X-448929Y527265D02*
X-432587Y543607D01*
X-437547Y524279D02*
X-418218Y543607D01*
X-461770D02*
X-444983Y526821D01*
X-457007Y526371D02*
X-439771Y543607D01*
X-318085D02*
X-281016Y506538D01*
X-310901Y543607D02*
X-281016Y513722D01*
X-325270Y543607D02*
X-281016Y499353D01*
X-487446Y409722D02*
X-353560Y543607D01*
X-487444Y416908D02*
X-360745Y543607D01*
X-489818Y400165D02*
X-346376Y543607D01*
X-339638D02*
X-281016Y484985D01*
X-332454Y543607D02*
X-281016Y492169D01*
Y463984D02*
Y528344D01*
X-346822Y543607D02*
X-281016Y477801D01*
X-354007Y543607D02*
X-281016Y470617D01*
X-422882Y503023D02*
X-382297Y543607D01*
X-424202Y508887D02*
X-389482Y543607D01*
X-423062Y495659D02*
X-375113Y543607D01*
X-487444Y503119D02*
X-446955Y543607D01*
X-487446Y510301D02*
X-454139Y543607D01*
X-429221Y482315D02*
X-367929Y543607D01*
X-487444Y495934D02*
X-476371Y507007D01*
X-487444Y504624D02*
X-476558Y493737D01*
X-487527Y511891D02*
X-477239Y501603D01*
X-487444Y410000D02*
Y510000D01*
X-502972Y530696D02*
X-490061Y543607D01*
X-509298Y531554D02*
X-497245Y543607D01*
X-497966Y528518D02*
X-482876Y543607D01*
X-518875Y529161D02*
X-504429Y543607D01*
X-519243D02*
X-507109Y531473D01*
X-543607Y511613D02*
X-511613Y543607D01*
X-497691D02*
X-471227Y517144D01*
X-493908Y525391D02*
X-475692Y543607D01*
X-504875D02*
X-474087Y512819D01*
X-512059Y543607D02*
X-476171Y507719D01*
X-533612Y543607D02*
X-519066Y529062D01*
X-540796Y543607D02*
X-523310Y526121D01*
X-543607Y518797D02*
X-518797Y543607D01*
X-543607Y533166D02*
X-533166Y543607D01*
X-543607Y540350D02*
X-540350Y543607D01*
X-543607Y525981D02*
X-525981Y543607D01*
X-526428D02*
X-513829Y531008D01*
X-543607Y524867D02*
X-530485Y511745D01*
X-543607Y517683D02*
X-530556Y504632D01*
X-543607Y539234D02*
X-526690Y522317D01*
X-543607Y532051D02*
X-529168Y517611D01*
X-543607Y281718D02*
X-281718Y543607D01*
X-543607Y288903D02*
X-288902Y543607D01*
X-543607Y274534D02*
X-274534Y543607D01*
X-543607Y303271D02*
X-303271Y543607D01*
X-543607Y310455D02*
X-310455Y543607D01*
X-543607Y296087D02*
X-296087Y543607D01*
X-543607Y245797D02*
X-281016Y508389D01*
X-543607Y252981D02*
X-281016Y515573D01*
X-543607Y238613D02*
X-281016Y501204D01*
X-543607Y267350D02*
X-267350Y543607D01*
X-543607Y260166D02*
X-281016Y522757D01*
X-543607Y324824D02*
X-324824Y543607D01*
X-543607Y317639D02*
X-317639Y543607D01*
X-543607Y339192D02*
X-339192Y543607D01*
X-543607Y504429D02*
X-528161Y519875D01*
X-543607Y332008D02*
X-332008Y543607D01*
X-543607Y490061D02*
X-530556Y503112D01*
X-543607Y503314D02*
X-530556Y490263D01*
Y410000D02*
Y510000D01*
X-543607Y510499D02*
X-530556Y497447D01*
X-543607Y497245D02*
X-530554Y510298D01*
X-487444Y438461D02*
X-453023Y472882D01*
X-487444Y445645D02*
X-458887Y474202D01*
X-487444Y431276D02*
X-445659Y473062D01*
X-487444Y452829D02*
X-463808Y476465D01*
X-487444Y460013D02*
X-467981Y479477D01*
X-487444Y424092D02*
X-432315Y479221D01*
X-543607Y181139D02*
X-260763Y463984D01*
X-543607Y188324D02*
X-267947Y463984D01*
X-543607Y173955D02*
X-253578Y463984D01*
X-543607Y202692D02*
X-281016Y465283D01*
X-543607Y195508D02*
X-275131Y463984D01*
X-487444Y474382D02*
X-474279Y487547D01*
X-487444Y481566D02*
X-476295Y492715D01*
X-487444Y467197D02*
X-471475Y483167D01*
X-487444Y488750D02*
X-477265Y498929D01*
X-543607Y353560D02*
X-508722Y388446D01*
X-543607Y360745D02*
X-515043Y389309D01*
X-543607Y346376D02*
X-499165Y390818D01*
X-543607Y345262D02*
X-261197Y62851D01*
X-543607Y323709D02*
X-264847Y44949D01*
X-543607Y244683D02*
X-266703Y-32221D01*
X-543607Y166771D02*
X-246394Y463984D01*
X-543607Y359630D02*
X-258182Y74205D01*
X-543607Y352446D02*
X-259789Y68627D01*
X-255991Y81772D02*
X-251126Y95676D01*
X-260174Y67290D02*
X-256096Y81445D01*
X-263538Y52596D02*
X-260260Y66957D01*
X-266072Y37737D02*
X-263605Y52259D01*
X-267769Y22759D02*
X-266120Y37396D01*
X-543607Y266235D02*
X-268562Y-8809D01*
X-543607Y273420D02*
X-268634Y-1554D01*
X-543607Y259051D02*
X-268135Y-16421D01*
X-543607Y294972D02*
X-267971Y19336D01*
X-543607Y287788D02*
X-268353Y12534D01*
X-543607Y280604D02*
X-268634Y5630D01*
X-268624Y7709D02*
X-267798Y22416D01*
X-268634Y-7365D02*
Y0D01*
X-268624Y-7709D02*
X-267798Y-22416D01*
X-268634Y0D02*
Y7365D01*
X-543607Y251867D02*
X-267616Y-24125D01*
X-543607Y432587D02*
X-530556Y445638D01*
X-543607Y445841D02*
X-530556Y432789D01*
X-543607Y438657D02*
X-530556Y425605D01*
X-543607Y453025D02*
X-530556Y439974D01*
X-543607Y446955D02*
X-530556Y460006D01*
X-543607Y439771D02*
X-530556Y452822D01*
X-543607Y424288D02*
X-530556Y411237D01*
X-543607Y418218D02*
X-530556Y431270D01*
X-543607Y411034D02*
X-530556Y424085D01*
X-543607Y425403D02*
X-530556Y438454D01*
X-543607Y431472D02*
X-530556Y418421D01*
X-543607Y481762D02*
X-530556Y468711D01*
X-543607Y475692D02*
X-530556Y488743D01*
X-543607Y468508D02*
X-530556Y481559D01*
X-543607Y482876D02*
X-530556Y495928D01*
X-543607Y496130D02*
X-530556Y483079D01*
X-543607Y488946D02*
X-530556Y475895D01*
X-543607Y454139D02*
X-530556Y467191D01*
X-543607Y467393D02*
X-530556Y454342D01*
X-543607Y460209D02*
X-530556Y447158D01*
X-543607Y474577D02*
X-530556Y461526D01*
X-543607Y461324D02*
X-530556Y474375D01*
X-543607Y381183D02*
X-252934Y90510D01*
X-543607Y373999D02*
X-254797Y85188D01*
X-543607Y366814D02*
X-256575Y79782D01*
X-543607Y402735D02*
X-246864Y105992D01*
X-543607Y395551D02*
X-248968Y100912D01*
X-543607Y388367D02*
X-251049Y95808D01*
X-543607Y316525D02*
X-265890Y38808D01*
X-543607Y309341D02*
X-266681Y32415D01*
X-543607Y302156D02*
X-267409Y25958D01*
X-543607Y338078D02*
X-262532Y57002D01*
X-543607Y330893D02*
X-263803Y51089D01*
X-543607Y217060D02*
X-281016Y479652D01*
X-543607Y224245D02*
X-281016Y486836D01*
X-543607Y209876D02*
X-281016Y472468D01*
X-543607Y417104D02*
X-529326Y402822D01*
X-543607Y403850D02*
X-530556Y416901D01*
X-543607Y231429D02*
X-281016Y494020D01*
X-543607Y375113D02*
X-524102Y394618D01*
X-543607Y382297D02*
X-527299Y398606D01*
X-543607Y367929D02*
X-520047Y391490D01*
X-543607Y396666D02*
X-530554Y409719D01*
X-543607Y389482D02*
X-529561Y403527D01*
X-80409Y463984D02*
X543607Y-160033D01*
X-543607Y-78607D02*
X-78607Y-543607D01*
X-543607Y-85791D02*
X-85791Y-543607D01*
X-543607Y-149334D02*
X69711Y463984D01*
X-543607Y-64238D02*
X-64238Y-543607D01*
X-543607Y-71423D02*
X-71423Y-543607D01*
X-543607Y-114528D02*
X-114528Y-543607D01*
X-543607Y-121712D02*
X-121712Y-543607D01*
X-543607Y-128896D02*
X-128896Y-543607D01*
X-543607Y-92975D02*
X-92975Y-543607D01*
X-543607Y-100160D02*
X-100159Y-543607D01*
X-543607Y-107344D02*
X-107344Y-543607D01*
X-223349Y-149444D02*
X-214825Y-161457D01*
X-231377Y-136686D02*
X-223540Y-149158D01*
X-487456Y-409288D02*
X-225001Y-146833D01*
X-543607Y-136081D02*
X-136081Y-543607D01*
X-488546Y-403195D02*
X-227773Y-142421D01*
X-543607Y-143265D02*
X-143265Y-543607D01*
X-214618Y-161732D02*
X-205434Y-173249D01*
X-487444Y-423645D02*
X-219155Y-155356D01*
X-487444Y-430829D02*
X-216173Y-159558D01*
X-487444Y-416461D02*
X-222136Y-151153D01*
X-543607Y-150449D02*
X-150449Y-543607D01*
X-118880D02*
X543607Y118880D01*
X-126064Y-543607D02*
X543607Y126064D01*
X-111696Y-543607D02*
X543607Y111696D01*
X-140433Y-543607D02*
X543607Y140433D01*
X-147617Y-543607D02*
X543607Y147617D01*
X-133248Y-543607D02*
X543607Y133249D01*
X-82959Y-543607D02*
X543607Y82959D01*
X-90143Y-543607D02*
X543607Y90143D01*
X-75775Y-543607D02*
X543607Y75775D01*
X-104512Y-543607D02*
X543607Y104512D01*
X-97327Y-543607D02*
X543607Y97327D01*
X-161985Y-543607D02*
X543607Y161985D01*
X-543607Y-28317D02*
X-28317Y-543607D01*
X-154801D02*
X543607Y154801D01*
X-543607Y-6765D02*
X-6765Y-543607D01*
X-543607Y-13949D02*
X-13949Y-543607D01*
X-543607Y-21133D02*
X-21133Y-543607D01*
X-543607Y-49870D02*
X-49870Y-543607D01*
X-543607Y-57054D02*
X-57054Y-543607D01*
X-543607Y-157633D02*
X-157633Y-543607D01*
X-543607Y-35502D02*
X-35501Y-543607D01*
X-543607Y-42686D02*
X-42686Y-543607D01*
X-543607Y-113413D02*
X33790Y463984D01*
X-543607Y-106229D02*
X26606Y463984D01*
X-543607Y-120597D02*
X40974Y463984D01*
X-543607Y-91861D02*
X12237Y463984D01*
X-543607Y-84676D02*
X5053Y463984D01*
X-543607Y-99045D02*
X19422Y463984D01*
X-543607Y-142150D02*
X62527Y463984D01*
X-543607Y-134966D02*
X55343Y463984D01*
X-543607Y-156519D02*
X76895Y463984D01*
X-543607Y-127782D02*
X48158Y463984D01*
X-543607Y151288D02*
X151288Y-543607D01*
X-543607Y-63124D02*
X-16499Y463984D01*
X-543607Y-55940D02*
X-23684Y463984D01*
X-543607Y-70308D02*
X-9315Y463984D01*
X-543607Y-41571D02*
X-38052Y463984D01*
X-543607Y-34387D02*
X-45236Y463984D01*
X-543607Y-48755D02*
X-30868Y463984D01*
X-543607Y-77492D02*
X-2131Y463984D01*
X-543607Y-163703D02*
X-195163Y184741D01*
X-543607Y-170887D02*
X-223408Y149312D01*
X-543607Y172841D02*
X-226806Y-143961D01*
X-543607Y165656D02*
X-208318Y-169633D01*
X-543607Y129735D02*
X129735Y-543607D01*
X-543607Y122551D02*
X122551Y-543607D01*
X-543607Y115367D02*
X115367Y-543607D01*
X-543607Y158472D02*
X158472Y-543607D01*
X-543607Y144104D02*
X144104Y-543607D01*
X-543607Y136919D02*
X136920Y-543607D01*
X-543607Y93814D02*
X93814Y-543607D01*
X-543607Y86630D02*
X86630Y-543607D01*
X-543607Y79446D02*
X79446Y-543607D01*
X-543607Y108183D02*
X108183Y-543607D01*
X-543607Y100998D02*
X100998Y-543607D01*
X-543607Y50709D02*
X50709Y-543607D01*
X-543607Y43525D02*
X43525Y-543607D01*
X-543607Y36341D02*
X36341Y-543607D01*
X-543607Y72262D02*
X72262Y-543607D01*
X-543607Y65077D02*
X65077Y-543607D01*
X-543607Y57893D02*
X57893Y-543607D01*
X-543607Y14788D02*
X14788Y-543607D01*
X-543607Y7604D02*
X7604Y-543607D01*
X-543607Y419D02*
X419Y-543607D01*
X-543607Y29156D02*
X29156Y-543607D01*
X-543607Y21972D02*
X21972Y-543607D01*
X-212275D02*
X72724Y-258608D01*
X-219459Y-543607D02*
X62981Y-261167D01*
X-205091Y-543607D02*
X82930Y-255586D01*
X-233827Y-543607D02*
X44930Y-264850D01*
X-241012Y-543607D02*
X36359Y-266237D01*
X-226643Y-543607D02*
X53672Y-263292D01*
X-255380Y-543607D02*
X20311Y-267917D01*
X-262564Y-543607D02*
X12699Y-268344D01*
X-248196Y-543607D02*
X28262Y-267149D01*
X-276933Y-543607D02*
X-1959Y-268634D01*
X-284117Y-543607D02*
X-9058Y-268548D01*
X-269748Y-543607D02*
X5225Y-268634D01*
X-161457Y-214825D02*
X-149444Y-223349D01*
X-173249Y-205434D02*
X-161732Y-214618D01*
X-149158Y-223540D02*
X-136686Y-231377D01*
X-195161Y-184745D02*
X-184745Y-195161D01*
X-205212Y-173512D02*
X-195397Y-184495D01*
X-184495Y-195397D02*
X-173512Y-205212D01*
X-95676Y-251126D02*
X-81772Y-255991D01*
X-109606Y-245367D02*
X-95997Y-251004D01*
X-81445Y-256096D02*
X-67290Y-260174D01*
X-136389Y-231552D02*
X-123497Y-238677D01*
X-123191Y-238835D02*
X-109920Y-245226D01*
X-143961Y-226806D02*
X172841Y-543607D01*
X-169170D02*
X155106Y-219332D01*
X-126645Y-236938D02*
X180025Y-543607D01*
X-176354D02*
X134852Y-232402D01*
X-183538Y-543607D02*
X119416Y-240653D01*
X-169633Y-208318D02*
X165656Y-543607D01*
X-88334Y-253695D02*
X201577Y-543607D01*
X-99775Y-249439D02*
X194393Y-543607D01*
X-77659Y-257187D02*
X208762Y-543607D01*
X-190722D02*
X106042Y-246843D01*
X-112335Y-244064D02*
X187209Y-543607D01*
X-327222D02*
X-47951Y-264336D01*
X-334406Y-543607D02*
X-54013Y-263214D01*
X-197906Y-543607D02*
X93982Y-251719D01*
X-348775Y-543607D02*
X-65712Y-260544D01*
X-355959Y-543607D02*
X-71355Y-259003D01*
X-341591Y-543607D02*
X-59862Y-261879D01*
X-298485Y-543607D02*
X-22637Y-267759D01*
X-305669Y-543607D02*
X-29115Y-267053D01*
X-291301Y-543607D02*
X-15860Y-268166D01*
X-320038Y-543607D02*
X-41810Y-265380D01*
X-312854Y-543607D02*
X-35572Y-266326D01*
X-433961Y-477925D02*
X-166696Y-210660D01*
X-438484Y-475263D02*
X-170693Y-207473D01*
X-430140Y-481289D02*
X-162699Y-213847D01*
X-443826Y-473422D02*
X-174623Y-204219D01*
X-450304Y-472716D02*
X-178417Y-200828D01*
X-459021Y-474249D02*
X-182211Y-197438D01*
X-423047Y-495748D02*
X-150148Y-222849D01*
X-424576Y-490093D02*
X-154351Y-219868D01*
X-422852Y-502737D02*
X-145779Y-225664D01*
X-426995Y-485327D02*
X-158553Y-216886D01*
X-426105Y-513175D02*
X-141367Y-228436D01*
X-487444Y-466750D02*
X-200018Y-179324D01*
X-487444Y-459566D02*
X-203408Y-175530D01*
X-487444Y-473934D02*
X-196628Y-183118D01*
X-487444Y-445197D02*
X-209898Y-167652D01*
X-487444Y-438013D02*
X-213085Y-163655D01*
X-487444Y-452382D02*
X-206711Y-171648D01*
X-487444Y-488303D02*
X-189523Y-190382D01*
X-487444Y-488303D02*
X-189523Y-190382D01*
X-487444Y-495487D02*
X-185931Y-193974D01*
X-487444Y-481119D02*
X-193116Y-186790D01*
X-543607Y-186370D02*
X-186370Y-543607D01*
X-399064D02*
X-103396Y-247939D01*
X-406249Y-543607D02*
X-108476Y-245835D01*
X-391880Y-543607D02*
X-98316Y-250043D01*
X-420617Y-543607D02*
X-118233Y-241223D01*
X-427801Y-543607D02*
X-123082Y-238888D01*
X-413433Y-543607D02*
X-113384Y-243558D01*
X-370327Y-543607D02*
X-82468Y-255748D01*
X-377512Y-543607D02*
X-87790Y-253886D01*
X-363143Y-543607D02*
X-76932Y-257396D01*
X-543607Y-543607D02*
X543607D01*
X-384696D02*
X-93112Y-252024D01*
X-543607Y-193554D02*
X-193554Y-543607D01*
X-543607Y-200739D02*
X-200738Y-543607D01*
X-543607Y-207923D02*
X-207923Y-543607D01*
X-543607Y-164817D02*
X-164817Y-543607D01*
X-543607Y-172002D02*
X-172002Y-543607D01*
X-543607Y-179186D02*
X-179186Y-543607D01*
X-442169D02*
X-132348Y-233786D01*
X-449354Y-543607D02*
X-136955Y-231208D01*
X-434985Y-543607D02*
X-127721Y-236343D01*
X-543607Y-215107D02*
X-215107Y-543607D01*
X-543607Y-222291D02*
X-222291Y-543607D01*
X-251004Y-95997D02*
X-245367Y-109606D01*
X-255991Y-81772D02*
X-251126Y-95676D01*
X-245226Y-109920D02*
X-238835Y-123191D01*
X-543607Y-386413D02*
X-251578Y-94384D01*
X-543607Y-379229D02*
X-253441Y-89062D01*
X-543607Y-393597D02*
X-249540Y-99531D01*
X-238677Y-123497D02*
X-231552Y-136389D01*
X-498231Y-391327D02*
X-235732Y-128827D01*
X-494122Y-394402D02*
X-233174Y-133454D01*
X-503300Y-389211D02*
X-238289Y-124200D01*
X-509729Y-388456D02*
X-240665Y-119392D01*
X-519804Y-391347D02*
X-243000Y-114543D01*
X-263538Y-52596D02*
X-260260Y-66957D01*
X-266072Y-37737D02*
X-263605Y-52259D01*
X-260174Y-67290D02*
X-256096Y-81445D01*
X-543607Y-364861D02*
X-257012Y-78265D01*
X-267769Y-22759D02*
X-266120Y-37396D01*
X-543607Y-372045D02*
X-255303Y-83741D01*
X-543607Y-365975D02*
X-518788Y-390794D01*
X-543607Y-373160D02*
X-523085Y-393682D01*
X-543607Y-380344D02*
X-526516Y-397435D01*
X-543607Y-351607D02*
X-506641Y-388573D01*
X-543607Y-358791D02*
X-513483Y-388915D01*
X-490872Y-398336D02*
X-230545Y-138010D01*
X-543607Y-400782D02*
X-247436Y-104611D01*
X-543607Y-407966D02*
X-245319Y-109678D01*
X-543607Y-286949D02*
X-286949Y-543607D01*
X-543607Y-294133D02*
X-294133Y-543607D01*
X-543607Y-301317D02*
X-301317Y-543607D01*
X-543607Y-322870D02*
X-322870Y-543607D01*
X-543607Y-330054D02*
X-330054Y-543607D01*
X-543607Y-337239D02*
X-337238Y-543607D01*
X-543607Y-308502D02*
X-308502Y-543607D01*
X-543607Y-315686D02*
X-315686Y-543607D01*
X-543607Y-415150D02*
X-527653Y-399196D01*
X-543607Y-387528D02*
X-529050Y-402085D01*
X-543607Y-394712D02*
X-530450Y-407869D01*
X-543607Y-344423D02*
X-344423Y-543607D01*
X-543607Y-422334D02*
X-530544Y-409271D01*
X-530556Y-510000D02*
Y-410000D01*
X-487574Y-407641D02*
X-351607Y-543607D01*
X-543607Y-401896D02*
X-530556Y-414948D01*
X-543607Y-409081D02*
X-530556Y-422132D01*
X-543607Y180025D02*
X-236938Y-126645D01*
X-543607Y187209D02*
X-244064Y-112335D01*
X-543607Y-178071D02*
X-234524Y131012D01*
X-543607Y201577D02*
X-253695Y-88334D01*
X-543607Y208762D02*
X-257187Y-77659D01*
X-543607Y194393D02*
X-249439Y-99775D01*
X-543607Y-199624D02*
X-252644Y91340D01*
X-543607Y-206808D02*
X-256396Y80403D01*
X-543607Y-213992D02*
X-259303Y70312D01*
X-543607Y-185255D02*
X-242249Y116103D01*
X-543607Y-192440D02*
X-248058Y103110D01*
X-543607Y215946D02*
X-260094Y-67567D01*
X-543607Y-221176D02*
X-261675Y60756D01*
X-543607Y-228361D02*
X-263731Y51516D01*
X-543607Y230314D02*
X-264131Y-49162D01*
X-543607Y237498D02*
X-265601Y-40507D01*
X-543607Y223130D02*
X-262253Y-58224D01*
X-543607Y-249913D02*
X-267367Y26326D01*
X-543607Y-257097D02*
X-268019Y18491D01*
X-543607Y-264282D02*
X-268446Y10879D01*
X-543607Y-235545D02*
X-265201Y42861D01*
X-543607Y-242729D02*
X-266455Y34423D01*
X-543607Y-350492D02*
X-260202Y-67087D01*
X-543607Y-343308D02*
X-261560Y-61261D01*
X-543607Y-357677D02*
X-258619Y-72688D01*
X-543607Y-328940D02*
X-264087Y-49419D01*
X-543607Y-321755D02*
X-265131Y-43279D01*
X-543607Y-336124D02*
X-262895Y-55412D01*
X-543607Y-243844D02*
X-243844Y-543607D01*
X-543607Y-251028D02*
X-251028Y-543607D01*
X-543607Y-258212D02*
X-258212Y-543607D01*
X-543607Y-229475D02*
X-229475Y-543607D01*
X-543607Y-236660D02*
X-236660Y-543607D01*
X-543607Y-293019D02*
X-268075Y-17486D01*
X-543607Y-285834D02*
X-268457Y-10684D01*
X-543607Y-300203D02*
X-267607Y-24202D01*
X-543607Y-278650D02*
X-268634Y-3677D01*
X-543607Y-271466D02*
X-268634Y3507D01*
X-543607Y543607D02*
X-543607Y-543607D01*
X-543607Y-265396D02*
X-265396Y-543607D01*
X-543607Y-272581D02*
X-272581Y-543607D01*
X-543607Y-279765D02*
X-279765Y-543607D01*
X-543607Y-307387D02*
X-266879Y-30659D01*
X-543607Y-314571D02*
X-266152Y-37116D01*
X-487444Y-436507D02*
X-451210Y-472741D01*
X-487444Y-443691D02*
X-457399Y-473736D01*
X-487444Y-450876D02*
X-462549Y-475771D01*
X-487444Y-414954D02*
X-358791Y-543607D01*
X-487444Y-429323D02*
X-443189Y-473578D01*
X-487444Y-422139D02*
X-365975Y-543607D01*
X-487444Y-501165D02*
X-445002Y-543607D01*
X-487444Y-508349D02*
X-452186Y-543607D01*
X-487444Y-458060D02*
X-466914Y-478589D01*
X-488021Y-514956D02*
X-459370Y-543607D01*
X-487444Y-472428D02*
X-473588Y-486284D01*
X-487444Y-479612D02*
X-475835Y-491221D01*
X-487444Y-486796D02*
X-477132Y-497108D01*
X-487444Y-465244D02*
X-470591Y-482097D01*
X-487444Y-510000D02*
Y-410000D01*
Y-502671D02*
X-475751Y-490979D01*
X-487444Y-493981D02*
X-476910Y-504515D01*
X-487444Y-509855D02*
X-477284Y-499696D01*
X-489420Y-519015D02*
X-476578Y-506174D01*
X-496776Y-527755D02*
X-480923Y-543607D01*
X-423578Y-493189D02*
X-373159Y-543607D01*
X-423736Y-507399D02*
X-387528Y-543607D01*
X-422741Y-501210D02*
X-380344Y-543607D01*
X-428589Y-516914D02*
X-401896Y-543607D01*
X-432097Y-520591D02*
X-409081Y-543607D01*
X-425771Y-512549D02*
X-394712Y-543607D01*
X-441221Y-525835D02*
X-423449Y-543607D01*
X-447108Y-527132D02*
X-430633Y-543607D01*
X-436284Y-523588D02*
X-416265Y-543607D01*
X-456538D02*
X-436825Y-523895D01*
X-454515Y-526910D02*
X-437817Y-543607D01*
X-489993Y-520168D02*
X-466554Y-543607D01*
X-492459D02*
X-468711Y-519860D01*
X-485275Y-543607D02*
X-464673Y-523005D01*
X-499643Y-543607D02*
X-472075Y-516039D01*
X-506828Y-543607D02*
X-474737Y-511516D01*
X-492953Y-524393D02*
X-473739Y-543607D01*
X-470906D02*
X-454252Y-526953D01*
X-478091Y-543607D02*
X-459907Y-525424D01*
X-463722Y-543607D02*
X-447263Y-527148D01*
X-507402Y-531497D02*
X-495291Y-543607D01*
X-501504Y-530210D02*
X-488107Y-543607D01*
X-543607Y-466554D02*
X-530556Y-479605D01*
X-543607Y-479808D02*
X-530556Y-466757D01*
X-543607Y-459370D02*
X-530556Y-472421D01*
X-543607Y-465440D02*
X-530556Y-452388D01*
X-543607Y-472624D02*
X-530556Y-459573D01*
X-543607Y-494176D02*
X-530556Y-481125D01*
X-543607Y-480923D02*
X-530556Y-493974D01*
X-543607Y-488107D02*
X-530556Y-501158D01*
X-543607Y-473739D02*
X-530556Y-486790D01*
X-543607Y-486992D02*
X-530556Y-473941D01*
X-543607Y-430633D02*
X-530556Y-443685D01*
X-543607Y-436703D02*
X-530556Y-423652D01*
X-543607Y-443887D02*
X-530556Y-430836D01*
X-543607Y-429519D02*
X-530556Y-416467D01*
X-543607Y-416265D02*
X-530556Y-429316D01*
X-543607Y-423449D02*
X-530556Y-436500D01*
X-543607Y-458255D02*
X-530556Y-445204D01*
X-543607Y-445002D02*
X-530556Y-458053D01*
X-543607Y-452186D02*
X-530556Y-465237D01*
X-543607Y-437817D02*
X-530556Y-450869D01*
X-543607Y-451071D02*
X-530556Y-438020D01*
X-542748Y-543607D02*
X-524313Y-525172D01*
X-543607Y-509660D02*
X-509660Y-543607D01*
X-543607Y-516844D02*
X-516844Y-543607D01*
X-543607Y-524028D02*
X-524028Y-543607D01*
X-515544Y-530539D02*
X-502475Y-543607D01*
X-521196D02*
X-509144Y-531555D01*
X-514012Y-543607D02*
X-499985Y-529580D01*
X-535564Y-543607D02*
X-520308Y-528352D01*
X-528380Y-543607D02*
X-515367Y-530594D01*
X-543607Y-502475D02*
X-529539Y-516544D01*
X-543607Y-515729D02*
X-530556Y-502678D01*
X-543607Y-522913D02*
X-530556Y-509862D01*
X-543607Y-495291D02*
X-530556Y-508342D01*
X-543607Y-501361D02*
X-530556Y-488310D01*
X-543607Y-508545D02*
X-530556Y-495494D01*
X-543607Y-531212D02*
X-531212Y-543607D01*
X-543607Y-538396D02*
X-538396Y-543607D01*
X-542748D02*
X-524313Y-525172D01*
X-543607Y-530098D02*
X-529660Y-516150D01*
X-543607Y-537282D02*
X-527458Y-521133D01*
D13*
X509000Y460000D02*
Y530540D01*
Y460000D02*
X529540D01*
X488460D02*
X509000D01*
Y389460D02*
Y460000D01*
Y-460000D02*
Y-389460D01*
Y-530540D02*
Y-460000D01*
X488460D02*
X509000D01*
X529540D01*
X-509000Y460000D02*
Y530540D01*
X-529540Y460000D02*
X-509000D01*
Y389460D02*
Y460000D01*
X-488460D01*
X-509000Y-460000D02*
Y-389460D01*
Y-460000D02*
X-488460D01*
X-529540D02*
X-509000D01*
Y-530540D02*
Y-460000D01*
D14*
D03*
X509000D02*
D03*
Y460000D02*
D03*
X-509000D02*
D03*
M02*
