G04*
G04 #@! TF.GenerationSoftware,Altium Limited,Altium Designer,25.8.1 (18)*
G04*
G04 Layer_Physical_Order=2*
G04 Layer_Color=16711680*
%FSLAX44Y44*%
%MOMM*%
G71*
G04*
G04 #@! TF.SameCoordinates,5BCDE232-B0A3-4B63-ACBE-DE64D98267A6*
G04*
G04*
G04 #@! TF.FilePolarity,Positive*
G04*
G01*
G75*
%ADD12C,0.2032*%
%ADD13C,0.2540*%
%ADD14O,3.6000X13.6000*%
%ADD15C,4.0000*%
D12*
X530556Y510000D02*
G03*
X487444Y510000I-21556J0D01*
G01*
Y410000D02*
G03*
X530556Y410000I21556J0D01*
G01*
X476016Y500000D02*
G03*
X476016Y500000I-26016J0D01*
G01*
X530556Y-410000D02*
G03*
X487444Y-410000I-21556J0D01*
G01*
Y-510000D02*
G03*
X530556Y-510000I21556J0D01*
G01*
X476016Y-500000D02*
G03*
X476016Y-500000I-26016J0D01*
G01*
X-423984Y500000D02*
G03*
X-423984Y500000I-26016J0D01*
G01*
X-487444Y510000D02*
G03*
X-530556Y510000I-21556J0D01*
G01*
Y410000D02*
G03*
X-487444Y410000I21556J0D01*
G01*
Y-410000D02*
G03*
X-530556Y-410000I-21556J0D01*
G01*
X-423984Y-500000D02*
G03*
X-423984Y-500000I-26016J0D01*
G01*
X-530556Y-510000D02*
G03*
X-487444Y-510000I21556J0D01*
G01*
X515283Y543607D02*
X543607Y515283D01*
X522467Y543607D02*
X543607Y522467D01*
X508099Y543607D02*
X543607Y508099D01*
X342862Y543607D02*
X543607Y342862D01*
X335678Y543607D02*
X543607Y335678D01*
X528078Y520035D02*
X543607Y535564D01*
X525144Y524285D02*
X543607Y542748D01*
X328494Y543607D02*
X543607Y328494D01*
X321309Y543607D02*
X543607Y321309D01*
X314125Y543607D02*
X543607Y314125D01*
X510788Y531482D02*
X522913Y543607D01*
X500915D02*
X513425Y531097D01*
X502753Y530631D02*
X515729Y543607D01*
X493731D02*
X505993Y531345D01*
X474281Y509343D02*
X508545Y543607D01*
X529652D02*
X543607Y529652D01*
X536836Y543607D02*
X543607Y536836D01*
X525144Y524285D02*
X543607Y542748D01*
X516645Y530155D02*
X530098Y543607D01*
X521345Y527671D02*
X537282Y543607D01*
X235099D02*
X543607Y235099D01*
X242283Y543607D02*
X543607Y242283D01*
X227915Y543607D02*
X543607Y227915D01*
X220730Y543607D02*
X543607Y220730D01*
X213546Y543607D02*
X543607Y213546D01*
X199178Y543607D02*
X543607Y199178D01*
X206362Y543607D02*
X543607Y206362D01*
X191994Y543607D02*
X543607Y191994D01*
X184809Y543607D02*
X543607Y184809D01*
X177625Y543607D02*
X543607Y177625D01*
X299757Y543607D02*
X543607Y299757D01*
X306941Y543607D02*
X543607Y306941D01*
X292573Y543607D02*
X543607Y292572D01*
X285388Y543607D02*
X543607Y285388D01*
X278204Y543607D02*
X543607Y278204D01*
X271020Y543607D02*
X543607Y271020D01*
X263836Y543607D02*
X543607Y263836D01*
X256651Y543607D02*
X543607Y256651D01*
X249467Y543607D02*
X543607Y249467D01*
X91415Y543607D02*
X543607Y91415D01*
X98599Y543607D02*
X543607Y98599D01*
X84230Y543607D02*
X543607Y84230D01*
X77046Y543607D02*
X543607Y77046D01*
X69862Y543607D02*
X543607Y69862D01*
X55494Y543607D02*
X543607Y55493D01*
X62678Y543607D02*
X543607Y62678D01*
X48309Y543607D02*
X543607Y48309D01*
X41125Y543607D02*
X543607Y41125D01*
X33941Y543607D02*
X543607Y33941D01*
X163257Y543607D02*
X543607Y163257D01*
X170441Y543607D02*
X543607Y170441D01*
X156073Y543607D02*
X543607Y156073D01*
X148888Y543607D02*
X543607Y148888D01*
X141704Y543607D02*
X543607Y141704D01*
X127336Y543607D02*
X543607Y127336D01*
X134520Y543607D02*
X543607Y134520D01*
X120152Y543607D02*
X543607Y120151D01*
X112967Y543607D02*
X543607Y112967D01*
X105783Y543607D02*
X543607Y105783D01*
X-45085Y543607D02*
X543607Y-45086D01*
X-37901Y543607D02*
X543607Y-37901D01*
X-52270Y543607D02*
X543607Y-52270D01*
X-59454Y543607D02*
X543607Y-59454D01*
X-66638Y543607D02*
X543607Y-66638D01*
X-81006Y543607D02*
X543607Y-81006D01*
X-73822Y543607D02*
X543607Y-73822D01*
X-88191Y543607D02*
X543607Y-88191D01*
X-95375Y543607D02*
X543607Y-95375D01*
X-102559Y543607D02*
X543607Y-102559D01*
X19572Y543607D02*
X543607Y19572D01*
X26757Y543607D02*
X543607Y26757D01*
X12388Y543607D02*
X543607Y12388D01*
X5204Y543607D02*
X543607Y5204D01*
X-1980Y543607D02*
X543607Y-1980D01*
X-9164Y543607D02*
X543607Y-9164D01*
X-16349Y543607D02*
X543607Y-16349D01*
X-23533Y543607D02*
X543607Y-23533D01*
X-30717Y543607D02*
X543607Y-30717D01*
X530556Y478045D02*
X543607Y464994D01*
X530556Y465039D02*
X543607Y478091D01*
X530556Y457855D02*
X543607Y470906D01*
X530556Y472224D02*
X543607Y485275D01*
X530556Y485229D02*
X543607Y472178D01*
X530556Y443487D02*
X543607Y456538D01*
X530556Y463676D02*
X543607Y450625D01*
X530556Y456492D02*
X543607Y443441D01*
X530556Y470861D02*
X543607Y457809D01*
X530556Y450671D02*
X543607Y463722D01*
X530556Y500960D02*
X543607Y514012D01*
X530556Y508145D02*
X543607Y521196D01*
X530556Y493776D02*
X543607Y506828D01*
X530017Y514790D02*
X543607Y528380D01*
X530097Y514425D02*
X543607Y500915D01*
X530556Y479408D02*
X543607Y492459D01*
X530556Y499598D02*
X543607Y486546D01*
X530556Y492413D02*
X543607Y479362D01*
X530556Y506782D02*
X543607Y493731D01*
X530556Y486592D02*
X543607Y499643D01*
X530556Y420571D02*
X543607Y407520D01*
X530556Y427756D02*
X543607Y414704D01*
X530556Y413387D02*
X543607Y400336D01*
X530400Y407409D02*
X543607Y420617D01*
X530268Y406490D02*
X543607Y393152D01*
X525843Y396547D02*
X543607Y378783D01*
X528583Y400991D02*
X543607Y385967D01*
X522227Y392979D02*
X543607Y371599D01*
X517731Y390291D02*
X543607Y364415D01*
X512161Y388677D02*
X543607Y357230D01*
X530556Y449308D02*
X543607Y436257D01*
X530556Y436302D02*
X543607Y449354D01*
X530556Y429118D02*
X543607Y442169D01*
X530556Y410000D02*
Y510000D01*
Y434940D02*
X543607Y421888D01*
X530556Y414750D02*
X543607Y427801D01*
X530556Y442124D02*
X543607Y429073D01*
X530556Y421934D02*
X543607Y434985D01*
X504795Y388858D02*
X543607Y350046D01*
X253886Y87790D02*
X543607Y377512D01*
X255748Y82468D02*
X543607Y370327D01*
X250043Y98316D02*
X543607Y391880D01*
X252024Y93112D02*
X543607Y384696D01*
X261879Y59862D02*
X543607Y341591D01*
X260544Y65711D02*
X543607Y348775D01*
X263214Y54013D02*
X543607Y334406D01*
X257396Y76932D02*
X543607Y363143D01*
X259003Y71355D02*
X543607Y355959D01*
X243558Y113384D02*
X543607Y413433D01*
X247939Y103396D02*
X543607Y399064D01*
X241223Y118233D02*
X511591Y388600D01*
X245835Y108476D02*
X543607Y406249D01*
X267917Y-20311D02*
X543607Y255380D01*
X268344Y-12699D02*
X543607Y262564D01*
X267149Y-28262D02*
X543607Y248196D01*
X266237Y-36359D02*
X543607Y241012D01*
X264850Y-44930D02*
X543607Y233827D01*
X261167Y-62981D02*
X543607Y219459D01*
X263292Y-53672D02*
X543607Y226643D01*
X258608Y-72724D02*
X543607Y212275D01*
X255586Y-82930D02*
X543607Y205091D01*
X251719Y-93982D02*
X543607Y197906D01*
X267053Y29115D02*
X543607Y305669D01*
X266326Y35572D02*
X543607Y312854D01*
X267759Y22637D02*
X543607Y298485D01*
X264336Y47951D02*
X543607Y327222D01*
X265380Y41810D02*
X543607Y320038D01*
X268634Y1959D02*
X543607Y276933D01*
X268634Y-5225D02*
X543607Y269748D01*
X268166Y15860D02*
X543607Y291301D01*
X268548Y9058D02*
X543607Y284117D01*
X464789Y521404D02*
X486992Y543607D01*
X460154Y523953D02*
X479808Y543607D01*
X464994D02*
X489472Y519129D01*
X457809Y543607D02*
X487757Y513660D01*
X450625Y543607D02*
X487444Y506788D01*
X486546Y543607D02*
X500391Y529762D01*
X479362Y543607D02*
X495872Y527097D01*
X472178Y543607D02*
X492235Y523550D01*
X468679Y518109D02*
X494177Y543607D01*
X471860Y514106D02*
X501361Y543607D01*
X421888D02*
X441063Y524433D01*
X414704Y543607D02*
X436235Y522076D01*
X407520Y543607D02*
X432176Y518951D01*
X400336Y543607D02*
X428826Y515117D01*
X393152Y543607D02*
X426216Y510543D01*
X454619Y525603D02*
X472624Y543607D01*
X447751Y525919D02*
X465440Y543607D01*
X437421Y522773D02*
X458256Y543607D01*
X429073D02*
X446855Y525825D01*
X436257Y543607D02*
X454187Y525677D01*
X475760Y503638D02*
X488369Y516247D01*
X364415Y543607D02*
X487444Y420578D01*
Y410000D02*
Y510000D01*
X357230Y543607D02*
X487444Y413394D01*
X350046Y543607D02*
X487858Y405796D01*
X475825Y496855D02*
X487444Y485236D01*
X475677Y504187D02*
X487444Y492420D01*
X474433Y491063D02*
X487444Y478052D01*
X470597Y484106D02*
X487444Y500954D01*
X186790Y193116D02*
X487444Y493769D01*
X443441Y543607D02*
X487444Y499604D01*
X385967Y543607D02*
X424486Y505088D01*
X378783Y543607D02*
X424036Y498354D01*
X371599Y543607D02*
X426623Y488583D01*
X475775Y496469D02*
X487444Y508138D01*
X151153Y222136D02*
X424397Y495381D01*
X142421Y227773D02*
X427227Y512579D01*
X146833Y225001D02*
X424081Y502249D01*
X30659Y266879D02*
X307387Y543607D01*
X24202Y267607D02*
X300203Y543607D01*
X37116Y266152D02*
X314571Y543607D01*
X10684Y268457D02*
X285834Y543607D01*
X17486Y268075D02*
X293019Y543607D01*
X61261Y261560D02*
X343308Y543607D01*
X55412Y262895D02*
X336124Y543607D01*
X67087Y260202D02*
X350492Y543607D01*
X43279Y265130D02*
X321755Y543607D01*
X49419Y264087D02*
X328940Y543607D01*
X-26327Y267367D02*
X249913Y543607D01*
X-34423Y266455D02*
X242729Y543607D01*
X-42861Y265201D02*
X235545Y543607D01*
X-51516Y263731D02*
X228361Y543607D01*
X-60756Y261675D02*
X221176Y543607D01*
X-3507Y268634D02*
X271466Y543607D01*
X3677Y268634D02*
X278650Y543607D01*
X-10879Y268446D02*
X264282Y543607D01*
X-18491Y268019D02*
X257098Y543607D01*
X109678Y245319D02*
X407966Y543607D01*
X104611Y247436D02*
X400782Y543607D01*
X114543Y243000D02*
X415150Y543607D01*
X94384Y251578D02*
X386413Y543607D01*
X99531Y249540D02*
X393598Y543607D01*
X133454Y233174D02*
X443887Y543607D01*
X128827Y235732D02*
X436703Y543607D01*
X138010Y230545D02*
X451071Y543607D01*
X119392Y240665D02*
X422335Y543607D01*
X124200Y238289D02*
X429519Y543607D01*
X-70312Y259303D02*
X213992Y543607D01*
X-80403Y256396D02*
X206808Y543607D01*
X-91340Y252644D02*
X199624Y543607D01*
X-103110Y248058D02*
X192440Y543607D01*
X-116103Y242249D02*
X185256Y543607D01*
X83741Y255303D02*
X372045Y543607D01*
X89062Y253441D02*
X379229Y543607D01*
X72688Y258619D02*
X357677Y543607D01*
X78265Y257012D02*
X364861Y543607D01*
X216886Y158553D02*
X487444Y429112D01*
X213847Y162699D02*
X487444Y436296D01*
X219868Y154351D02*
X487444Y421927D01*
X207473Y170693D02*
X487444Y450664D01*
X210660Y166696D02*
X487444Y443480D01*
X231208Y136955D02*
X491570Y397317D01*
X228436Y141367D02*
X489008Y401939D01*
X233786Y132348D02*
X495025Y393588D01*
X222849Y150148D02*
X487444Y414743D01*
X225664Y145779D02*
X487569Y407684D01*
X468951Y482176D02*
X487444Y463683D01*
X472076Y486235D02*
X487444Y470868D01*
X465117Y478826D02*
X487444Y456499D01*
X460543Y476216D02*
X487444Y449315D01*
X438583Y476623D02*
X487444Y427762D01*
X448354Y474036D02*
X487444Y434946D01*
X455088Y474486D02*
X487444Y442131D01*
X223540Y149158D02*
X231377Y136686D01*
X205434Y173249D02*
X214618Y161732D01*
X214825Y161457D02*
X223349Y149444D01*
X266120Y37396D02*
X267769Y22759D01*
X263605Y52259D02*
X266072Y37737D01*
X267798Y22416D02*
X268624Y7709D01*
X236343Y127721D02*
X499348Y390726D01*
X238888Y123082D02*
X504686Y388880D01*
X268634Y-7365D02*
Y-0D01*
Y7365D01*
X267798Y-22416D02*
X268624Y-7709D01*
X266120Y-37396D02*
X267769Y-22759D01*
X263605Y-52259D02*
X266072Y-37737D01*
X251126Y95676D02*
X255991Y81772D01*
X245367Y109606D02*
X251004Y95997D01*
X256096Y81445D02*
X260174Y67290D01*
X231552Y136389D02*
X238677Y123497D01*
X238835Y123191D02*
X245226Y109920D01*
X260260Y66957D02*
X263538Y52596D01*
X260260Y-66957D02*
X263538Y-52596D01*
X256096Y-81445D02*
X260174Y-67290D01*
X251126Y-95676D02*
X255991Y-81772D01*
X52596Y263538D02*
X66957Y260260D01*
X37737Y266072D02*
X52259Y263605D01*
X67290Y260174D02*
X81445Y256096D01*
X7709Y268624D02*
X22416Y267798D01*
X22759Y267769D02*
X37396Y266120D01*
X123497Y238677D02*
X136389Y231552D01*
X109920Y245226D02*
X123191Y238835D01*
X136686Y231377D02*
X149158Y223540D01*
X81772Y255991D02*
X95676Y251126D01*
X95997Y251004D02*
X109606Y245367D01*
X-7365Y268634D02*
X7365D01*
X-22416Y267798D02*
X-7709Y268624D01*
X-37396Y266120D02*
X-22759Y267769D01*
X-52259Y263605D02*
X-37737Y266072D01*
X-66957Y260260D02*
X-52596Y263538D01*
X-81445Y256096D02*
X-67290Y260174D01*
X-95676Y251126D02*
X-81772Y255991D01*
X-109606Y245367D02*
X-95997Y251004D01*
X-123191Y238835D02*
X-109920Y245226D01*
X190382Y189523D02*
X487444Y486585D01*
X190382Y189523D02*
X487444Y486585D01*
X193974Y185931D02*
X487444Y479401D01*
X171648Y206711D02*
X440657Y475719D01*
X183118Y196628D02*
X465894Y479403D01*
X200828Y178417D02*
X487444Y465033D01*
X197438Y182211D02*
X487444Y472217D01*
X204219Y174623D02*
X487444Y457848D01*
X175530Y203408D02*
X446362Y474240D01*
X179324Y200018D02*
X453531Y474225D01*
X163655Y213085D02*
X431891Y481321D01*
X159558Y216173D02*
X428596Y485211D01*
X167652Y209898D02*
X435894Y478140D01*
X155356Y219155D02*
X426047Y489846D01*
X149444Y223349D02*
X161457Y214825D01*
X184745Y195161D02*
X195161Y184745D01*
X195397Y184495D02*
X205212Y173512D01*
X161732Y214618D02*
X173249Y205434D01*
X173512Y205212D02*
X184495Y195397D01*
X265921Y38628D02*
X543607Y-239059D01*
X264450Y47282D02*
X543607Y-231875D01*
X266901Y30463D02*
X543607Y-246243D01*
X260590Y65511D02*
X543607Y-217507D01*
X262715Y56202D02*
X543607Y-224691D01*
X268634Y-7D02*
X543607Y-274980D01*
X268634Y7178D02*
X543607Y-267796D01*
X268634Y-7191D02*
X543607Y-282164D01*
X267800Y22379D02*
X543607Y-253428D01*
X268228Y14768D02*
X543607Y-260612D01*
X240653Y-119416D02*
X543607Y183538D01*
X246843Y-106042D02*
X543607Y190722D01*
X232402Y-134852D02*
X543607Y176354D01*
X219332Y-155106D02*
X543607Y169170D01*
X229445Y139762D02*
X543607Y-174401D01*
X254535Y85934D02*
X543607Y-203138D01*
X250543Y97111D02*
X543607Y-195954D01*
X257818Y75467D02*
X543607Y-210322D01*
X238840Y123182D02*
X543607Y-181586D01*
X245462Y109375D02*
X543607Y-188770D01*
X257833Y-75416D02*
X543607Y-361191D01*
X259440Y-69839D02*
X543607Y-354007D01*
X543607Y543607D02*
X543607Y-543607D01*
X256226Y-80994D02*
X543607Y-368375D01*
X254392Y-86344D02*
X543607Y-375559D01*
X250615Y-96936D02*
X543607Y-389928D01*
X252530Y-91666D02*
X543607Y-382743D01*
X248511Y-102015D02*
X543607Y-397112D01*
X246407Y-107095D02*
X543607Y-404296D01*
X244193Y-112066D02*
X543607Y-411480D01*
X267888Y-20814D02*
X543607Y-296533D01*
X268270Y-14012D02*
X543607Y-289349D01*
X267251Y-27361D02*
X543607Y-303717D01*
X266523Y-33817D02*
X543607Y-310901D01*
X265663Y-40142D02*
X543607Y-318085D01*
X264620Y-46283D02*
X543607Y-325270D01*
X263552Y-52398D02*
X543607Y-332454D01*
X262242Y-58273D02*
X543607Y-339638D01*
X260907Y-64122D02*
X543607Y-346822D01*
X-116927Y543607D02*
X543607Y-116928D01*
X-109743Y543607D02*
X543607Y-109743D01*
X214462Y161928D02*
X543607Y-167217D01*
X-124112Y543607D02*
X543607Y-124112D01*
X-126064Y-543607D02*
X543607Y126064D01*
X-25485Y-543607D02*
X543607Y25485D01*
X-32669Y-543607D02*
X543607Y32669D01*
X-18301Y-543607D02*
X543607Y18301D01*
X-47038Y-543607D02*
X543607Y47038D01*
X-39854Y-543607D02*
X543607Y39854D01*
X-97327Y-543607D02*
X543607Y97327D01*
X-104512Y-543607D02*
X543607Y104512D01*
X-90143Y-543607D02*
X543607Y90143D01*
X-118880Y-543607D02*
X543607Y118880D01*
X-111696Y-543607D02*
X543607Y111696D01*
X-61406Y-543607D02*
X543607Y61406D01*
X-68590Y-543607D02*
X543607Y68590D01*
X-54222Y-543607D02*
X543607Y54222D01*
X-82959Y-543607D02*
X543607Y82959D01*
X-75775Y-543607D02*
X543607Y75775D01*
X75094Y-543607D02*
X543607Y-75094D01*
X67909Y-543607D02*
X543607Y-67909D01*
X82278Y-543607D02*
X543607Y-82278D01*
X53541Y-543607D02*
X543607Y-53541D01*
X60725Y-543607D02*
X543607Y-60725D01*
X111015Y-543607D02*
X543607Y-111015D01*
X103831Y-543607D02*
X543607Y-103830D01*
X118199Y-543607D02*
X543607Y-118199D01*
X89462Y-543607D02*
X543607Y-89462D01*
X96646Y-543607D02*
X543607Y-96646D01*
X10436Y-543607D02*
X543607Y-10436D01*
X3252Y-543607D02*
X543607Y-3252D01*
X17620Y-543607D02*
X543607Y-17620D01*
X-11117Y-543607D02*
X543607Y11117D01*
X-3933Y-543607D02*
X543607Y3933D01*
X39173Y-543607D02*
X543607Y-39173D01*
X46357Y-543607D02*
X543607Y-46357D01*
X24804Y-543607D02*
X543607Y-24804D01*
X31988Y-543607D02*
X543607Y-31988D01*
X530556Y-434350D02*
X543607Y-447401D01*
X530556Y-447356D02*
X543607Y-434304D01*
X530556Y-454540D02*
X543607Y-441488D01*
X530556Y-440171D02*
X543607Y-427120D01*
X530556Y-427166D02*
X543607Y-440217D01*
X530556Y-468908D02*
X543607Y-455857D01*
X530556Y-448718D02*
X543607Y-461770D01*
X530556Y-455903D02*
X543607Y-468954D01*
X530556Y-441534D02*
X543607Y-454586D01*
X530556Y-461724D02*
X543607Y-448673D01*
X530556Y-411435D02*
X543607Y-398383D01*
X529937Y-404870D02*
X543607Y-391199D01*
X529976Y-405033D02*
X543607Y-418665D01*
X524944Y-395494D02*
X543607Y-376831D01*
X527931Y-399691D02*
X543607Y-384015D01*
X530556Y-432987D02*
X543607Y-419936D01*
X530556Y-412797D02*
X543607Y-425849D01*
X530556Y-419982D02*
X543607Y-433033D01*
X530556Y-418619D02*
X543607Y-405567D01*
X530556Y-425803D02*
X543607Y-412752D01*
X530556Y-499008D02*
X543607Y-512059D01*
X530556Y-491824D02*
X543607Y-504875D01*
X530556Y-506192D02*
X543607Y-519244D01*
X530452Y-512118D02*
X543607Y-498962D01*
X530325Y-513146D02*
X543607Y-526428D01*
X534883Y-543607D02*
X543607Y-534883D01*
X528714Y-518719D02*
X543607Y-533612D01*
X542067Y-543607D02*
X543607Y-542067D01*
X526028Y-523217D02*
X543607Y-540796D01*
X527699Y-543607D02*
X543607Y-527699D01*
X530556Y-470271D02*
X543607Y-483322D01*
X530556Y-483277D02*
X543607Y-470225D01*
X530556Y-490461D02*
X543607Y-477410D01*
X530556Y-476092D02*
X543607Y-463041D01*
X530556Y-463087D02*
X543607Y-476138D01*
X530556Y-484640D02*
X543607Y-497691D01*
X530556Y-504829D02*
X543607Y-491778D01*
X530556Y-477455D02*
X543607Y-490507D01*
X530556Y-497645D02*
X543607Y-484594D01*
X218778Y-543607D02*
X543607Y-218778D01*
X211594Y-543607D02*
X543607Y-211594D01*
X225962Y-543607D02*
X543607Y-225962D01*
X125383Y-543607D02*
X543607Y-125383D01*
X204410Y-543607D02*
X543607Y-204410D01*
X521096Y-392158D02*
X543607Y-369646D01*
X516338Y-389731D02*
X543607Y-362462D01*
X247515Y-543607D02*
X543607Y-247515D01*
X233146Y-543607D02*
X543607Y-233146D01*
X240331Y-543607D02*
X543607Y-240331D01*
X175673Y-543607D02*
X543607Y-175673D01*
X168489Y-543607D02*
X543607Y-168488D01*
X182857Y-543607D02*
X543607Y-182857D01*
X154120Y-543607D02*
X543607Y-154120D01*
X161304Y-543607D02*
X543607Y-161304D01*
X510396Y-388489D02*
X543607Y-355278D01*
X502135Y-389566D02*
X543607Y-348094D01*
X190041Y-543607D02*
X543607Y-190041D01*
X197225Y-543607D02*
X543607Y-197225D01*
X254699Y-543607D02*
X543607Y-254699D01*
X146936Y-543607D02*
X543607Y-146936D01*
X326541Y-543607D02*
X543607Y-326541D01*
X132567Y-543607D02*
X543607Y-132567D01*
X139752Y-543607D02*
X543607Y-139752D01*
X513331Y-543607D02*
X543607Y-513331D01*
X506147Y-543607D02*
X543607Y-506146D01*
X520515Y-543607D02*
X543607Y-520515D01*
X333725Y-543607D02*
X543607Y-333725D01*
X340910Y-543607D02*
X543607Y-340910D01*
X283436Y-543607D02*
X543607Y-283436D01*
X276252Y-543607D02*
X543607Y-276252D01*
X290620Y-543607D02*
X543607Y-290620D01*
X261883Y-543607D02*
X543607Y-261883D01*
X269067Y-543607D02*
X543607Y-269067D01*
X312173Y-543607D02*
X543607Y-312173D01*
X319357Y-543607D02*
X543607Y-319357D01*
X297804Y-543607D02*
X543607Y-297804D01*
X304988Y-543607D02*
X543607Y-304988D01*
X239523Y-121764D02*
X506364Y-388606D01*
X245367Y-109606D02*
X251004Y-95997D01*
X241858Y-116915D02*
X513967Y-389024D01*
X237038Y-126463D02*
X500686Y-390112D01*
X234481Y-131090D02*
X496112Y-392721D01*
X231923Y-135717D02*
X492425Y-396219D01*
X229189Y-140168D02*
X489608Y-400586D01*
X226417Y-144580D02*
X487821Y-405984D01*
X223645Y-148991D02*
X487444Y-412791D01*
X220678Y-153209D02*
X487444Y-419975D01*
X238835Y-123191D02*
X245226Y-109920D01*
X231552Y-136389D02*
X238677Y-123497D01*
X223540Y-149158D02*
X231377Y-136686D01*
X214825Y-161457D02*
X223349Y-149444D01*
X205434Y-173249D02*
X214618Y-161732D01*
X195397Y-184495D02*
X205212Y-173512D01*
X184745Y-195161D02*
X195161Y-184745D01*
X173512Y-205212D02*
X184495Y-195397D01*
X161732Y-214618D02*
X173249Y-205434D01*
X149444Y-223349D02*
X161457Y-214825D01*
X211526Y-165610D02*
X487444Y-441527D01*
X214692Y-161591D02*
X487444Y-434343D01*
X208339Y-169607D02*
X487444Y-448712D01*
X205140Y-173592D02*
X487444Y-455896D01*
X201750Y-177386D02*
X487444Y-463080D01*
X194951Y-184955D02*
X487444Y-477449D01*
X198360Y-181180D02*
X487444Y-470264D01*
X191358Y-188547D02*
X487444Y-484633D01*
X187766Y-192139D02*
X487444Y-491817D01*
X184150Y-195706D02*
X487444Y-499000D01*
X217696Y-157411D02*
X487444Y-427159D01*
X176562Y-202486D02*
X448127Y-474052D01*
X180356Y-199096D02*
X455928Y-474668D01*
X172735Y-205844D02*
X442103Y-475212D01*
X168738Y-209031D02*
X437109Y-477402D01*
X164741Y-212219D02*
X432909Y-480386D01*
X160701Y-215362D02*
X429422Y-484083D01*
X156498Y-218344D02*
X426661Y-488506D01*
X152296Y-221326D02*
X424741Y-493771D01*
X148033Y-224247D02*
X423985Y-500199D01*
X136686Y-231377D02*
X149158Y-223540D01*
X143621Y-227019D02*
X425584Y-508982D01*
X123497Y-238677D02*
X136389Y-231552D01*
X109920Y-245226D02*
X123191Y-238835D01*
X-88334Y-253695D02*
X201577Y-543607D01*
X95997Y-251004D02*
X109606Y-245367D01*
X-77659Y-257187D02*
X208762Y-543607D01*
X-112335Y-244064D02*
X187209Y-543607D01*
X-99775Y-249439D02*
X194393Y-543607D01*
X81772Y-255991D02*
X95676Y-251126D01*
X-95676Y-251126D02*
X-81772Y-255991D01*
X-81445Y-256096D02*
X-67290Y-260174D01*
X-123191Y-238835D02*
X-109920Y-245226D01*
X-109606Y-245367D02*
X-95997Y-251004D01*
X67290Y-260174D02*
X81445Y-256096D01*
X52596Y-263538D02*
X66957Y-260260D01*
X-66957D02*
X-52596Y-263538D01*
X-52259Y-263605D02*
X-37737Y-266072D01*
X134712Y-232479D02*
X445841Y-543607D01*
X130085Y-235036D02*
X438657Y-543607D01*
X139209Y-229792D02*
X453025Y-543607D01*
X120711Y-240030D02*
X424288Y-543607D01*
X125458Y-237593D02*
X431472Y-543607D01*
X111013Y-244700D02*
X409920Y-543607D01*
X105992Y-246864D02*
X402735Y-543607D01*
X115862Y-242365D02*
X417104Y-543607D01*
X95808Y-251049D02*
X388367Y-543607D01*
X100912Y-248968D02*
X395551Y-543607D01*
X85188Y-254797D02*
X373999Y-543607D01*
X79782Y-256575D02*
X366814Y-543607D01*
X90510Y-252934D02*
X381183Y-543607D01*
X68627Y-259789D02*
X352446Y-543607D01*
X74205Y-258182D02*
X359630Y-543607D01*
X57002Y-262532D02*
X338078Y-543607D01*
X62851Y-261197D02*
X345262Y-543607D01*
X-67567Y-260094D02*
X215946Y-543607D01*
X-58224Y-262253D02*
X223130Y-543607D01*
X530556Y-510000D02*
Y-410000D01*
X487444Y-510000D02*
Y-410000D01*
X473069Y-512026D02*
X487444Y-497652D01*
X475948Y-501873D02*
X487761Y-513686D01*
X463950Y-478040D02*
X487444Y-454547D01*
X459157Y-475649D02*
X487444Y-447362D01*
X467979Y-481196D02*
X487444Y-461731D01*
X453413Y-474209D02*
X487444Y-440178D01*
X446171Y-474267D02*
X487444Y-432994D01*
X475941Y-501970D02*
X487444Y-490468D01*
X475563Y-495165D02*
X487444Y-483283D01*
X475332Y-494072D02*
X487444Y-506184D01*
X471299Y-485060D02*
X487444Y-468915D01*
X473876Y-489667D02*
X487444Y-476099D01*
X474789Y-507897D02*
X510499Y-543607D01*
X484594D02*
X499069Y-529132D01*
X522462Y-526835D02*
X539234Y-543607D01*
X469614Y-517091D02*
X496130Y-543607D01*
X472598Y-512891D02*
X503314Y-543607D01*
X512525Y-531266D02*
X524867Y-543607D01*
X505314Y-531239D02*
X517683Y-543607D01*
X518021Y-529577D02*
X532051Y-543607D01*
X491778D02*
X504339Y-531046D01*
X498962Y-543607D02*
X511118Y-531452D01*
X465917Y-520578D02*
X488946Y-543607D01*
X463041D02*
X488889Y-517760D01*
X470225Y-543607D02*
X491395Y-522438D01*
X448673Y-543607D02*
X487444Y-504836D01*
X455857Y-543607D02*
X487531Y-511933D01*
X461494Y-523339D02*
X481762Y-543607D01*
X477410D02*
X494799Y-526217D01*
X449801Y-526015D02*
X467393Y-543607D01*
X456229Y-525259D02*
X474577Y-543607D01*
X32415Y-266681D02*
X309341Y-543607D01*
X25958Y-267409D02*
X302156Y-543607D01*
X38808Y-265890D02*
X316525Y-543607D01*
X12534Y-268353D02*
X287788Y-543607D01*
X19336Y-267971D02*
X294972Y-543607D01*
X432545Y-480709D02*
X487444Y-425810D01*
X5630Y-268634D02*
X280604Y-543607D01*
X-8809Y-268562D02*
X266235Y-543607D01*
X-1554Y-268634D02*
X273420Y-543607D01*
X37737Y-266072D02*
X52259Y-263605D01*
X22759Y-267769D02*
X37396Y-266120D01*
X-24125Y-267616D02*
X251867Y-543607D01*
X-37396Y-266120D02*
X-22759Y-267769D01*
X-32221Y-266703D02*
X244683Y-543607D01*
X7709Y-268624D02*
X22416Y-267798D01*
X-7365Y-268634D02*
X7365D01*
X-22416Y-267798D02*
X-7709Y-268624D01*
X-16421Y-268135D02*
X259051Y-543607D01*
X362462D02*
X487444Y-418625D01*
X405568Y-543607D02*
X431196Y-517979D01*
X412752Y-543607D02*
X435060Y-521299D01*
X348094Y-543607D02*
X488567Y-403135D01*
X355278Y-543607D02*
X487444Y-411441D01*
X441018Y-524416D02*
X460209Y-543607D01*
X434304D02*
X451970Y-525941D01*
X441489Y-543607D02*
X462026Y-523069D01*
X419936Y-543607D02*
X439667Y-523876D01*
X427120Y-543607D02*
X445165Y-525563D01*
X51089Y-263803D02*
X330893Y-543607D01*
X44949Y-264847D02*
X323709Y-543607D01*
X369646D02*
X430709Y-482545D01*
X-49162Y-264131D02*
X230314Y-543607D01*
X-40507Y-265601D02*
X237498Y-543607D01*
X391199D02*
X425649Y-509157D01*
X398383Y-543607D02*
X428040Y-513950D01*
X376831Y-543607D02*
X424267Y-496171D01*
X384015Y-543607D02*
X424209Y-503413D01*
X-239059Y543607D02*
X38628Y265921D01*
X-246243Y543607D02*
X30463Y266901D01*
X-231875Y543607D02*
X47282Y264450D01*
X-260612Y543607D02*
X14768Y268228D01*
X-253428Y543607D02*
X22379Y267800D01*
X-203138Y543607D02*
X85934Y254535D01*
X-210322Y543607D02*
X75467Y257818D01*
X-195954Y543607D02*
X97111Y250543D01*
X-224691Y543607D02*
X56202Y262715D01*
X-217507Y543607D02*
X65511Y260590D01*
X-303717Y543607D02*
X-27361Y267251D01*
X-310901Y543607D02*
X-33817Y266523D01*
X-318085Y543607D02*
X-40142Y265663D01*
X-325270Y543607D02*
X-46283Y264620D01*
X-346822Y543607D02*
X-64122Y260907D01*
X-274980Y543607D02*
X-7Y268634D01*
X-282164Y543607D02*
X-7191Y268634D01*
X-267796Y543607D02*
X7178Y268634D01*
X-289349Y543607D02*
X-14012Y268270D01*
X-296533Y543607D02*
X-20814Y267888D01*
X-181585Y543607D02*
X123182Y238840D01*
X-188770Y543607D02*
X109375Y245462D01*
X-174401Y543607D02*
X139762Y229445D01*
X-543607Y-84676D02*
X84677Y543607D01*
X-543607Y-99045D02*
X99045Y543607D01*
X-131012Y234524D02*
X178071Y543607D01*
X-149312Y223408D02*
X170887Y543607D01*
X-131296D02*
X543607Y-131296D01*
X-167217Y543607D02*
X161928Y214462D01*
X-184741Y195163D02*
X163703Y543607D01*
X-425849D02*
X-121764Y239523D01*
X-433033Y543607D02*
X-126463Y237038D01*
X-440217Y543607D02*
X-131090Y234481D01*
X-447401Y543607D02*
X-135717Y231923D01*
X-454585Y543607D02*
X-140168Y229189D01*
X-543607Y-55940D02*
X55940Y543607D01*
X-543607Y-70308D02*
X70308Y543607D01*
X-543607Y-34387D02*
X34387Y543607D01*
X-543607Y-48755D02*
X48755Y543607D01*
X-543607Y152402D02*
X-152402Y543607D01*
X-543607Y159587D02*
X-159587Y543607D01*
X-543607Y145218D02*
X-145218Y543607D01*
X-543607Y173955D02*
X-173955Y543607D01*
X-543607Y166771D02*
X-166771Y543607D01*
X-543607Y123666D02*
X-123666Y543607D01*
X-543607Y130850D02*
X-130850Y543607D01*
X-543607Y44639D02*
X-44639Y543607D01*
X-543607D02*
X543607D01*
X-543607Y138034D02*
X-138034Y543607D01*
X-543607Y224245D02*
X-224245Y543607D01*
X-543607Y231429D02*
X-231429Y543607D01*
X-543607Y217060D02*
X-217060Y543607D01*
X-543607Y245797D02*
X-245797Y543607D01*
X-543607Y238613D02*
X-238613Y543607D01*
X-543607Y188324D02*
X-188324Y543607D01*
X-543607Y195508D02*
X-195508Y543607D01*
X-543607Y181139D02*
X-181139Y543607D01*
X-543607Y209876D02*
X-209876Y543607D01*
X-543607Y202692D02*
X-202692Y543607D01*
X-543607Y-77492D02*
X77492Y543607D01*
X-543607Y-63124D02*
X63124Y543607D01*
X-543607Y-91861D02*
X91861Y543607D01*
X-543607Y-27203D02*
X27203Y543607D01*
X-543607Y-41571D02*
X41571Y543607D01*
X-543607Y-127782D02*
X127782Y543607D01*
X-543607Y-120597D02*
X120597Y543607D01*
X-543607Y-134966D02*
X134966Y543607D01*
X-543607Y-106229D02*
X106229Y543607D01*
X-543607Y-113413D02*
X113413Y543607D01*
X-543607Y15903D02*
X-15903Y543607D01*
X-543607Y23087D02*
X-23087Y543607D01*
X-543607Y8718D02*
X-8718Y543607D01*
X-543607Y37455D02*
X-37455Y543607D01*
X-543607Y30271D02*
X-30271Y543607D01*
X-543607Y-12834D02*
X12834Y543607D01*
X-543607Y-20018D02*
X20019Y543607D01*
X-543607Y1534D02*
X-1534Y543607D01*
X-543607Y-5650D02*
X5650Y543607D01*
X-375559D02*
X-86344Y254392D01*
X-382743Y543607D02*
X-91666Y252530D01*
X-389928Y543607D02*
X-96936Y250615D01*
X-397112Y543607D02*
X-102015Y248511D01*
X-404296Y543607D02*
X-107095Y246407D01*
X-332454Y543607D02*
X-52398Y263552D01*
X-339638Y543607D02*
X-58273Y262242D01*
X-354007Y543607D02*
X-69839Y259440D01*
X-361191Y543607D02*
X-75416Y257833D01*
X-368375Y543607D02*
X-80994Y256226D01*
X-411480Y543607D02*
X-112066Y244193D01*
X-418664Y543607D02*
X-116915Y241858D01*
X-424018Y498671D02*
X-148991Y223645D01*
X-424861Y506699D02*
X-144580Y226417D01*
X-425075Y492544D02*
X-153209Y220678D01*
X-136389Y231552D02*
X-123497Y238677D01*
X-149158Y223540D02*
X-136686Y231377D01*
X-161457Y214825D02*
X-149444Y223349D01*
X-427195Y487480D02*
X-157411Y217696D01*
X-430119Y483220D02*
X-161591Y214692D01*
X-433759Y479676D02*
X-165610Y211526D01*
X-438122Y476854D02*
X-169607Y208339D01*
X-173249Y205434D02*
X-161732Y214618D01*
X-443311Y474859D02*
X-173592Y205140D01*
X-449623Y473987D02*
X-177386Y201750D01*
X-184495Y195397D02*
X-173512Y205212D01*
X-195161Y184745D02*
X-184745Y195161D01*
X-195163Y184741D02*
X-184741Y195163D01*
X-205212Y173512D02*
X-195397Y184495D01*
X-214618Y161732D02*
X-205434Y173249D01*
X-223349Y149444D02*
X-214825Y161457D01*
X-231377Y136686D02*
X-223540Y149158D01*
X-238677Y123497D02*
X-231552Y136389D01*
X-245226Y109920D02*
X-238835Y123191D01*
X-251004Y95997D02*
X-245367Y109606D01*
X-245226Y-109920D02*
X-238835Y-123191D01*
X-238677Y-123497D02*
X-231552Y-136389D01*
X-255991Y-81772D02*
X-251126Y-95676D01*
X-251004Y-95997D02*
X-245367Y-109606D01*
X-458096Y475276D02*
X-181180Y198360D01*
X-487444Y483071D02*
X-192139Y187766D01*
X-487444Y475888D02*
X-195706Y184150D01*
X-487444Y497439D02*
X-184955Y194951D01*
X-487444Y490255D02*
X-188547Y191358D01*
X-487444Y454335D02*
X-205844Y172735D01*
X-487444Y447151D02*
X-209031Y168738D01*
X-487444Y439967D02*
X-212219Y164741D01*
X-487444Y468704D02*
X-199096Y180356D01*
X-487444Y461520D02*
X-202486Y176562D01*
X-487444Y425598D02*
X-218344Y156498D01*
X-487444Y418414D02*
X-221326Y152296D01*
X-487444Y411230D02*
X-224247Y148033D01*
X-487444Y432783D02*
X-215362Y160701D01*
X-488104Y404706D02*
X-227019Y143621D01*
X-490141Y399559D02*
X-229792Y139209D01*
X-493153Y395387D02*
X-232479Y134712D01*
X-497026Y392075D02*
X-235036Y130085D01*
X-501813Y389678D02*
X-237593Y125458D01*
X-543607Y94929D02*
X-94929Y543607D01*
X-543607Y102113D02*
X-102113Y543607D01*
X-543607Y87745D02*
X-87745Y543607D01*
X-543607Y116482D02*
X-116482Y543607D01*
X-543607Y109297D02*
X-109297Y543607D01*
X-543607Y59008D02*
X-59008Y543607D01*
X-543607Y66192D02*
X-66192Y543607D01*
X-543607Y51824D02*
X-51824Y543607D01*
X-543607Y80560D02*
X-80560Y543607D01*
X-543607Y73376D02*
X-73376Y543607D01*
X-507797Y388478D02*
X-240030Y120711D01*
X-516177Y389674D02*
X-242365Y115862D01*
X-543607Y395551D02*
X-248968Y100912D01*
X-543607Y409920D02*
X-244700Y111013D01*
X-543607Y402735D02*
X-246864Y105992D01*
X-543607Y187209D02*
X-244064Y-112335D01*
X-543607Y180025D02*
X-236938Y-126645D01*
X-543607Y388367D02*
X-251049Y95808D01*
X-543607Y194393D02*
X-249439Y-99775D01*
X-450179Y526015D02*
X-432587Y543607D01*
X-461770D02*
X-443301Y525139D01*
X-458950Y524428D02*
X-439771Y543607D01*
X-468954D02*
X-451329Y525982D01*
X-476138Y543607D02*
X-457456Y524925D01*
X-430377Y517081D02*
X-403850Y543607D01*
X-434072Y520570D02*
X-411034Y543607D01*
X-427395Y512878D02*
X-396666Y543607D01*
X-443755Y525255D02*
X-425403Y543607D01*
X-438493Y523333D02*
X-418218Y543607D01*
X-497966Y528518D02*
X-482876Y543607D01*
X-502972Y530696D02*
X-490061Y543607D01*
X-493908Y525391D02*
X-475692Y543607D01*
X-509298Y531554D02*
X-497245Y543607D01*
X-504875D02*
X-473146Y511878D01*
X-483322Y543607D02*
X-462520Y522805D01*
X-490507Y543607D02*
X-466780Y519881D01*
X-488443Y516488D02*
X-461324Y543607D01*
X-490709Y521406D02*
X-468508Y543607D01*
X-497691D02*
X-470324Y516241D01*
X-424050Y501854D02*
X-382297Y543607D01*
X-425207Y507882D02*
X-389482Y543607D01*
X-424674Y494046D02*
X-375113Y543607D01*
X-487446Y510301D02*
X-454139Y543607D01*
X-487444Y503119D02*
X-446955Y543607D01*
X-487444Y424092D02*
X-367929Y543607D01*
X-487444Y416908D02*
X-360745Y543607D01*
X-487446Y409722D02*
X-353560Y543607D01*
X-489818Y400165D02*
X-346376Y543607D01*
X-487444Y495934D02*
X-474428Y508950D01*
X-487527Y511891D02*
X-476013Y500377D01*
X-487444Y410000D02*
Y510000D01*
X-512059Y543607D02*
X-475141Y506689D01*
X-487444Y481566D02*
X-475255Y493755D01*
X-487444Y474382D02*
X-473333Y488493D01*
X-487444Y504624D02*
X-474724Y491904D01*
X-487444Y488750D02*
X-476015Y500179D01*
X-526428Y543607D02*
X-513829Y531008D01*
X-533612Y543607D02*
X-519066Y529062D01*
X-540796Y543607D02*
X-523310Y526121D01*
X-543607Y525981D02*
X-525981Y543607D01*
X-543607Y518797D02*
X-518797Y543607D01*
X-518875Y529161D02*
X-504429Y543607D01*
X-519243D02*
X-507109Y531473D01*
X-543607Y539234D02*
X-526690Y522317D01*
X-543607Y511613D02*
X-511613Y543607D01*
X-543607Y532051D02*
X-529168Y517611D01*
X-543607Y524867D02*
X-530485Y511745D01*
X-543607Y504429D02*
X-528161Y519875D01*
X-543607Y540350D02*
X-540350Y543607D01*
X-543607Y533166D02*
X-533166Y543607D01*
X-543607Y497245D02*
X-530554Y510298D01*
X-543607Y503314D02*
X-530556Y490263D01*
X-543607Y517683D02*
X-530556Y504632D01*
X-543607Y510499D02*
X-530556Y497447D01*
X-543607Y296087D02*
X-296087Y543607D01*
X-543607Y303271D02*
X-303271Y543607D01*
X-543607Y288903D02*
X-288902Y543607D01*
X-543607Y317639D02*
X-317639Y543607D01*
X-543607Y310455D02*
X-310455Y543607D01*
X-543607Y260166D02*
X-260166Y543607D01*
X-543607Y267350D02*
X-267350Y543607D01*
X-543607Y252981D02*
X-252981Y543607D01*
X-543607Y281718D02*
X-281718Y543607D01*
X-543607Y274534D02*
X-274534Y543607D01*
X-543607Y332008D02*
X-332008Y543607D01*
X-530556Y410000D02*
Y510000D01*
X-543607Y324824D02*
X-324824Y543607D01*
X-543607Y490061D02*
X-530556Y503112D01*
X-543607Y339192D02*
X-339192Y543607D01*
X-543607Y488946D02*
X-530556Y475895D01*
X-543607Y475692D02*
X-530556Y488743D01*
X-543607Y496130D02*
X-530556Y483079D01*
X-543607Y482876D02*
X-530556Y495928D01*
X-255991Y81772D02*
X-251126Y95676D01*
X-543607Y294972D02*
X-267971Y19336D01*
X-543607Y287788D02*
X-268353Y12534D01*
X-543607Y309341D02*
X-266681Y32415D01*
X-543607Y302156D02*
X-267409Y25958D01*
X-260174Y67290D02*
X-256096Y81445D01*
X-263538Y52596D02*
X-260260Y66957D01*
X-266072Y37737D02*
X-263605Y52259D01*
X-267769Y22759D02*
X-266120Y37396D01*
X-268624Y7709D02*
X-267798Y22416D01*
X-487444Y445645D02*
X-457882Y475207D01*
X-487444Y452829D02*
X-462878Y477395D01*
X-487444Y431276D02*
X-444046Y474674D01*
X-487444Y467197D02*
X-470570Y484072D01*
X-487444Y460013D02*
X-467081Y480377D01*
X-487444Y438461D02*
X-451854Y474050D01*
X-543607Y215946D02*
X-260094Y-67567D01*
X-543607Y223130D02*
X-262253Y-58224D01*
X-543607Y208762D02*
X-257187Y-77659D01*
X-543607Y237498D02*
X-265601Y-40507D01*
X-543607Y230314D02*
X-264131Y-49162D01*
X-263538Y-52596D02*
X-260260Y-66957D01*
X-266072Y-37737D02*
X-263605Y-52259D01*
X-260174Y-67290D02*
X-256096Y-81445D01*
X-267769Y-22759D02*
X-266120Y-37396D01*
X-543607Y201577D02*
X-253695Y-88334D01*
X-543607Y259051D02*
X-268135Y-16421D01*
X-543607Y266235D02*
X-268562Y-8809D01*
X-543607Y251867D02*
X-267616Y-24125D01*
X-543607Y280604D02*
X-268634Y5630D01*
X-543607Y273420D02*
X-268634Y-1554D01*
Y-7365D02*
Y0D01*
X-268624Y-7709D02*
X-267798Y-22416D01*
X-268634Y0D02*
Y7365D01*
X-543607Y244683D02*
X-266703Y-32221D01*
X-543607Y438657D02*
X-530556Y425605D01*
X-543607Y432587D02*
X-530556Y445638D01*
X-543607Y425403D02*
X-530556Y438454D01*
X-543607Y439771D02*
X-530556Y452822D01*
X-543607Y445841D02*
X-530556Y432789D01*
X-543607Y411034D02*
X-530556Y424085D01*
X-543607Y424288D02*
X-530556Y411237D01*
X-543607Y403850D02*
X-530556Y416901D01*
X-543607Y431472D02*
X-530556Y418421D01*
X-543607Y418218D02*
X-530556Y431270D01*
X-543607Y461324D02*
X-530556Y474375D01*
X-543607Y474577D02*
X-530556Y461526D01*
X-543607Y467393D02*
X-530556Y454342D01*
X-543607Y481762D02*
X-530556Y468711D01*
X-543607Y468508D02*
X-530556Y481559D01*
X-543607Y446955D02*
X-530556Y460006D01*
X-543607Y453025D02*
X-530556Y439974D01*
X-543607Y454139D02*
X-530556Y467191D01*
X-543607Y460209D02*
X-530556Y447158D01*
X-543607Y366814D02*
X-256575Y79782D01*
X-543607Y359630D02*
X-258182Y74205D01*
X-543607Y352446D02*
X-259789Y68627D01*
X-543607Y381183D02*
X-252934Y90510D01*
X-543607Y373999D02*
X-254797Y85188D01*
X-543607Y330893D02*
X-263803Y51089D01*
X-543607Y323709D02*
X-264847Y44949D01*
X-543607Y316525D02*
X-265890Y38808D01*
X-543607Y345262D02*
X-261197Y62851D01*
X-543607Y338078D02*
X-262532Y57002D01*
X-543607Y382297D02*
X-527299Y398606D01*
X-543607Y389482D02*
X-529561Y403527D01*
X-543607Y375113D02*
X-524102Y394618D01*
X-543607Y417104D02*
X-529326Y402822D01*
X-543607Y396666D02*
X-530554Y409719D01*
X-543607Y360745D02*
X-515043Y389309D01*
X-543607Y353560D02*
X-508722Y388446D01*
X-543607Y367929D02*
X-520047Y391490D01*
X-543607Y346376D02*
X-499165Y390818D01*
X-145664Y543607D02*
X543607Y-145664D01*
X-138480Y543607D02*
X543607Y-138480D01*
X-152849Y543607D02*
X543607Y-152849D01*
X-160033Y543607D02*
X543607Y-160033D01*
X-543607Y-6765D02*
X-6765Y-543607D01*
X-214618Y-161732D02*
X-205434Y-173249D01*
X-223349Y-149444D02*
X-214825Y-161457D01*
X-487444Y-452382D02*
X-206711Y-171648D01*
X-487444Y-438013D02*
X-213085Y-163655D01*
X-487444Y-445197D02*
X-209898Y-167652D01*
X-231377Y-136686D02*
X-223540Y-149158D01*
X-494122Y-394402D02*
X-233174Y-133454D01*
X-490872Y-398336D02*
X-230545Y-138010D01*
X-543607Y-178071D02*
X-234524Y131012D01*
X-498231Y-391327D02*
X-235732Y-128827D01*
X-487444Y-423645D02*
X-219155Y-155356D01*
X-487444Y-416461D02*
X-222136Y-151153D01*
X-487444Y-430829D02*
X-216173Y-159558D01*
X-488546Y-403195D02*
X-227773Y-142421D01*
X-487456Y-409288D02*
X-225001Y-146833D01*
X-140433Y-543607D02*
X543607Y140433D01*
X-147617Y-543607D02*
X543607Y147617D01*
X-133248Y-543607D02*
X543607Y133249D01*
X-161985Y-543607D02*
X543607Y161985D01*
X-154801Y-543607D02*
X543607Y154801D01*
X-543607Y-28317D02*
X-28317Y-543607D01*
X-543607Y-35502D02*
X-35501Y-543607D01*
X-543607Y-42686D02*
X-42686Y-543607D01*
X-543607Y-13949D02*
X-13949Y-543607D01*
X-543607Y-21133D02*
X-21133Y-543607D01*
X-543607Y-64238D02*
X-64238Y-543607D01*
X-543607Y-71423D02*
X-71423Y-543607D01*
X-543607Y-78607D02*
X-78607Y-543607D01*
X-543607Y-49870D02*
X-49870Y-543607D01*
X-543607Y-57054D02*
X-57054Y-543607D01*
X-543607Y-100160D02*
X-100159Y-543607D01*
X-543607Y-107344D02*
X-107344Y-543607D01*
X-543607Y-85791D02*
X-85791Y-543607D01*
X-543607Y-92975D02*
X-92975Y-543607D01*
X-543607Y-149334D02*
X149334Y543607D01*
X-543607Y-142150D02*
X142150Y543607D01*
X-543607Y-156519D02*
X156519Y543607D01*
X-543607Y158472D02*
X158472Y-543607D01*
X-543607Y151288D02*
X151288Y-543607D01*
X-543607Y65077D02*
X65077Y-543607D01*
X-543607Y57893D02*
X57893Y-543607D01*
X-543607Y50709D02*
X50709Y-543607D01*
X-543607Y144104D02*
X144104Y-543607D01*
X-543607Y136919D02*
X136920Y-543607D01*
X-543607Y-163703D02*
X-195163Y184741D01*
X-543607Y-170887D02*
X-223408Y149312D01*
X-543607Y43525D02*
X43525Y-543607D01*
X-543607Y172841D02*
X-226806Y-143961D01*
X-543607Y165656D02*
X-208318Y-169633D01*
X-543607Y21972D02*
X21972Y-543607D01*
X-543607Y14788D02*
X14788Y-543607D01*
X-543607Y7604D02*
X7604Y-543607D01*
X-543607Y36341D02*
X36341Y-543607D01*
X-543607Y29156D02*
X29156Y-543607D01*
X-543607Y115367D02*
X115367Y-543607D01*
X-543607Y108183D02*
X108183Y-543607D01*
X-543607Y100998D02*
X100998Y-543607D01*
X-543607Y129735D02*
X129735Y-543607D01*
X-543607Y122551D02*
X122551Y-543607D01*
X-543607Y79446D02*
X79446Y-543607D01*
X-543607Y72262D02*
X72262Y-543607D01*
X-543607Y419D02*
X419Y-543607D01*
X-543607Y93814D02*
X93814Y-543607D01*
X-543607Y86630D02*
X86630Y-543607D01*
X-543607Y-128896D02*
X-128896Y-543607D01*
X-543607Y-136081D02*
X-136081Y-543607D01*
X-543607Y-143265D02*
X-143265Y-543607D01*
X-543607Y-114528D02*
X-114528Y-543607D01*
X-543607Y-121712D02*
X-121712Y-543607D01*
X-543607Y-164817D02*
X-164817Y-543607D01*
X-543607Y-172002D02*
X-172002Y-543607D01*
X-543607Y-150449D02*
X-150449Y-543607D01*
X-543607Y-157633D02*
X-157633Y-543607D01*
X-241012D02*
X36359Y-266237D01*
X-248196Y-543607D02*
X28262Y-267149D01*
X-233827Y-543607D02*
X44930Y-264850D01*
X-298485Y-543607D02*
X-22637Y-267759D01*
X-255380Y-543607D02*
X20311Y-267917D01*
X-269748Y-543607D02*
X5225Y-268634D01*
X-276933Y-543607D02*
X-1959Y-268634D01*
X-262564Y-543607D02*
X12699Y-268344D01*
X-291301Y-543607D02*
X-15860Y-268166D01*
X-284117Y-543607D02*
X-9058Y-268548D01*
X-173249Y-205434D02*
X-161732Y-214618D01*
X-184495Y-195397D02*
X-173512Y-205212D01*
X-161457Y-214825D02*
X-149444Y-223349D01*
X-205212Y-173512D02*
X-195397Y-184495D01*
X-195161Y-184745D02*
X-184745Y-195161D01*
X-136389Y-231552D02*
X-123497Y-238677D01*
X-149158Y-223540D02*
X-136686Y-231377D01*
X-305669Y-543607D02*
X-29115Y-267053D01*
X-320038Y-543607D02*
X-41810Y-265380D01*
X-312854Y-543607D02*
X-35572Y-266326D01*
X-143961Y-226806D02*
X172841Y-543607D01*
X-169170D02*
X155106Y-219332D01*
X-126645Y-236938D02*
X180025Y-543607D01*
X-176354D02*
X134852Y-232402D01*
X-169633Y-208318D02*
X165656Y-543607D01*
X-190722D02*
X106042Y-246843D01*
X-197906Y-543607D02*
X93982Y-251719D01*
X-183538Y-543607D02*
X119416Y-240653D01*
X-212275Y-543607D02*
X72724Y-258608D01*
X-205091Y-543607D02*
X82930Y-255586D01*
X-348775Y-543607D02*
X-65712Y-260544D01*
X-355959Y-543607D02*
X-71355Y-259003D01*
X-219459Y-543607D02*
X62981Y-261167D01*
X-370327Y-543607D02*
X-82468Y-255748D01*
X-363143Y-543607D02*
X-76932Y-257396D01*
X-327222Y-543607D02*
X-47951Y-264336D01*
X-226643Y-543607D02*
X53672Y-263292D01*
X-341591Y-543607D02*
X-59862Y-261879D01*
X-334406Y-543607D02*
X-54013Y-263214D01*
X-434871Y-478835D02*
X-166696Y-210660D01*
X-439443Y-476222D02*
X-170693Y-207473D01*
X-431039Y-482187D02*
X-162699Y-213847D01*
X-451623Y-474035D02*
X-178417Y-200828D01*
X-444894Y-474490D02*
X-174623Y-204219D01*
X-424173Y-496874D02*
X-150148Y-222849D01*
X-425562Y-491078D02*
X-154351Y-219868D01*
X-424327Y-504212D02*
X-145779Y-225664D01*
X-427916Y-486248D02*
X-158553Y-216886D01*
X-456538Y-543607D02*
X-141367Y-228436D01*
X-487444Y-473934D02*
X-196628Y-183118D01*
X-487444Y-466750D02*
X-200018Y-179324D01*
X-487444Y-481119D02*
X-193116Y-186790D01*
X-487444Y-459566D02*
X-203408Y-175530D01*
X-543607Y-179186D02*
X-179186Y-543607D01*
X-461376Y-476603D02*
X-182211Y-197438D01*
X-487444Y-495487D02*
X-185931Y-193974D01*
X-487444Y-488303D02*
X-189523Y-190382D01*
X-487444Y-488303D02*
X-189523Y-190382D01*
X-413433Y-543607D02*
X-113384Y-243558D01*
X-420617Y-543607D02*
X-118233Y-241223D01*
X-406249Y-543607D02*
X-108476Y-245835D01*
X-434985Y-543607D02*
X-127721Y-236343D01*
X-427801Y-543607D02*
X-123082Y-238888D01*
X-384696Y-543607D02*
X-93112Y-252024D01*
X-391880Y-543607D02*
X-98316Y-250043D01*
X-377512Y-543607D02*
X-87790Y-253886D01*
X-543607Y-543607D02*
X543607D01*
X-399064D02*
X-103396Y-247939D01*
X-543607Y-200739D02*
X-200738Y-543607D01*
X-543607Y-207923D02*
X-207923Y-543607D01*
X-543607Y-215107D02*
X-215107Y-543607D01*
X-543607Y-186370D02*
X-186370Y-543607D01*
X-543607Y-193554D02*
X-193554Y-543607D01*
X-449354D02*
X-136955Y-231208D01*
X-442169Y-543607D02*
X-132348Y-233786D01*
X-543607Y-222291D02*
X-222291Y-543607D01*
X-543607Y-229475D02*
X-229475Y-543607D01*
X-543607Y-386413D02*
X-251578Y-94384D01*
X-543607Y-379229D02*
X-253441Y-89062D01*
X-543607Y-393597D02*
X-249540Y-99531D01*
X-543607Y-364861D02*
X-257012Y-78265D01*
X-543607Y-372045D02*
X-255303Y-83741D01*
X-503300Y-389211D02*
X-238289Y-124200D01*
X-509729Y-388456D02*
X-240665Y-119392D01*
X-519804Y-391347D02*
X-243000Y-114543D01*
X-543607Y-400782D02*
X-247436Y-104611D01*
X-543607Y-407966D02*
X-245319Y-109678D01*
X-543607Y-380344D02*
X-526516Y-397435D01*
X-543607Y-387528D02*
X-529050Y-402085D01*
X-543607Y-365975D02*
X-518788Y-390794D01*
X-543607Y-373160D02*
X-523085Y-393682D01*
X-543607Y-409081D02*
X-530556Y-422132D01*
X-543607Y-401896D02*
X-530556Y-414948D01*
X-543607Y-422334D02*
X-530544Y-409271D01*
X-543607Y-394712D02*
X-530450Y-407869D01*
X-543607Y-415150D02*
X-527653Y-399196D01*
X-543607Y-272581D02*
X-272581Y-543607D01*
X-543607Y-279765D02*
X-279765Y-543607D01*
X-543607Y-286949D02*
X-286949Y-543607D01*
X-543607Y-258212D02*
X-258212Y-543607D01*
X-543607Y-265396D02*
X-265396Y-543607D01*
X-487444Y-414954D02*
X-358791Y-543607D01*
X-487444Y-429323D02*
X-441277Y-475490D01*
X-487444Y-422139D02*
X-365975Y-543607D01*
X-543607Y-315686D02*
X-315686Y-543607D01*
X-487574Y-407641D02*
X-351607Y-543607D01*
X-530556Y-510000D02*
Y-410000D01*
X-487444Y-510000D02*
Y-410000D01*
X-543607Y-416265D02*
X-530556Y-429316D01*
X-543607Y-429519D02*
X-530556Y-416467D01*
X-543607Y-430633D02*
X-530556Y-443685D01*
X-543607Y-443887D02*
X-530556Y-430836D01*
X-543607Y-423449D02*
X-530556Y-436500D01*
X-543607Y-436703D02*
X-530556Y-423652D01*
X-543607Y-199624D02*
X-252644Y91340D01*
X-543607Y-206808D02*
X-256396Y80403D01*
X-543607Y-213992D02*
X-259303Y70312D01*
X-543607Y-185255D02*
X-242249Y116103D01*
X-543607Y-192440D02*
X-248058Y103110D01*
X-543607Y-235545D02*
X-265201Y42861D01*
X-543607Y-242729D02*
X-266455Y34423D01*
X-543607Y-314571D02*
X-266152Y-37116D01*
X-543607Y-221176D02*
X-261675Y60756D01*
X-543607Y-228361D02*
X-263731Y51516D01*
X-543607Y-264282D02*
X-268446Y10879D01*
X-543607Y-271466D02*
X-268634Y3507D01*
X-543607Y-278650D02*
X-268634Y-3677D01*
X-543607Y-249913D02*
X-267367Y26326D01*
X-543607Y-257097D02*
X-268019Y18491D01*
X-543607Y-300203D02*
X-267607Y-24202D01*
X-543607Y-307387D02*
X-266879Y-30659D01*
X-543607Y-285834D02*
X-268457Y-10684D01*
X-543607Y-293019D02*
X-268075Y-17486D01*
X-543607Y-343308D02*
X-261560Y-61261D01*
X-543607Y-336124D02*
X-262895Y-55412D01*
X-543607Y-350492D02*
X-260202Y-67087D01*
X-543607Y-321755D02*
X-265131Y-43279D01*
X-543607Y-328940D02*
X-264087Y-49419D01*
X-543607Y-243844D02*
X-243844Y-543607D01*
X-543607Y-251028D02*
X-251028Y-543607D01*
X-543607Y-294133D02*
X-294133Y-543607D01*
X-543607Y-357677D02*
X-258619Y-72688D01*
X-543607Y-236660D02*
X-236660Y-543607D01*
X-543607Y-308502D02*
X-308502Y-543607D01*
X-543607Y-322870D02*
X-322870Y-543607D01*
X-543607Y-330054D02*
X-330054Y-543607D01*
X-543607Y543607D02*
X-543607Y-543607D01*
X-543607Y-301317D02*
X-301317Y-543607D01*
X-543607Y-351607D02*
X-506641Y-388573D01*
X-543607Y-358791D02*
X-513483Y-388915D01*
X-543607Y-337239D02*
X-337238Y-543607D01*
X-543607Y-344423D02*
X-344423Y-543607D01*
X-487444Y-450876D02*
X-461604Y-476715D01*
X-487444Y-458060D02*
X-466010Y-479494D01*
X-487444Y-465244D02*
X-469691Y-482997D01*
X-487444Y-436507D02*
X-449967Y-473984D01*
X-487444Y-443691D02*
X-456362Y-474774D01*
X-487444Y-472428D02*
X-472658Y-487215D01*
X-487444Y-502671D02*
X-473397Y-488624D01*
X-499643Y-543607D02*
X-471165Y-515129D01*
X-492953Y-524393D02*
X-473739Y-543607D01*
X-487444Y-493981D02*
X-475280Y-506145D01*
X-487444Y-486796D02*
X-475959Y-498281D01*
X-487444Y-509855D02*
X-475965Y-498377D01*
X-487444Y-479612D02*
X-474828Y-492228D01*
X-489420Y-519015D02*
X-475510Y-505106D01*
X-501504Y-530210D02*
X-488107Y-543607D01*
X-496776Y-527755D02*
X-480923Y-543607D01*
X-507402Y-531497D02*
X-495291Y-543607D01*
X-506828D02*
X-473778Y-510557D01*
X-425490Y-491277D02*
X-373159Y-543607D01*
X-424774Y-506362D02*
X-387528Y-543607D01*
X-423984Y-499967D02*
X-380344Y-543607D01*
X-429494Y-516010D02*
X-401896Y-543607D01*
X-426715Y-511604D02*
X-394712Y-543607D01*
X-437215Y-522658D02*
X-416265Y-543607D01*
X-442228Y-524828D02*
X-423449Y-543607D01*
X-432997Y-519691D02*
X-409081Y-543607D01*
X-456145Y-525280D02*
X-437817Y-543607D01*
X-448281Y-525959D02*
X-430633Y-543607D01*
X-487444Y-501165D02*
X-445002Y-543607D01*
X-488021Y-514956D02*
X-459370Y-543607D01*
X-487444Y-508349D02*
X-452186Y-543607D01*
X-492459D02*
X-467813Y-518961D01*
X-489993Y-520168D02*
X-466554Y-543607D01*
X-470906D02*
X-453127Y-525827D01*
X-463722Y-543607D02*
X-445788Y-525673D01*
X-485275Y-543607D02*
X-463752Y-522084D01*
X-478091Y-543607D02*
X-458922Y-524438D01*
X-543607Y-486992D02*
X-530556Y-473941D01*
X-543607Y-479808D02*
X-530556Y-466757D01*
X-543607Y-473739D02*
X-530556Y-486790D01*
X-543607Y-501361D02*
X-530556Y-488310D01*
X-543607Y-488107D02*
X-530556Y-501158D01*
X-543607Y-495291D02*
X-530556Y-508342D01*
X-543607Y-480923D02*
X-530556Y-493974D01*
X-543607Y-494176D02*
X-530556Y-481125D01*
X-543607Y-458255D02*
X-530556Y-445204D01*
X-543607Y-445002D02*
X-530556Y-458053D01*
X-543607Y-452186D02*
X-530556Y-465237D01*
X-543607Y-437817D02*
X-530556Y-450869D01*
X-543607Y-451071D02*
X-530556Y-438020D01*
X-543607Y-472624D02*
X-530556Y-459573D01*
X-543607Y-466554D02*
X-530556Y-479605D01*
X-543607Y-465440D02*
X-530556Y-452388D01*
X-543607Y-459370D02*
X-530556Y-472421D01*
X-543607Y-524028D02*
X-524028Y-543607D01*
X-542748D02*
X-524313Y-525172D01*
X-543607Y-509660D02*
X-509660Y-543607D01*
X-543607Y-516844D02*
X-516844Y-543607D01*
X-515544Y-530539D02*
X-502475Y-543607D01*
X-521196D02*
X-509144Y-531555D01*
X-514012Y-543607D02*
X-499985Y-529580D01*
X-535564Y-543607D02*
X-520308Y-528352D01*
X-528380Y-543607D02*
X-515367Y-530594D01*
X-543607Y-522913D02*
X-530556Y-509862D01*
X-543607Y-515729D02*
X-530556Y-502678D01*
X-543607Y-530098D02*
X-529660Y-516150D01*
X-543607Y-508545D02*
X-530556Y-495494D01*
X-543607Y-502475D02*
X-529539Y-516544D01*
X-543607Y-538396D02*
X-538396Y-543607D01*
X-542748D02*
X-524313Y-525172D01*
X-543607Y-537282D02*
X-527458Y-521133D01*
X-543607Y-531212D02*
X-531212Y-543607D01*
D13*
X509000Y389460D02*
Y460000D01*
Y530540D01*
X488460Y460000D02*
X509000D01*
X529540D01*
X509000Y-460000D02*
Y-389460D01*
X488460Y-460000D02*
X509000D01*
X529540D01*
X509000Y-530540D02*
Y-460000D01*
X-509000Y460000D02*
Y530540D01*
Y460000D02*
X-488460D01*
X-509000Y389460D02*
Y460000D01*
X-529540D02*
X-509000D01*
Y-460000D02*
Y-389460D01*
Y-530540D02*
Y-460000D01*
X-488460D01*
X-529540D02*
X-509000D01*
D14*
D03*
X509000D02*
D03*
Y460000D02*
D03*
X-509000D02*
D03*
D15*
X-450000Y-500000D02*
D03*
X450000D02*
D03*
Y500000D02*
D03*
X-450000D02*
D03*
M02*
